<svg xmlns="http://www.w3.org/2000/svg" width="900" height="296" viewBox="0 0 900 296" font-family="ui-monospace,SFMono-Regular,'SF Mono',Menlo,Consolas,'DejaVu Sans Mono',monospace" role="img"><defs><pattern id="grid" patternUnits="userSpaceOnUse" width="8" height="8"><path d="M8 0 L0 0 0 8" fill="none" stroke="#152331" stroke-width="0.6"/></pattern></defs><rect x="0.5" y="0.5" width="899" height="295" rx="4" fill="#0b141d" stroke="#27415a" stroke-width="1"/><rect x="12" y="12" width="876" height="272" fill="url(#grid)" opacity="0.85"/><text x="60.7" y="8.5" fill="#5d788f" font-size="7" font-weight="400" text-anchor="middle" opacity="0.75">1</text><text x="60.7" y="292.5" fill="#5d788f" font-size="7" font-weight="400" text-anchor="middle" opacity="0.75">1</text><text x="158.0" y="8.5" fill="#5d788f" font-size="7" font-weight="400" text-anchor="middle" opacity="0.75">2</text><text x="158.0" y="292.5" fill="#5d788f" font-size="7" font-weight="400" text-anchor="middle" opacity="0.75">2</text><line x1="109.3" y1="0.0" x2="109.3" y2="12.0" stroke="#27415a" stroke-width="0.7" opacity="0.5"></line><line x1="109.3" y1="284.0" x2="109.3" y2="296.0" stroke="#27415a" stroke-width="0.7" opacity="0.5"></line><text x="255.3" y="8.5" fill="#5d788f" font-size="7" font-weight="400" text-anchor="middle" opacity="0.75">3</text><text x="255.3" y="292.5" fill="#5d788f" font-size="7" font-weight="400" text-anchor="middle" opacity="0.75">3</text><line x1="206.7" y1="0.0" x2="206.7" y2="12.0" stroke="#27415a" stroke-width="0.7" opacity="0.5"></line><line x1="206.7" y1="284.0" x2="206.7" y2="296.0" stroke="#27415a" stroke-width="0.7" opacity="0.5"></line><text x="352.7" y="8.5" fill="#5d788f" font-size="7" font-weight="400" text-anchor="middle" opacity="0.75">4</text><text x="352.7" y="292.5" fill="#5d788f" font-size="7" font-weight="400" text-anchor="middle" opacity="0.75">4</text><line x1="304.0" y1="0.0" x2="304.0" y2="12.0" stroke="#27415a" stroke-width="0.7" opacity="0.5"></line><line x1="304.0" y1="284.0" x2="304.0" y2="296.0" stroke="#27415a" stroke-width="0.7" opacity="0.5"></line><text x="450.0" y="8.5" fill="#5d788f" font-size="7" font-weight="400" text-anchor="middle" opacity="0.75">5</text><text x="450.0" y="292.5" fill="#5d788f" font-size="7" font-weight="400" text-anchor="middle" opacity="0.75">5</text><line x1="401.3" y1="0.0" x2="401.3" y2="12.0" stroke="#27415a" stroke-width="0.7" opacity="0.5"></line><line x1="401.3" y1="284.0" x2="401.3" y2="296.0" stroke="#27415a" stroke-width="0.7" opacity="0.5"></line><text x="547.3" y="8.5" fill="#5d788f" font-size="7" font-weight="400" text-anchor="middle" opacity="0.75">6</text><text x="547.3" y="292.5" fill="#5d788f" font-size="7" font-weight="400" text-anchor="middle" opacity="0.75">6</text><line x1="498.7" y1="0.0" x2="498.7" y2="12.0" stroke="#27415a" stroke-width="0.7" opacity="0.5"></line><line x1="498.7" y1="284.0" x2="498.7" y2="296.0" stroke="#27415a" stroke-width="0.7" opacity="0.5"></line><text x="644.7" y="8.5" fill="#5d788f" font-size="7" font-weight="400" text-anchor="middle" opacity="0.75">7</text><text x="644.7" y="292.5" fill="#5d788f" font-size="7" font-weight="400" text-anchor="middle" opacity="0.75">7</text><line x1="596.0" y1="0.0" x2="596.0" y2="12.0" stroke="#27415a" stroke-width="0.7" opacity="0.5"></line><line x1="596.0" y1="284.0" x2="596.0" y2="296.0" stroke="#27415a" stroke-width="0.7" opacity="0.5"></line><text x="742.0" y="8.5" fill="#5d788f" font-size="7" font-weight="400" text-anchor="middle" opacity="0.75">8</text><text x="742.0" y="292.5" fill="#5d788f" font-size="7" font-weight="400" text-anchor="middle" opacity="0.75">8</text><line x1="693.3" y1="0.0" x2="693.3" y2="12.0" stroke="#27415a" stroke-width="0.7" opacity="0.5"></line><line x1="693.3" y1="284.0" x2="693.3" y2="296.0" stroke="#27415a" stroke-width="0.7" opacity="0.5"></line><text x="839.3" y="8.5" fill="#5d788f" font-size="7" font-weight="400" text-anchor="middle" opacity="0.75">9</text><text x="839.3" y="292.5" fill="#5d788f" font-size="7" font-weight="400" text-anchor="middle" opacity="0.75">9</text><line x1="790.7" y1="0.0" x2="790.7" y2="12.0" stroke="#27415a" stroke-width="0.7" opacity="0.5"></line><line x1="790.7" y1="284.0" x2="790.7" y2="296.0" stroke="#27415a" stroke-width="0.7" opacity="0.5"></line><text x="7.5" y="59.8" fill="#5d788f" font-size="7" font-weight="400" text-anchor="middle" opacity="0.75">A</text><text x="892.5" y="59.8" fill="#5d788f" font-size="7" font-weight="400" text-anchor="middle" opacity="0.75">A</text><text x="7.5" y="150.5" fill="#5d788f" font-size="7" font-weight="400" text-anchor="middle" opacity="0.75">B</text><text x="892.5" y="150.5" fill="#5d788f" font-size="7" font-weight="400" text-anchor="middle" opacity="0.75">B</text><line x1="0.0" y1="102.7" x2="12.0" y2="102.7" stroke="#27415a" stroke-width="0.7" opacity="0.5"></line><line x1="888.0" y1="102.7" x2="900.0" y2="102.7" stroke="#27415a" stroke-width="0.7" opacity="0.5"></line><text x="7.5" y="241.2" fill="#5d788f" font-size="7" font-weight="400" text-anchor="middle" opacity="0.75">C</text><text x="892.5" y="241.2" fill="#5d788f" font-size="7" font-weight="400" text-anchor="middle" opacity="0.75">C</text><line x1="0.0" y1="193.3" x2="12.0" y2="193.3" stroke="#27415a" stroke-width="0.7" opacity="0.5"></line><line x1="888.0" y1="193.3" x2="900.0" y2="193.3" stroke="#27415a" stroke-width="0.7" opacity="0.5"></line><rect x="12.5" y="12.5" width="875" height="271" fill="none" stroke="#27415a" stroke-width="1.2"/><path d="M19.0 12.0 L12.0 12.0 L12.0 19.0" fill="none" stroke="#d7e6f2" stroke-width="1.4" opacity="0.55"/><path d="M881.0 12.0 L888.0 12.0 L888.0 19.0" fill="none" stroke="#d7e6f2" stroke-width="1.4" opacity="0.55"/><path d="M19.0 284.0 L12.0 284.0 L12.0 277.0" fill="none" stroke="#d7e6f2" stroke-width="1.4" opacity="0.55"/><path d="M881.0 284.0 L888.0 284.0 L888.0 277.0" fill="none" stroke="#d7e6f2" stroke-width="1.4" opacity="0.55"/><text x="22.0" y="27.0" fill="#5d788f" font-size="8" font-weight="400" text-anchor="start" letter-spacing="1.6">DAILY TELEMETRY</text><text x="878.0" y="276.0" fill="#5d788f" font-size="7.5" font-weight="400" text-anchor="end" letter-spacing="1.2">SH 3 / 5</text><line x1="252.1" y1="32.0" x2="252.1" y2="266.0" stroke="#27415a" stroke-width="0.9" stroke-dasharray="234.0" opacity="1.0"><animate attributeName="stroke-dashoffset" from="234.0" to="0" dur="0.9s" begin="0.22s" fill="freeze" calcMode="spline" keySplines="0.3 0.9 0.3 1" keyTimes="0;1"/></line><line x1="380.3" y1="32.0" x2="380.3" y2="266.0" stroke="#27415a" stroke-width="0.9" stroke-dasharray="234.0" opacity="1.0"><animate attributeName="stroke-dashoffset" from="234.0" to="0" dur="0.9s" begin="0.22s" fill="freeze" calcMode="spline" keySplines="0.3 0.9 0.3 1" keyTimes="0;1"/></line><line x1="685.6" y1="32.0" x2="685.6" y2="266.0" stroke="#27415a" stroke-width="0.9" stroke-dasharray="234.0" opacity="1.0"><animate attributeName="stroke-dashoffset" from="234.0" to="0" dur="0.9s" begin="0.22s" fill="freeze" calcMode="spline" keySplines="0.3 0.9 0.3 1" keyTimes="0;1"/></line><g opacity="1"><animate attributeName="opacity" from="0" to="1" dur="0.4s" begin="0.30s" fill="freeze"/><text x="26.0" y="52.0" fill="#5d788f" font-size="7.6" font-weight="400" text-anchor="start" letter-spacing="1.3">LAUNCH WINDOW</text></g><line x1="26.0" y1="60.0" x2="240.1" y2="60.0" stroke="#27415a" stroke-width="0.8" stroke-dasharray="214.1" opacity="1.0"><animate attributeName="stroke-dashoffset" from="214.1" to="0" dur="0.6s" begin="0.15s" fill="freeze" calcMode="spline" keySplines="0.3 0.9 0.3 1" keyTimes="0;1"/></line><g opacity="1"><animate attributeName="opacity" from="0" to="1" dur="0.5s" begin="0.58s" fill="freeze"/><text x="26.0" y="98.0" fill="#d7e6f2" font-size="20" font-weight="700" text-anchor="start" letter-spacing="1.2">T+ 00d 11h 04m</text></g><g opacity="1"><animate attributeName="opacity" from="0" to="1" dur="0.4s" begin="0.63s" fill="freeze"/><line x1="26.0" y1="108.0" x2="240.1" y2="108.0" stroke="#27415a" stroke-width="0.7" opacity="0.8"></line></g><g opacity="1"><animate attributeName="opacity" from="0" to="1" dur="0.4s" begin="0.68s" fill="freeze"/><text x="26.0" y="126.0" fill="#d7e6f2" font-size="11" font-weight="700" text-anchor="start">Glonass-K1 No. 19</text></g><g opacity="1"><animate attributeName="opacity" from="0" to="1" dur="0.4s" begin="0.68s" fill="freeze"/><text x="26.0" y="140.0" fill="#8ba3b8" font-size="8.6" font-weight="400" text-anchor="start">Soyuz 2.1b/Fregat</text></g><g opacity="1"><animate attributeName="opacity" from="0" to="1" dur="0.4s" begin="0.73s" fill="freeze"/><text x="26.0" y="162.0" fill="#5d788f" font-size="6.8" font-weight="400" text-anchor="start" letter-spacing="1.0">STATUS</text></g><g opacity="1"><animate attributeName="opacity" from="0" to="1" dur="0.4s" begin="0.76s" fill="freeze"/><text x="26.0" y="176.0" fill="#4da3ff" font-size="11" font-weight="400" text-anchor="start" letter-spacing="1.2">SUCCESS</text></g><g opacity="1"><animate attributeName="opacity" from="0" to="1" dur="0.4s" begin="0.36s" fill="freeze"/><text x="262.1" y="52.0" fill="#5d788f" font-size="7.6" font-weight="400" text-anchor="start" letter-spacing="1.3">OFF-PLANET</text></g><line x1="262.1" y1="60.0" x2="368.3" y2="60.0" stroke="#27415a" stroke-width="0.8" stroke-dasharray="106.1" opacity="1.0"><animate attributeName="stroke-dashoffset" from="106.1" to="0" dur="0.6s" begin="0.19s" fill="freeze" calcMode="spline" keySplines="0.3 0.9 0.3 1" keyTimes="0;1"/></line><g opacity="1"><animate attributeName="opacity" from="0" to="1" dur="0.6s" begin="0.66s" fill="freeze"/><text x="315.2" y="124.0" fill="#d7e6f2" font-size="48" font-weight="700" text-anchor="middle" letter-spacing="1.0">11</text></g><g opacity="1"><animate attributeName="opacity" from="0" to="1" dur="0.4s" begin="0.76s" fill="freeze"/><text x="315.2" y="142.0" fill="#5d788f" font-size="8" font-weight="400" text-anchor="middle" letter-spacing="1.3">HUMANS</text></g><g opacity="1"><animate attributeName="opacity" from="0" to="1" dur="0.4s" begin="0.76s" fill="freeze"/><text x="315.2" y="154.0" fill="#5d788f" font-size="8" font-weight="400" text-anchor="middle" letter-spacing="1.3">IN SPACE</text></g><g opacity="1"><animate attributeName="opacity" from="0" to="1" dur="0.4s" begin="0.42s" fill="freeze"/><text x="390.3" y="52.0" fill="#5d788f" font-size="7.6" font-weight="400" text-anchor="start" letter-spacing="1.3">ISS GROUND TRACK</text></g><line x1="390.3" y1="60.0" x2="673.6" y2="60.0" stroke="#27415a" stroke-width="0.8" stroke-dasharray="283.3" opacity="1.0"><animate attributeName="stroke-dashoffset" from="283.3" to="0" dur="0.6s" begin="0.23s" fill="freeze" calcMode="spline" keySplines="0.3 0.9 0.3 1" keyTimes="0;1"/></line><g opacity="1"><animate attributeName="opacity" from="0" to="1" dur="0.4s" begin="0.74s" fill="freeze"/><rect x="390.3" y="78.0" width="283.3" height="126.0" fill="#152331" stroke="#27415a" stroke-width="1" opacity="0.9"/><line x1="413.9" y1="78.0" x2="413.9" y2="204.0" stroke="#27415a" stroke-width="0.6" opacity="0.65"></line><line x1="437.5" y1="78.0" x2="437.5" y2="204.0" stroke="#27415a" stroke-width="0.6" opacity="0.65"></line><line x1="461.1" y1="78.0" x2="461.1" y2="204.0" stroke="#27415a" stroke-width="0.6" opacity="0.65"></line><line x1="484.7" y1="78.0" x2="484.7" y2="204.0" stroke="#27415a" stroke-width="0.6" opacity="0.65"></line><line x1="508.3" y1="78.0" x2="508.3" y2="204.0" stroke="#27415a" stroke-width="0.6" opacity="0.65"></line><line x1="531.9" y1="78.0" x2="531.9" y2="204.0" stroke="#27415a" stroke-width="0.6" opacity="0.65"></line><line x1="555.5" y1="78.0" x2="555.5" y2="204.0" stroke="#27415a" stroke-width="0.6" opacity="0.65"></line><line x1="579.1" y1="78.0" x2="579.1" y2="204.0" stroke="#27415a" stroke-width="0.6" opacity="0.65"></line><line x1="602.7" y1="78.0" x2="602.7" y2="204.0" stroke="#27415a" stroke-width="0.6" opacity="0.65"></line><line x1="626.3" y1="78.0" x2="626.3" y2="204.0" stroke="#27415a" stroke-width="0.6" opacity="0.65"></line><line x1="649.9" y1="78.0" x2="649.9" y2="204.0" stroke="#27415a" stroke-width="0.6" opacity="0.65"></line><line x1="390.3" y1="183.0" x2="673.6" y2="183.0" stroke="#27415a" stroke-width="0.6" opacity="0.6"></line><line x1="390.3" y1="162.0" x2="673.6" y2="162.0" stroke="#27415a" stroke-width="0.6" opacity="0.6"></line><line x1="390.3" y1="141.0" x2="673.6" y2="141.0" stroke="#27415a" stroke-width="0.6" opacity="0.95"></line><line x1="390.3" y1="120.0" x2="673.6" y2="120.0" stroke="#27415a" stroke-width="0.6" opacity="0.6"></line><line x1="390.3" y1="99.0" x2="673.6" y2="99.0" stroke="#27415a" stroke-width="0.6" opacity="0.6"></line><text x="394.3" y="137.0" fill="#5d788f" font-size="6" font-weight="400" text-anchor="start" letter-spacing="0.6" opacity="0.8">EQ</text><line x1="390.3" y1="104.9" x2="673.6" y2="104.9" stroke="#8ba3b8" stroke-width="0.7" stroke-dasharray="3 3" opacity="0.55"></line><line x1="390.3" y1="177.1" x2="673.6" y2="177.1" stroke="#8ba3b8" stroke-width="0.7" stroke-dasharray="3 3" opacity="0.55"></line><text x="669.6" y="100.9" fill="#5d788f" font-size="6" font-weight="400" text-anchor="end" letter-spacing="0.4" opacity="0.75">INC 51.6°</text><text x="391.3" y="212.0" fill="#5d788f" font-size="6" font-weight="400" text-anchor="start" letter-spacing="0.4">-180°</text><text x="531.9" y="212.0" fill="#5d788f" font-size="6" font-weight="400" text-anchor="middle" letter-spacing="0.4">0°</text><text x="672.6" y="212.0" fill="#5d788f" font-size="6" font-weight="400" text-anchor="end" letter-spacing="0.4">180°</text></g><path d="M390.3 114.7 L391.8 113.9 L393.4 113.0 L395.0 112.2 L396.6 111.5 L398.1 110.7 L399.7 110.0 L401.3 109.3 L402.9 108.7 L404.4 108.1 L406.0 107.5 L407.6 107.0 L409.2 106.5 L410.7 106.1 L412.3 105.8 L413.9 105.5 L415.5 105.2 L417.0 105.0 L418.6 104.9 L420.2 104.9 L421.8 104.9 L423.3 104.9 L424.9 105.0 L426.5 105.2 L428.0 105.5 L429.6 105.8 L431.2 106.1 L432.8 106.5 L434.3 107.0 L435.9 107.5 L437.5 108.0 L439.1 108.6 L440.6 109.3 L442.2 110.0 L443.8 110.7 L445.4 111.4 L446.9 112.2 L448.5 113.0 L450.1 113.8 L451.7 114.7 L453.2 115.6 L454.8 116.5 L456.4 117.4 L457.9 118.4 L459.5 119.3 L461.1 120.3 L462.7 121.3 L464.2 122.3 L465.8 123.3 L467.4 124.3 L469.0 125.3 L470.5 126.4 L472.1 127.4 L473.7 128.5 L475.3 129.6 L476.8 130.6 L478.4 131.7 L480.0 132.8 L481.6 133.9 L483.1 135.0 L484.7 136.0 L486.3 137.1 L487.8 138.2 L489.4 139.3 L491.0 140.4 L492.6 141.5 L494.1 142.6 L495.7 143.7 L497.3 144.8 L498.9 145.9 L500.4 147.0 L502.0 148.1 L503.6 149.2 L505.2 150.3 L506.7 151.3 L508.3 152.4 L509.9 153.5 L511.5 154.5 L513.0 155.6 L514.6 156.6 L516.2 157.7 L517.8 158.7 L519.3 159.7 L520.9 160.7 L522.5 161.7 L524.0 162.7 L525.6 163.6 L527.2 164.6 L528.8 165.5 L530.3 166.4 L531.9 167.3 L533.5 168.1 L535.1 169.0 L536.6 169.8 L538.2 170.5 L539.8 171.3 L541.4 172.0 L542.9 172.7 L544.5 173.3 L546.1 173.9 L547.7 174.5 L549.2 175.0 L550.8 175.5 L552.4 175.9 L553.9 176.2 L555.5 176.5 L557.1 176.8 L558.7 177.0 L560.2 177.1 L561.8 177.1 L563.4 177.1 L565.0 177.1 L566.5 177.0 L568.1 176.8 L569.7 176.5 L571.3 176.2 L572.8 175.9 L574.4 175.5 L576.0 175.0 L577.6 174.5 L579.1 174.0 L580.7 173.4 L582.3 172.7 L583.9 172.0 L585.4 171.3 L587.0 170.6 L588.6 169.8 L590.1 169.0 L591.7 168.2 L593.3 167.3 L594.9 166.4 L596.4 165.5 L598.0 164.6 L599.6 163.6 L601.2 162.7 L602.7 161.7 L604.3 160.7 L605.9 159.7 L607.5 158.7 L609.0 157.7 L610.6 156.7 L612.2 155.6 L613.8 154.6 L615.3 153.5 L616.9 152.4 L618.5 151.4 L620.0 150.3 L621.6 149.2 L623.2 148.1 L624.8 147.0 L626.3 146.0 L627.9 144.9 L629.5 143.8 L631.1 142.7 L632.6 141.6 L634.2 140.5 L635.8 139.4 L637.4 138.3 L638.9 137.2 L640.5 136.1 L642.1 135.0 L643.7 133.9 L645.2 132.8 L646.8 131.7 L648.4 130.7 L649.9 129.6 L651.5 128.5 L653.1 127.5 L654.7 126.4 L656.2 125.4 L657.8 124.3 L659.4 123.3 L661.0 122.3 L662.5 121.3 L664.1 120.3 L665.7 119.3 L667.3 118.4 L668.8 117.4 L670.4 116.5 L672.0 115.6 L673.6 114.7" fill="none" stroke="#4da3ff" stroke-width="1.4" stroke-linejoin="round" stroke-dasharray="322" stroke-dashoffset="0"><animate attributeName="stroke-dashoffset" from="322.3" to="0" dur="1.3s" begin="0.99s" fill="freeze" calcMode="spline" keySplines="0.3 0.9 0.3 1" keyTimes="0;1"/></path><g opacity="1"><animate attributeName="opacity" from="0" to="1" dur="0.4s" begin="1.89s" fill="freeze"/><circle cx="670.6" cy="116.4" r="7" fill="none" stroke="#4da3ff" stroke-width="0.9" opacity="0.65"/><circle cx="670.6" cy="116.4" r="2.6" fill="#4da3ff"/><line x1="659.6" y1="116.4" x2="681.6" y2="116.4" stroke="#4da3ff" stroke-width="0.7" opacity="0.55"></line><line x1="670.6" y1="105.4" x2="670.6" y2="127.4" stroke="#4da3ff" stroke-width="0.7" opacity="0.55"></line></g><g opacity="1"><animate attributeName="opacity" from="0" to="1" dur="0.4s" begin="1.09s" fill="freeze"/><text x="390.3" y="228.0" fill="#5d788f" font-size="7" font-weight="400" text-anchor="start" letter-spacing="1.0">LAT</text></g><g opacity="1"><animate attributeName="opacity" from="0" to="1" dur="0.4s" begin="1.09s" fill="freeze"/><text x="513.9" y="228.0" fill="#d7e6f2" font-size="8.4" font-weight="400" text-anchor="end">+35.14°</text></g><g opacity="1"><animate attributeName="opacity" from="0" to="1" dur="0.4s" begin="1.13s" fill="freeze"/><text x="531.9" y="228.0" fill="#5d788f" font-size="7" font-weight="400" text-anchor="start" letter-spacing="1.0">LON</text></g><g opacity="1"><animate attributeName="opacity" from="0" to="1" dur="0.4s" begin="1.13s" fill="freeze"/><text x="655.6" y="228.0" fill="#d7e6f2" font-size="8.4" font-weight="400" text-anchor="end">+176.27°</text></g><g opacity="1"><animate attributeName="opacity" from="0" to="1" dur="0.4s" begin="1.17s" fill="freeze"/><text x="390.3" y="241.0" fill="#5d788f" font-size="7" font-weight="400" text-anchor="start" letter-spacing="1.0">ALT</text></g><g opacity="1"><animate attributeName="opacity" from="0" to="1" dur="0.4s" begin="1.17s" fill="freeze"/><text x="513.9" y="241.0" fill="#d7e6f2" font-size="8.4" font-weight="400" text-anchor="end">415.9 KM</text></g><g opacity="1"><animate attributeName="opacity" from="0" to="1" dur="0.4s" begin="1.21s" fill="freeze"/><text x="531.9" y="241.0" fill="#5d788f" font-size="7" font-weight="400" text-anchor="start" letter-spacing="1.0">VEL</text></g><g opacity="1"><animate attributeName="opacity" from="0" to="1" dur="0.4s" begin="1.21s" fill="freeze"/><text x="655.6" y="241.0" fill="#d7e6f2" font-size="8.4" font-weight="400" text-anchor="end">27 607 KM/H</text></g><g opacity="1"><animate attributeName="opacity" from="0" to="1" dur="0.4s" begin="1.24s" fill="freeze"/><text x="390.3" y="258.0" fill="#5d788f" font-size="6.8" font-weight="400" text-anchor="start" letter-spacing="0.9">SAMPLED 13:44:36 UTC</text></g><g opacity="1"><animate attributeName="opacity" from="0" to="1" dur="0.4s" begin="0.48s" fill="freeze"/><text x="695.6" y="52.0" fill="#5d788f" font-size="7.6" font-weight="400" text-anchor="start" letter-spacing="1.3">CONTACT</text></g><line x1="695.6" y1="60.0" x2="862.0" y2="60.0" stroke="#27415a" stroke-width="0.8" stroke-dasharray="166.4" opacity="1.0"><animate attributeName="stroke-dashoffset" from="166.4" to="0" dur="0.6s" begin="0.27s" fill="freeze" calcMode="spline" keySplines="0.3 0.9 0.3 1" keyTimes="0;1"/></line><g opacity="1"><animate attributeName="opacity" from="0" to="1" dur="0.4s" begin="0.82s" fill="freeze"/><text x="695.6" y="88.0" fill="#5d788f" font-size="7" font-weight="400" text-anchor="start" letter-spacing="1.1">LAST CONTACT</text></g><g opacity="1"><animate attributeName="opacity" from="0" to="1" dur="0.4s" begin="0.88s" fill="freeze"/><text x="695.6" y="107.0" fill="#d7e6f2" font-size="15" font-weight="600" text-anchor="start" letter-spacing="0.3">5h 16m ago</text></g><g opacity="1"><animate attributeName="opacity" from="0" to="1" dur="0.4s" begin="0.92s" fill="freeze"/><text x="695.6" y="120.0" fill="#8ba3b8" font-size="8.6" font-weight="400" text-anchor="start">henrykanaskie</text></g><g opacity="1"><animate attributeName="opacity" from="0" to="1" dur="0.4s" begin="0.94s" fill="freeze"/><text x="695.6" y="140.0" fill="#5d788f" font-size="7" font-weight="400" text-anchor="start" letter-spacing="1.1">STREAK</text></g><g opacity="1"><animate attributeName="opacity" from="0" to="1" dur="0.4s" begin="1.00s" fill="freeze"/><text x="695.6" y="159.0" fill="#d7e6f2" font-size="14" font-weight="600" text-anchor="start" letter-spacing="0.3">1 DAY</text></g><g opacity="1"><animate attributeName="opacity" from="0" to="1" dur="0.4s" begin="1.02s" fill="freeze"/><text x="695.6" y="180.0" fill="#5d788f" font-size="7" font-weight="400" text-anchor="start" letter-spacing="1.1">PUSHES / 24 H</text></g><g opacity="1"><animate attributeName="opacity" from="0" to="1" dur="0.4s" begin="1.08s" fill="freeze"/><text x="695.6" y="199.0" fill="#d7e6f2" font-size="14" font-weight="600" text-anchor="start" letter-spacing="0.3">4</text></g><g opacity="1"><animate attributeName="opacity" from="0" to="1" dur="0.4s" begin="1.08s" fill="freeze"/><text x="695.6" y="220.0" fill="#5d788f" font-size="7" font-weight="400" text-anchor="start" letter-spacing="1.1">QUIETEST</text></g><g opacity="1"><animate attributeName="opacity" from="0" to="1" dur="0.4s" begin="1.14s" fill="freeze"/><text x="695.6" y="239.0" fill="#d7e6f2" font-size="14" font-weight="600" text-anchor="start" letter-spacing="0.3">548 DAYS</text></g><g opacity="1"><animate attributeName="opacity" from="0" to="1" dur="0.4s" begin="1.12s" fill="freeze"/><text x="695.6" y="252.0" fill="#8ba3b8" font-size="8.6" font-weight="400" text-anchor="start">small-shell</text></g><g opacity="1"><animate attributeName="opacity" from="0" to="1" dur="0.4s" begin="0.80s" fill="freeze"/><text x="26.0" y="274.0" fill="#5d788f" font-size="6.8" font-weight="400" text-anchor="start" letter-spacing="1.0">GENERATED 2026-08-24 13:44 UTC</text></g></svg>