<svg xmlns="http://www.w3.org/2000/svg" width="300" height="672" viewBox="0 0 300 672" font-family="ui-monospace,SFMono-Regular,'SF Mono',Menlo,Consolas,'DejaVu Sans Mono',monospace" role="img"><defs><pattern id="grid" patternUnits="userSpaceOnUse" width="8" height="8"><path d="M8 0 L0 0 0 8" fill="none" stroke="#ece5d8" stroke-width="0.6"/></pattern></defs><rect x="0" y="0" width="300" height="672" fill="#ffffff"/><rect x="0" y="0" width="300" height="672" fill="url(#grid)" opacity="0.85"/><text x="55.3" y="4.5" fill="#8d8577" font-size="7" font-weight="400" text-anchor="middle" opacity="0.75">1</text><text x="55.3" y="672.5" fill="#8d8577" font-size="7" font-weight="400" text-anchor="middle" opacity="0.75">1</text><text x="150.0" y="4.5" fill="#8d8577" font-size="7" font-weight="400" text-anchor="middle" opacity="0.75">2</text><text x="150.0" y="672.5" fill="#8d8577" font-size="7" font-weight="400" text-anchor="middle" opacity="0.75">2</text><line x1="102.7" y1="0.0" x2="102.7" y2="8.0" stroke="#cdc4b4" stroke-width="0.7" opacity="0.5"></line><line x1="102.7" y1="664.0" x2="102.7" y2="672.0" stroke="#cdc4b4" stroke-width="0.7" opacity="0.5"></line><text x="244.7" y="4.5" fill="#8d8577" font-size="7" font-weight="400" text-anchor="middle" opacity="0.75">3</text><text x="244.7" y="672.5" fill="#8d8577" font-size="7" font-weight="400" text-anchor="middle" opacity="0.75">3</text><line x1="197.3" y1="0.0" x2="197.3" y2="8.0" stroke="#cdc4b4" stroke-width="0.7" opacity="0.5"></line><line x1="197.3" y1="664.0" x2="197.3" y2="672.0" stroke="#cdc4b4" stroke-width="0.7" opacity="0.5"></line><text x="3.5" y="57.4" fill="#8d8577" font-size="7" font-weight="400" text-anchor="middle" opacity="0.75">A</text><text x="296.5" y="57.4" fill="#8d8577" font-size="7" font-weight="400" text-anchor="middle" opacity="0.75">A</text><text x="3.5" y="151.1" fill="#8d8577" font-size="7" font-weight="400" text-anchor="middle" opacity="0.75">B</text><text x="296.5" y="151.1" fill="#8d8577" font-size="7" font-weight="400" text-anchor="middle" opacity="0.75">B</text><line x1="0.0" y1="101.7" x2="8.0" y2="101.7" stroke="#cdc4b4" stroke-width="0.7" opacity="0.5"></line><line x1="292.0" y1="101.7" x2="300.0" y2="101.7" stroke="#cdc4b4" stroke-width="0.7" opacity="0.5"></line><text x="3.5" y="244.8" fill="#8d8577" font-size="7" font-weight="400" text-anchor="middle" opacity="0.75">C</text><text x="296.5" y="244.8" fill="#8d8577" font-size="7" font-weight="400" text-anchor="middle" opacity="0.75">C</text><line x1="0.0" y1="195.4" x2="8.0" y2="195.4" stroke="#cdc4b4" stroke-width="0.7" opacity="0.5"></line><line x1="292.0" y1="195.4" x2="300.0" y2="195.4" stroke="#cdc4b4" stroke-width="0.7" opacity="0.5"></line><text x="3.5" y="338.5" fill="#8d8577" font-size="7" font-weight="400" text-anchor="middle" opacity="0.75">D</text><text x="296.5" y="338.5" fill="#8d8577" font-size="7" font-weight="400" text-anchor="middle" opacity="0.75">D</text><line x1="0.0" y1="289.1" x2="8.0" y2="289.1" stroke="#cdc4b4" stroke-width="0.7" opacity="0.5"></line><line x1="292.0" y1="289.1" x2="300.0" y2="289.1" stroke="#cdc4b4" stroke-width="0.7" opacity="0.5"></line><text x="3.5" y="432.2" fill="#8d8577" font-size="7" font-weight="400" text-anchor="middle" opacity="0.75">E</text><text x="296.5" y="432.2" fill="#8d8577" font-size="7" font-weight="400" text-anchor="middle" opacity="0.75">E</text><line x1="0.0" y1="382.9" x2="8.0" y2="382.9" stroke="#cdc4b4" stroke-width="0.7" opacity="0.5"></line><line x1="292.0" y1="382.9" x2="300.0" y2="382.9" stroke="#cdc4b4" stroke-width="0.7" opacity="0.5"></line><text x="3.5" y="525.9" fill="#8d8577" font-size="7" font-weight="400" text-anchor="middle" opacity="0.75">F</text><text x="296.5" y="525.9" fill="#8d8577" font-size="7" font-weight="400" text-anchor="middle" opacity="0.75">F</text><line x1="0.0" y1="476.6" x2="8.0" y2="476.6" stroke="#cdc4b4" stroke-width="0.7" opacity="0.5"></line><line x1="292.0" y1="476.6" x2="300.0" y2="476.6" stroke="#cdc4b4" stroke-width="0.7" opacity="0.5"></line><text x="3.5" y="619.6" fill="#8d8577" font-size="7" font-weight="400" text-anchor="middle" opacity="0.75">G</text><text x="296.5" y="619.6" fill="#8d8577" font-size="7" font-weight="400" text-anchor="middle" opacity="0.75">G</text><line x1="0.0" y1="570.3" x2="8.0" y2="570.3" stroke="#cdc4b4" stroke-width="0.7" opacity="0.5"></line><line x1="292.0" y1="570.3" x2="300.0" y2="570.3" stroke="#cdc4b4" stroke-width="0.7" opacity="0.5"></line><rect x="8.5" y="8.5" width="283" height="655" fill="none" stroke="#cdc4b4" stroke-width="1.2"/><path d="M15.0 8.0 L8.0 8.0 L8.0 15.0" fill="none" stroke="#16202b" stroke-width="1.4" opacity="0.55"/><path d="M285.0 8.0 L292.0 8.0 L292.0 15.0" fill="none" stroke="#16202b" stroke-width="1.4" opacity="0.55"/><path d="M15.0 664.0 L8.0 664.0 L8.0 657.0" fill="none" stroke="#16202b" stroke-width="1.4" opacity="0.55"/><path d="M285.0 664.0 L292.0 664.0 L292.0 657.0" fill="none" stroke="#16202b" stroke-width="1.4" opacity="0.55"/><text x="18.0" y="23.0" fill="#8d8577" font-size="8" font-weight="400" text-anchor="start" letter-spacing="1.6">DAILY TELEMETRY</text><text x="282.0" y="656.0" fill="#8d8577" font-size="7.5" font-weight="400" text-anchor="end" letter-spacing="1.2">SH 4 / 6</text><g opacity="1"><animate attributeName="opacity" from="0" to="1" dur="0.4s" begin="0.30s" fill="freeze"/><text x="18.0" y="42.0" fill="#8d8577" font-size="7.6" font-weight="400" text-anchor="start" letter-spacing="1.3">LAUNCH WINDOW</text></g><line x1="18.0" y1="50.0" x2="282.0" y2="50.0" stroke="#cdc4b4" stroke-width="0.8" stroke-dasharray="264.0" opacity="1.0"><animate attributeName="stroke-dashoffset" from="264.0" to="0" dur="0.6s" begin="0.15s" fill="freeze" calcMode="spline" keySplines="0.3 0.9 0.3 1" keyTimes="0;1"/></line><g opacity="1"><animate attributeName="opacity" from="0" to="1" dur="0.5s" begin="0.58s" fill="freeze"/><text x="18.0" y="80.0" fill="#16202b" font-size="24" font-weight="700" text-anchor="start" letter-spacing="1.44">T+ 00d 10h 22m</text></g><g opacity="1"><animate attributeName="opacity" from="0" to="1" dur="0.4s" begin="0.63s" fill="freeze"/><line x1="18.0" y1="89.0" x2="282.0" y2="89.0" stroke="#cdc4b4" stroke-width="0.7" opacity="0.8"></line></g><g opacity="1"><animate attributeName="opacity" from="0" to="1" dur="0.4s" begin="0.68s" fill="freeze"/><text x="18.0" y="105.0" fill="#16202b" font-size="11" font-weight="700" text-anchor="start">7 satellites</text></g><g opacity="1"><animate attributeName="opacity" from="0" to="1" dur="0.4s" begin="0.68s" fill="freeze"/><text x="18.0" y="119.0" fill="#5c6873" font-size="8.6" font-weight="400" text-anchor="start">Long March 6C</text></g><g opacity="1"><animate attributeName="opacity" from="0" to="1" dur="0.4s" begin="0.73s" fill="freeze"/><text x="18.0" y="141.0" fill="#8d8577" font-size="6.8" font-weight="400" text-anchor="start" letter-spacing="1.0">STATUS</text></g><g opacity="1"><animate attributeName="opacity" from="0" to="1" dur="0.4s" begin="0.76s" fill="freeze"/><text x="282.0" y="141.0" fill="#1f6feb" font-size="9.5" font-weight="400" text-anchor="end" letter-spacing="1.2">SUCCESS</text></g><g opacity="1"><animate attributeName="opacity" from="0" to="1" dur="0.4s" begin="0.36s" fill="freeze"/><text x="18.0" y="167.0" fill="#8d8577" font-size="7.6" font-weight="400" text-anchor="start" letter-spacing="1.3">OFF-PLANET</text></g><line x1="18.0" y1="175.0" x2="282.0" y2="175.0" stroke="#cdc4b4" stroke-width="0.8" stroke-dasharray="264.0" opacity="1.0"><animate attributeName="stroke-dashoffset" from="264.0" to="0" dur="0.6s" begin="0.19s" fill="freeze" calcMode="spline" keySplines="0.3 0.9 0.3 1" keyTimes="0;1"/></line><g opacity="1"><animate attributeName="opacity" from="0" to="1" dur="0.6s" begin="0.66s" fill="freeze"/><text x="18.0" y="221.0" fill="#16202b" font-size="44" font-weight="700" text-anchor="start" letter-spacing="1.0">11</text></g><g opacity="1"><animate attributeName="opacity" from="0" to="1" dur="0.4s" begin="0.76s" fill="freeze"/><text x="85.8" y="205.0" fill="#8d8577" font-size="9" font-weight="400" text-anchor="start" letter-spacing="1.3">HUMANS</text></g><g opacity="1"><animate attributeName="opacity" from="0" to="1" dur="0.4s" begin="0.76s" fill="freeze"/><text x="85.8" y="219.0" fill="#8d8577" font-size="9" font-weight="400" text-anchor="start" letter-spacing="1.3">IN SPACE</text></g><g opacity="1"><animate attributeName="opacity" from="0" to="1" dur="0.4s" begin="0.42s" fill="freeze"/><text x="18.0" y="251.0" fill="#8d8577" font-size="7.6" font-weight="400" text-anchor="start" letter-spacing="1.3">ISS GROUND TRACK</text></g><line x1="18.0" y1="259.0" x2="282.0" y2="259.0" stroke="#cdc4b4" stroke-width="0.8" stroke-dasharray="264.0" opacity="1.0"><animate attributeName="stroke-dashoffset" from="264.0" to="0" dur="0.6s" begin="0.23s" fill="freeze" calcMode="spline" keySplines="0.3 0.9 0.3 1" keyTimes="0;1"/></line><g opacity="1"><animate attributeName="opacity" from="0" to="1" dur="0.4s" begin="0.74s" fill="freeze"/><rect x="18.0" y="267.0" width="264.0" height="132.0" fill="#f2ece0" stroke="#cdc4b4" stroke-width="1" opacity="0.9"/><line x1="40.0" y1="267.0" x2="40.0" y2="399.0" stroke="#cdc4b4" stroke-width="0.6" opacity="0.65"></line><line x1="62.0" y1="267.0" x2="62.0" y2="399.0" stroke="#cdc4b4" stroke-width="0.6" opacity="0.65"></line><line x1="84.0" y1="267.0" x2="84.0" y2="399.0" stroke="#cdc4b4" stroke-width="0.6" opacity="0.65"></line><line x1="106.0" y1="267.0" x2="106.0" y2="399.0" stroke="#cdc4b4" stroke-width="0.6" opacity="0.65"></line><line x1="128.0" y1="267.0" x2="128.0" y2="399.0" stroke="#cdc4b4" stroke-width="0.6" opacity="0.65"></line><line x1="150.0" y1="267.0" x2="150.0" y2="399.0" stroke="#cdc4b4" stroke-width="0.6" opacity="0.65"></line><line x1="172.0" y1="267.0" x2="172.0" y2="399.0" stroke="#cdc4b4" stroke-width="0.6" opacity="0.65"></line><line x1="194.0" y1="267.0" x2="194.0" y2="399.0" stroke="#cdc4b4" stroke-width="0.6" opacity="0.65"></line><line x1="216.0" y1="267.0" x2="216.0" y2="399.0" stroke="#cdc4b4" stroke-width="0.6" opacity="0.65"></line><line x1="238.0" y1="267.0" x2="238.0" y2="399.0" stroke="#cdc4b4" stroke-width="0.6" opacity="0.65"></line><line x1="260.0" y1="267.0" x2="260.0" y2="399.0" stroke="#cdc4b4" stroke-width="0.6" opacity="0.65"></line><line x1="18.0" y1="377.0" x2="282.0" y2="377.0" stroke="#cdc4b4" stroke-width="0.6" opacity="0.6"></line><line x1="18.0" y1="355.0" x2="282.0" y2="355.0" stroke="#cdc4b4" stroke-width="0.6" opacity="0.6"></line><line x1="18.0" y1="333.0" x2="282.0" y2="333.0" stroke="#cdc4b4" stroke-width="0.6" opacity="0.95"></line><line x1="18.0" y1="311.0" x2="282.0" y2="311.0" stroke="#cdc4b4" stroke-width="0.6" opacity="0.6"></line><line x1="18.0" y1="289.0" x2="282.0" y2="289.0" stroke="#cdc4b4" stroke-width="0.6" opacity="0.6"></line><text x="22.0" y="329.0" fill="#8d8577" font-size="6" font-weight="400" text-anchor="start" letter-spacing="0.6" opacity="0.8">EQ</text><line x1="18.0" y1="295.1" x2="282.0" y2="295.1" stroke="#5c6873" stroke-width="0.7" stroke-dasharray="3 3" opacity="0.55"></line><line x1="18.0" y1="370.9" x2="282.0" y2="370.9" stroke="#5c6873" stroke-width="0.7" stroke-dasharray="3 3" opacity="0.55"></line><text x="278.0" y="291.1" fill="#8d8577" font-size="6" font-weight="400" text-anchor="end" letter-spacing="0.4" opacity="0.75">INC 51.6°</text><text x="19.0" y="407.0" fill="#8d8577" font-size="6" font-weight="400" text-anchor="start" letter-spacing="0.4">-180°</text><text x="150.0" y="407.0" fill="#8d8577" font-size="6" font-weight="400" text-anchor="middle" letter-spacing="0.4">0°</text><text x="281.0" y="407.0" fill="#8d8577" font-size="6" font-weight="400" text-anchor="end" letter-spacing="0.4">180°</text></g><path d="M18.0 312.8 L19.5 313.8 L20.9 314.9 L22.4 316.0 L23.9 317.1 L25.3 318.2 L26.8 319.3 L28.3 320.4 L29.7 321.5 L31.2 322.6 L32.7 323.7 L34.1 324.9 L35.6 326.0 L37.1 327.2 L38.5 328.3 L40.0 329.4 L41.5 330.6 L42.9 331.7 L44.4 332.9 L45.9 334.0 L47.3 335.2 L48.8 336.3 L50.3 337.5 L51.7 338.6 L53.2 339.8 L54.7 340.9 L56.1 342.0 L57.6 343.2 L59.1 344.3 L60.5 345.4 L62.0 346.5 L63.5 347.6 L64.9 348.7 L66.4 349.8 L67.9 350.9 L69.3 352.0 L70.8 353.0 L72.3 354.1 L73.7 355.1 L75.2 356.1 L76.7 357.1 L78.1 358.1 L79.6 359.0 L81.1 360.0 L82.5 360.9 L84.0 361.8 L85.5 362.7 L86.9 363.5 L88.4 364.3 L89.9 365.1 L91.3 365.8 L92.8 366.5 L94.3 367.1 L95.7 367.7 L97.2 368.3 L98.7 368.8 L100.1 369.3 L101.6 369.7 L103.1 370.0 L104.5 370.3 L106.0 370.6 L107.5 370.7 L108.9 370.8 L110.4 370.9 L111.9 370.8 L113.3 370.8 L114.8 370.6 L116.3 370.4 L117.7 370.1 L119.2 369.8 L120.7 369.4 L122.1 368.9 L123.6 368.4 L125.1 367.9 L126.5 367.3 L128.0 366.6 L129.5 365.9 L130.9 365.2 L132.4 364.4 L133.9 363.6 L135.3 362.8 L136.8 362.0 L138.3 361.1 L139.7 360.2 L141.2 359.2 L142.7 358.3 L144.1 357.3 L145.6 356.3 L147.1 355.3 L148.5 354.3 L150.0 353.2 L151.5 352.2 L152.9 351.1 L154.4 350.0 L155.9 348.9 L157.3 347.8 L158.8 346.7 L160.3 345.6 L161.7 344.5 L163.2 343.4 L164.7 342.3 L166.1 341.1 L167.6 340.0 L169.1 338.8 L170.5 337.7 L172.0 336.6 L173.5 335.4 L174.9 334.3 L176.4 333.1 L177.9 332.0 L179.3 330.8 L180.8 329.7 L182.3 328.5 L183.7 327.4 L185.2 326.2 L186.7 325.1 L188.1 324.0 L189.6 322.8 L191.1 321.7 L192.5 320.6 L194.0 319.5 L195.5 318.4 L196.9 317.3 L198.4 316.2 L199.9 315.1 L201.3 314.0 L202.8 313.0 L204.3 311.9 L205.7 310.9 L207.2 309.9 L208.7 308.9 L210.1 307.9 L211.6 307.0 L213.1 306.0 L214.5 305.1 L216.0 304.2 L217.5 303.3 L218.9 302.5 L220.4 301.7 L221.9 300.9 L223.3 300.2 L224.8 299.5 L226.3 298.9 L227.7 298.3 L229.2 297.7 L230.7 297.2 L232.1 296.7 L233.6 296.3 L235.1 296.0 L236.5 295.7 L238.0 295.4 L239.5 295.3 L240.9 295.2 L242.4 295.1 L243.9 295.2 L245.3 295.2 L246.8 295.4 L248.3 295.6 L249.7 295.9 L251.2 296.2 L252.7 296.6 L254.1 297.1 L255.6 297.6 L257.1 298.1 L258.5 298.7 L260.0 299.4 L261.5 300.1 L262.9 300.8 L264.4 301.6 L265.9 302.4 L267.3 303.2 L268.8 304.0 L270.3 304.9 L271.7 305.8 L273.2 306.8 L274.7 307.7 L276.1 308.7 L277.6 309.7 L279.1 310.7 L280.5 311.7 L282.0 312.8" fill="none" stroke="#1f6feb" stroke-width="1.4" stroke-linejoin="round" stroke-dasharray="309" stroke-dashoffset="0"><animate attributeName="stroke-dashoffset" from="309.1" to="0" dur="1.3s" begin="0.99s" fill="freeze" calcMode="spline" keySplines="0.3 0.9 0.3 1" keyTimes="0;1"/></path><g opacity="1"><animate attributeName="opacity" from="0" to="1" dur="0.4s" begin="1.89s" fill="freeze"/><circle cx="142.5" cy="358.4" r="7" fill="none" stroke="#1f6feb" stroke-width="0.9" opacity="0.65"/><circle cx="142.5" cy="358.4" r="2.6" fill="#1f6feb"/><line x1="131.5" y1="358.4" x2="153.5" y2="358.4" stroke="#1f6feb" stroke-width="0.7" opacity="0.55"></line><line x1="142.5" y1="347.4" x2="142.5" y2="369.4" stroke="#1f6feb" stroke-width="0.7" opacity="0.55"></line></g><g opacity="1"><animate attributeName="opacity" from="0" to="1" dur="0.4s" begin="1.09s" fill="freeze"/><text x="18.0" y="421.0" fill="#8d8577" font-size="7" font-weight="400" text-anchor="start" letter-spacing="1.0">LAT</text></g><g opacity="1"><animate attributeName="opacity" from="0" to="1" dur="0.4s" begin="1.09s" fill="freeze"/><text x="136.0" y="421.0" fill="#16202b" font-size="8.4" font-weight="400" text-anchor="end">-34.60°</text></g><g opacity="1"><animate attributeName="opacity" from="0" to="1" dur="0.4s" begin="1.13s" fill="freeze"/><text x="150.0" y="421.0" fill="#8d8577" font-size="7" font-weight="400" text-anchor="start" letter-spacing="1.0">LON</text></g><g opacity="1"><animate attributeName="opacity" from="0" to="1" dur="0.4s" begin="1.13s" fill="freeze"/><text x="268.0" y="421.0" fill="#16202b" font-size="8.4" font-weight="400" text-anchor="end">-10.21°</text></g><g opacity="1"><animate attributeName="opacity" from="0" to="1" dur="0.4s" begin="1.17s" fill="freeze"/><text x="18.0" y="434.0" fill="#8d8577" font-size="7" font-weight="400" text-anchor="start" letter-spacing="1.0">ALT</text></g><g opacity="1"><animate attributeName="opacity" from="0" to="1" dur="0.4s" begin="1.17s" fill="freeze"/><text x="136.0" y="434.0" fill="#16202b" font-size="8.4" font-weight="400" text-anchor="end">432.8 KM</text></g><g opacity="1"><animate attributeName="opacity" from="0" to="1" dur="0.4s" begin="1.21s" fill="freeze"/><text x="150.0" y="434.0" fill="#8d8577" font-size="7" font-weight="400" text-anchor="start" letter-spacing="1.0">VEL</text></g><g opacity="1"><animate attributeName="opacity" from="0" to="1" dur="0.4s" begin="1.21s" fill="freeze"/><text x="268.0" y="434.0" fill="#16202b" font-size="8.4" font-weight="400" text-anchor="end">27 538 KM/H</text></g><g opacity="1"><animate attributeName="opacity" from="0" to="1" dur="0.4s" begin="1.24s" fill="freeze"/><text x="18.0" y="451.0" fill="#8d8577" font-size="6.8" font-weight="400" text-anchor="start" letter-spacing="0.9">SAMPLED 13:43:44 UTC</text></g><g opacity="1"><animate attributeName="opacity" from="0" to="1" dur="0.4s" begin="0.48s" fill="freeze"/><text x="18.0" y="475.0" fill="#8d8577" font-size="7.6" font-weight="400" text-anchor="start" letter-spacing="1.3">CONTACT</text></g><line x1="18.0" y1="483.0" x2="282.0" y2="483.0" stroke="#cdc4b4" stroke-width="0.8" stroke-dasharray="264.0" opacity="1.0"><animate attributeName="stroke-dashoffset" from="264.0" to="0" dur="0.6s" begin="0.27s" fill="freeze" calcMode="spline" keySplines="0.3 0.9 0.3 1" keyTimes="0;1"/></line><g opacity="1"><animate attributeName="opacity" from="0" to="1" dur="0.4s" begin="0.82s" fill="freeze"/><text x="18.0" y="501.0" fill="#8d8577" font-size="7" font-weight="400" text-anchor="start" letter-spacing="1.1">LAST CONTACT</text></g><g opacity="1"><animate attributeName="opacity" from="0" to="1" dur="0.4s" begin="0.88s" fill="freeze"/><text x="18.0" y="520.0" fill="#16202b" font-size="15" font-weight="600" text-anchor="start" letter-spacing="0.3">8h 34m ago</text></g><g opacity="1"><animate attributeName="opacity" from="0" to="1" dur="0.4s" begin="0.92s" fill="freeze"/><text x="18.0" y="533.0" fill="#5c6873" font-size="8.6" font-weight="400" text-anchor="start">personal_webpage</text></g><g opacity="1"><animate attributeName="opacity" from="0" to="1" dur="0.4s" begin="0.94s" fill="freeze"/><text x="18.0" y="551.0" fill="#8d8577" font-size="7" font-weight="400" text-anchor="start" letter-spacing="1.1">STREAK</text></g><g opacity="1"><animate attributeName="opacity" from="0" to="1" dur="0.4s" begin="1.00s" fill="freeze"/><text x="18.0" y="570.0" fill="#16202b" font-size="14" font-weight="600" text-anchor="start" letter-spacing="0.3">2 DAYS</text></g><g opacity="1"><animate attributeName="opacity" from="0" to="1" dur="0.4s" begin="1.02s" fill="freeze"/><text x="150.0" y="551.0" fill="#8d8577" font-size="7" font-weight="400" text-anchor="start" letter-spacing="1.1">PUSHES / 24 H</text></g><g opacity="1"><animate attributeName="opacity" from="0" to="1" dur="0.4s" begin="1.08s" fill="freeze"/><text x="150.0" y="570.0" fill="#16202b" font-size="14" font-weight="600" text-anchor="start" letter-spacing="0.3">14</text></g><g opacity="1"><animate attributeName="opacity" from="0" to="1" dur="0.4s" begin="1.08s" fill="freeze"/><text x="18.0" y="589.0" fill="#8d8577" font-size="7" font-weight="400" text-anchor="start" letter-spacing="1.1">QUIETEST</text></g><g opacity="1"><animate attributeName="opacity" from="0" to="1" dur="0.4s" begin="1.14s" fill="freeze"/><text x="18.0" y="608.0" fill="#16202b" font-size="14" font-weight="600" text-anchor="start" letter-spacing="0.3">549 DAYS</text></g><g opacity="1"><animate attributeName="opacity" from="0" to="1" dur="0.4s" begin="1.12s" fill="freeze"/><text x="18.0" y="621.0" fill="#5c6873" font-size="8.6" font-weight="400" text-anchor="start">small-shell</text></g><g opacity="1"><animate attributeName="opacity" from="0" to="1" dur="0.4s" begin="0.80s" fill="freeze"/><text x="18.0" y="647.0" fill="#8d8577" font-size="6.8" font-weight="400" text-anchor="start" letter-spacing="1.0">GENERATED 2026-08-25 13:43 UTC</text></g></svg>