<svg xmlns="http://www.w3.org/2000/svg" width="300" height="672" viewBox="0 0 300 672" font-family="ui-monospace,SFMono-Regular,'SF Mono',Menlo,Consolas,'DejaVu Sans Mono',monospace" role="img"><defs><pattern id="grid" patternUnits="userSpaceOnUse" width="8" height="8"><path d="M8 0 L0 0 0 8" fill="none" stroke="#16242f" stroke-width="0.6"/></pattern></defs><rect x="0" y="0" width="300" height="672" fill="#0d1117"/><rect x="0" y="0" width="300" height="672" fill="url(#grid)" opacity="0.85"/><text x="55.3" y="4.5" fill="#5d788f" font-size="7" font-weight="400" text-anchor="middle" opacity="0.75">1</text><text x="55.3" y="672.5" fill="#5d788f" font-size="7" font-weight="400" text-anchor="middle" opacity="0.75">1</text><text x="150.0" y="4.5" fill="#5d788f" font-size="7" font-weight="400" text-anchor="middle" opacity="0.75">2</text><text x="150.0" y="672.5" fill="#5d788f" font-size="7" font-weight="400" text-anchor="middle" opacity="0.75">2</text><line x1="102.7" y1="0.0" x2="102.7" y2="8.0" stroke="#28425c" stroke-width="0.7" opacity="0.5"></line><line x1="102.7" y1="664.0" x2="102.7" y2="672.0" stroke="#28425c" stroke-width="0.7" opacity="0.5"></line><text x="244.7" y="4.5" fill="#5d788f" font-size="7" font-weight="400" text-anchor="middle" opacity="0.75">3</text><text x="244.7" y="672.5" fill="#5d788f" font-size="7" font-weight="400" text-anchor="middle" opacity="0.75">3</text><line x1="197.3" y1="0.0" x2="197.3" y2="8.0" stroke="#28425c" stroke-width="0.7" opacity="0.5"></line><line x1="197.3" y1="664.0" x2="197.3" y2="672.0" stroke="#28425c" stroke-width="0.7" opacity="0.5"></line><text x="3.5" y="57.4" fill="#5d788f" font-size="7" font-weight="400" text-anchor="middle" opacity="0.75">A</text><text x="296.5" y="57.4" fill="#5d788f" font-size="7" font-weight="400" text-anchor="middle" opacity="0.75">A</text><text x="3.5" y="151.1" fill="#5d788f" font-size="7" font-weight="400" text-anchor="middle" opacity="0.75">B</text><text x="296.5" y="151.1" fill="#5d788f" font-size="7" font-weight="400" text-anchor="middle" opacity="0.75">B</text><line x1="0.0" y1="101.7" x2="8.0" y2="101.7" stroke="#28425c" stroke-width="0.7" opacity="0.5"></line><line x1="292.0" y1="101.7" x2="300.0" y2="101.7" stroke="#28425c" stroke-width="0.7" opacity="0.5"></line><text x="3.5" y="244.8" fill="#5d788f" font-size="7" font-weight="400" text-anchor="middle" opacity="0.75">C</text><text x="296.5" y="244.8" fill="#5d788f" font-size="7" font-weight="400" text-anchor="middle" opacity="0.75">C</text><line x1="0.0" y1="195.4" x2="8.0" y2="195.4" stroke="#28425c" stroke-width="0.7" opacity="0.5"></line><line x1="292.0" y1="195.4" x2="300.0" y2="195.4" stroke="#28425c" stroke-width="0.7" opacity="0.5"></line><text x="3.5" y="338.5" fill="#5d788f" font-size="7" font-weight="400" text-anchor="middle" opacity="0.75">D</text><text x="296.5" y="338.5" fill="#5d788f" font-size="7" font-weight="400" text-anchor="middle" opacity="0.75">D</text><line x1="0.0" y1="289.1" x2="8.0" y2="289.1" stroke="#28425c" stroke-width="0.7" opacity="0.5"></line><line x1="292.0" y1="289.1" x2="300.0" y2="289.1" stroke="#28425c" stroke-width="0.7" opacity="0.5"></line><text x="3.5" y="432.2" fill="#5d788f" font-size="7" font-weight="400" text-anchor="middle" opacity="0.75">E</text><text x="296.5" y="432.2" fill="#5d788f" font-size="7" font-weight="400" text-anchor="middle" opacity="0.75">E</text><line x1="0.0" y1="382.9" x2="8.0" y2="382.9" stroke="#28425c" stroke-width="0.7" opacity="0.5"></line><line x1="292.0" y1="382.9" x2="300.0" y2="382.9" stroke="#28425c" stroke-width="0.7" opacity="0.5"></line><text x="3.5" y="525.9" fill="#5d788f" font-size="7" font-weight="400" text-anchor="middle" opacity="0.75">F</text><text x="296.5" y="525.9" fill="#5d788f" font-size="7" font-weight="400" text-anchor="middle" opacity="0.75">F</text><line x1="0.0" y1="476.6" x2="8.0" y2="476.6" stroke="#28425c" stroke-width="0.7" opacity="0.5"></line><line x1="292.0" y1="476.6" x2="300.0" y2="476.6" stroke="#28425c" stroke-width="0.7" opacity="0.5"></line><text x="3.5" y="619.6" fill="#5d788f" font-size="7" font-weight="400" text-anchor="middle" opacity="0.75">G</text><text x="296.5" y="619.6" fill="#5d788f" font-size="7" font-weight="400" text-anchor="middle" opacity="0.75">G</text><line x1="0.0" y1="570.3" x2="8.0" y2="570.3" stroke="#28425c" stroke-width="0.7" opacity="0.5"></line><line x1="292.0" y1="570.3" x2="300.0" y2="570.3" stroke="#28425c" stroke-width="0.7" opacity="0.5"></line><rect x="8.5" y="8.5" width="283" height="655" fill="none" stroke="#28425c" stroke-width="1.2"/><path d="M15.0 8.0 L8.0 8.0 L8.0 15.0" fill="none" stroke="#d7e6f2" stroke-width="1.4" opacity="0.55"/><path d="M285.0 8.0 L292.0 8.0 L292.0 15.0" fill="none" stroke="#d7e6f2" stroke-width="1.4" opacity="0.55"/><path d="M15.0 664.0 L8.0 664.0 L8.0 657.0" fill="none" stroke="#d7e6f2" stroke-width="1.4" opacity="0.55"/><path d="M285.0 664.0 L292.0 664.0 L292.0 657.0" fill="none" stroke="#d7e6f2" stroke-width="1.4" opacity="0.55"/><text x="18.0" y="23.0" fill="#5d788f" font-size="8" font-weight="400" text-anchor="start" letter-spacing="1.6">DAILY TELEMETRY</text><text x="282.0" y="656.0" fill="#5d788f" font-size="7.5" font-weight="400" text-anchor="end" letter-spacing="1.2">SH 4 / 6</text><g opacity="1"><animate attributeName="opacity" from="0" to="1" dur="0.4s" begin="0.30s" fill="freeze"/><text x="18.0" y="42.0" fill="#5d788f" font-size="7.6" font-weight="400" text-anchor="start" letter-spacing="1.3">LAUNCH WINDOW</text></g><line x1="18.0" y1="50.0" x2="282.0" y2="50.0" stroke="#28425c" stroke-width="0.8" stroke-dasharray="264.0" opacity="1.0"><animate attributeName="stroke-dashoffset" from="264.0" to="0" dur="0.6s" begin="0.15s" fill="freeze" calcMode="spline" keySplines="0.3 0.9 0.3 1" keyTimes="0;1"/></line><g opacity="1"><animate attributeName="opacity" from="0" to="1" dur="0.5s" begin="0.58s" fill="freeze"/><text x="18.0" y="80.0" fill="#d7e6f2" font-size="24" font-weight="700" text-anchor="start" letter-spacing="1.44">T− 00d 08h 54m</text></g><g opacity="1"><animate attributeName="opacity" from="0" to="1" dur="0.4s" begin="0.63s" fill="freeze"/><line x1="18.0" y1="89.0" x2="282.0" y2="89.0" stroke="#28425c" stroke-width="0.7" opacity="0.8"></line></g><g opacity="1"><animate attributeName="opacity" from="0" to="1" dur="0.4s" begin="0.68s" fill="freeze"/><text x="18.0" y="105.0" fill="#d7e6f2" font-size="11" font-weight="700" text-anchor="start">Demo Flight</text></g><g opacity="1"><animate attributeName="opacity" from="0" to="1" dur="0.4s" begin="0.68s" fill="freeze"/><text x="18.0" y="119.0" fill="#8ba3b8" font-size="8.6" font-weight="400" text-anchor="start">Pallas-1</text></g><g opacity="1"><animate attributeName="opacity" from="0" to="1" dur="0.4s" begin="0.73s" fill="freeze"/><text x="18.0" y="141.0" fill="#5d788f" font-size="6.8" font-weight="400" text-anchor="start" letter-spacing="1.0">STATUS</text></g><g opacity="1"><animate attributeName="opacity" from="0" to="1" dur="0.4s" begin="0.76s" fill="freeze"/><text x="282.0" y="141.0" fill="#4da3ff" font-size="9.5" font-weight="400" text-anchor="end" letter-spacing="1.2">GO</text></g><g opacity="1"><animate attributeName="opacity" from="0" to="1" dur="0.4s" begin="0.36s" fill="freeze"/><text x="18.0" y="167.0" fill="#5d788f" font-size="7.6" font-weight="400" text-anchor="start" letter-spacing="1.3">OFF-PLANET</text></g><line x1="18.0" y1="175.0" x2="282.0" y2="175.0" stroke="#28425c" stroke-width="0.8" stroke-dasharray="264.0" opacity="1.0"><animate attributeName="stroke-dashoffset" from="264.0" to="0" dur="0.6s" begin="0.19s" fill="freeze" calcMode="spline" keySplines="0.3 0.9 0.3 1" keyTimes="0;1"/></line><g opacity="1"><animate attributeName="opacity" from="0" to="1" dur="0.6s" begin="0.66s" fill="freeze"/><text x="18.0" y="221.0" fill="#d7e6f2" font-size="44" font-weight="700" text-anchor="start" letter-spacing="1.0">11</text></g><g opacity="1"><animate attributeName="opacity" from="0" to="1" dur="0.4s" begin="0.76s" fill="freeze"/><text x="85.8" y="205.0" fill="#5d788f" font-size="9" font-weight="400" text-anchor="start" letter-spacing="1.3">HUMANS</text></g><g opacity="1"><animate attributeName="opacity" from="0" to="1" dur="0.4s" begin="0.76s" fill="freeze"/><text x="85.8" y="219.0" fill="#5d788f" font-size="9" font-weight="400" text-anchor="start" letter-spacing="1.3">IN SPACE</text></g><g opacity="1"><animate attributeName="opacity" from="0" to="1" dur="0.4s" begin="0.42s" fill="freeze"/><text x="18.0" y="251.0" fill="#5d788f" font-size="7.6" font-weight="400" text-anchor="start" letter-spacing="1.3">ISS GROUND TRACK</text></g><line x1="18.0" y1="259.0" x2="282.0" y2="259.0" stroke="#28425c" stroke-width="0.8" stroke-dasharray="264.0" opacity="1.0"><animate attributeName="stroke-dashoffset" from="264.0" to="0" dur="0.6s" begin="0.23s" fill="freeze" calcMode="spline" keySplines="0.3 0.9 0.3 1" keyTimes="0;1"/></line><g opacity="1"><animate attributeName="opacity" from="0" to="1" dur="0.4s" begin="0.74s" fill="freeze"/><rect x="18.0" y="267.0" width="264.0" height="132.0" fill="#161f2a" stroke="#28425c" stroke-width="1" opacity="0.9"/><line x1="40.0" y1="267.0" x2="40.0" y2="399.0" stroke="#28425c" stroke-width="0.6" opacity="0.65"></line><line x1="62.0" y1="267.0" x2="62.0" y2="399.0" stroke="#28425c" stroke-width="0.6" opacity="0.65"></line><line x1="84.0" y1="267.0" x2="84.0" y2="399.0" stroke="#28425c" stroke-width="0.6" opacity="0.65"></line><line x1="106.0" y1="267.0" x2="106.0" y2="399.0" stroke="#28425c" stroke-width="0.6" opacity="0.65"></line><line x1="128.0" y1="267.0" x2="128.0" y2="399.0" stroke="#28425c" stroke-width="0.6" opacity="0.65"></line><line x1="150.0" y1="267.0" x2="150.0" y2="399.0" stroke="#28425c" stroke-width="0.6" opacity="0.65"></line><line x1="172.0" y1="267.0" x2="172.0" y2="399.0" stroke="#28425c" stroke-width="0.6" opacity="0.65"></line><line x1="194.0" y1="267.0" x2="194.0" y2="399.0" stroke="#28425c" stroke-width="0.6" opacity="0.65"></line><line x1="216.0" y1="267.0" x2="216.0" y2="399.0" stroke="#28425c" stroke-width="0.6" opacity="0.65"></line><line x1="238.0" y1="267.0" x2="238.0" y2="399.0" stroke="#28425c" stroke-width="0.6" opacity="0.65"></line><line x1="260.0" y1="267.0" x2="260.0" y2="399.0" stroke="#28425c" stroke-width="0.6" opacity="0.65"></line><line x1="18.0" y1="377.0" x2="282.0" y2="377.0" stroke="#28425c" stroke-width="0.6" opacity="0.6"></line><line x1="18.0" y1="355.0" x2="282.0" y2="355.0" stroke="#28425c" stroke-width="0.6" opacity="0.6"></line><line x1="18.0" y1="333.0" x2="282.0" y2="333.0" stroke="#28425c" stroke-width="0.6" opacity="0.95"></line><line x1="18.0" y1="311.0" x2="282.0" y2="311.0" stroke="#28425c" stroke-width="0.6" opacity="0.6"></line><line x1="18.0" y1="289.0" x2="282.0" y2="289.0" stroke="#28425c" stroke-width="0.6" opacity="0.6"></line><text x="22.0" y="329.0" fill="#5d788f" font-size="6" font-weight="400" text-anchor="start" letter-spacing="0.6" opacity="0.8">EQ</text><line x1="18.0" y1="295.1" x2="282.0" y2="295.1" stroke="#8ba3b8" stroke-width="0.7" stroke-dasharray="3 3" opacity="0.55"></line><line x1="18.0" y1="370.9" x2="282.0" y2="370.9" stroke="#8ba3b8" stroke-width="0.7" stroke-dasharray="3 3" opacity="0.55"></line><text x="278.0" y="291.1" fill="#5d788f" font-size="6" font-weight="400" text-anchor="end" letter-spacing="0.4" opacity="0.75">INC 51.6°</text><text x="19.0" y="407.0" fill="#5d788f" font-size="6" font-weight="400" text-anchor="start" letter-spacing="0.4">-180°</text><text x="150.0" y="407.0" fill="#5d788f" font-size="6" font-weight="400" text-anchor="middle" letter-spacing="0.4">0°</text><text x="281.0" y="407.0" fill="#5d788f" font-size="6" font-weight="400" text-anchor="end" letter-spacing="0.4">180°</text></g><path d="M18.0 300.9 L19.5 301.7 L20.9 302.5 L22.4 303.3 L23.9 304.1 L25.3 305.0 L26.8 305.9 L28.3 306.9 L29.7 307.8 L31.2 308.8 L32.7 309.8 L34.1 310.8 L35.6 311.9 L37.1 312.9 L38.5 314.0 L40.0 315.0 L41.5 316.1 L42.9 317.2 L44.4 318.3 L45.9 319.4 L47.3 320.5 L48.8 321.6 L50.3 322.7 L51.7 323.9 L53.2 325.0 L54.7 326.1 L56.1 327.3 L57.6 328.4 L59.1 329.6 L60.5 330.7 L62.0 331.9 L63.5 333.0 L64.9 334.2 L66.4 335.3 L67.9 336.5 L69.3 337.6 L70.8 338.8 L72.3 339.9 L73.7 341.0 L75.2 342.2 L76.7 343.3 L78.1 344.4 L79.6 345.6 L81.1 346.7 L82.5 347.8 L84.0 348.9 L85.5 350.0 L86.9 351.0 L88.4 352.1 L89.9 353.2 L91.3 354.2 L92.8 355.2 L94.3 356.2 L95.7 357.2 L97.2 358.2 L98.7 359.2 L100.1 360.1 L101.6 361.0 L103.1 361.9 L104.5 362.8 L106.0 363.6 L107.5 364.4 L108.9 365.1 L110.4 365.9 L111.9 366.6 L113.3 367.2 L114.8 367.8 L116.3 368.4 L117.7 368.9 L119.2 369.3 L120.7 369.7 L122.1 370.1 L123.6 370.4 L125.1 370.6 L126.5 370.7 L128.0 370.8 L129.5 370.9 L130.9 370.8 L132.4 370.7 L133.9 370.6 L135.3 370.4 L136.8 370.1 L138.3 369.7 L139.7 369.3 L141.2 368.9 L142.7 368.4 L144.1 367.8 L145.6 367.2 L147.1 366.5 L148.5 365.8 L150.0 365.1 L151.5 364.3 L152.9 363.5 L154.4 362.7 L155.9 361.9 L157.3 361.0 L158.8 360.1 L160.3 359.1 L161.7 358.2 L163.2 357.2 L164.7 356.2 L166.1 355.2 L167.6 354.1 L169.1 353.1 L170.5 352.0 L172.0 351.0 L173.5 349.9 L174.9 348.8 L176.4 347.7 L177.9 346.6 L179.3 345.5 L180.8 344.4 L182.3 343.3 L183.7 342.1 L185.2 341.0 L186.7 339.9 L188.1 338.7 L189.6 337.6 L191.1 336.4 L192.5 335.3 L194.0 334.1 L195.5 333.0 L196.9 331.8 L198.4 330.7 L199.9 329.5 L201.3 328.4 L202.8 327.2 L204.3 326.1 L205.7 325.0 L207.2 323.8 L208.7 322.7 L210.1 321.6 L211.6 320.4 L213.1 319.3 L214.5 318.2 L216.0 317.1 L217.5 316.0 L218.9 315.0 L220.4 313.9 L221.9 312.8 L223.3 311.8 L224.8 310.8 L226.3 309.8 L227.7 308.8 L229.2 307.8 L230.7 306.8 L232.1 305.9 L233.6 305.0 L235.1 304.1 L236.5 303.2 L238.0 302.4 L239.5 301.6 L240.9 300.9 L242.4 300.1 L243.9 299.4 L245.3 298.8 L246.8 298.2 L248.3 297.6 L249.7 297.1 L251.2 296.7 L252.7 296.3 L254.1 295.9 L255.6 295.6 L257.1 295.4 L258.5 295.3 L260.0 295.2 L261.5 295.1 L262.9 295.2 L264.4 295.3 L265.9 295.4 L267.3 295.6 L268.8 295.9 L270.3 296.3 L271.7 296.7 L273.2 297.1 L274.7 297.6 L276.1 298.2 L277.6 298.8 L279.1 299.5 L280.5 300.2 L282.0 300.9" fill="none" stroke="#4da3ff" stroke-width="1.4" stroke-linejoin="round" stroke-dasharray="309" stroke-dashoffset="0"><animate attributeName="stroke-dashoffset" from="309.1" to="0" dur="1.3s" begin="0.99s" fill="freeze" calcMode="spline" keySplines="0.3 0.9 0.3 1" keyTimes="0;1"/></path><g opacity="1"><animate attributeName="opacity" from="0" to="1" dur="0.4s" begin="1.89s" fill="freeze"/><circle cx="147.0" cy="366.6" r="7" fill="none" stroke="#4da3ff" stroke-width="0.9" opacity="0.65"/><circle cx="147.0" cy="366.6" r="2.6" fill="#4da3ff"/><line x1="136.0" y1="366.6" x2="158.0" y2="366.6" stroke="#4da3ff" stroke-width="0.7" opacity="0.55"></line><line x1="147.0" y1="355.6" x2="147.0" y2="377.6" stroke="#4da3ff" stroke-width="0.7" opacity="0.55"></line></g><g opacity="1"><animate attributeName="opacity" from="0" to="1" dur="0.4s" begin="1.09s" fill="freeze"/><text x="18.0" y="421.0" fill="#5d788f" font-size="7" font-weight="400" text-anchor="start" letter-spacing="1.0">LAT</text></g><g opacity="1"><animate attributeName="opacity" from="0" to="1" dur="0.4s" begin="1.09s" fill="freeze"/><text x="136.0" y="421.0" fill="#d7e6f2" font-size="8.4" font-weight="400" text-anchor="end">-45.76°</text></g><g opacity="1"><animate attributeName="opacity" from="0" to="1" dur="0.4s" begin="1.13s" fill="freeze"/><text x="150.0" y="421.0" fill="#5d788f" font-size="7" font-weight="400" text-anchor="start" letter-spacing="1.0">LON</text></g><g opacity="1"><animate attributeName="opacity" from="0" to="1" dur="0.4s" begin="1.13s" fill="freeze"/><text x="268.0" y="421.0" fill="#d7e6f2" font-size="8.4" font-weight="400" text-anchor="end">-4.06°</text></g><g opacity="1"><animate attributeName="opacity" from="0" to="1" dur="0.4s" begin="1.17s" fill="freeze"/><text x="18.0" y="434.0" fill="#5d788f" font-size="7" font-weight="400" text-anchor="start" letter-spacing="1.0">ALT</text></g><g opacity="1"><animate attributeName="opacity" from="0" to="1" dur="0.4s" begin="1.17s" fill="freeze"/><text x="136.0" y="434.0" fill="#d7e6f2" font-size="8.4" font-weight="400" text-anchor="end">438.4 KM</text></g><g opacity="1"><animate attributeName="opacity" from="0" to="1" dur="0.4s" begin="1.21s" fill="freeze"/><text x="150.0" y="434.0" fill="#5d788f" font-size="7" font-weight="400" text-anchor="start" letter-spacing="1.0">VEL</text></g><g opacity="1"><animate attributeName="opacity" from="0" to="1" dur="0.4s" begin="1.21s" fill="freeze"/><text x="268.0" y="434.0" fill="#d7e6f2" font-size="8.4" font-weight="400" text-anchor="end">27 529 KM/H</text></g><g opacity="1"><animate attributeName="opacity" from="0" to="1" dur="0.4s" begin="1.24s" fill="freeze"/><text x="18.0" y="451.0" fill="#5d788f" font-size="6.8" font-weight="400" text-anchor="start" letter-spacing="0.9">SAMPLED 17:06:02 UTC</text></g><g opacity="1"><animate attributeName="opacity" from="0" to="1" dur="0.4s" begin="0.48s" fill="freeze"/><text x="18.0" y="475.0" fill="#5d788f" font-size="7.6" font-weight="400" text-anchor="start" letter-spacing="1.3">CONTACT</text></g><line x1="18.0" y1="483.0" x2="282.0" y2="483.0" stroke="#28425c" stroke-width="0.8" stroke-dasharray="264.0" opacity="1.0"><animate attributeName="stroke-dashoffset" from="264.0" to="0" dur="0.6s" begin="0.27s" fill="freeze" calcMode="spline" keySplines="0.3 0.9 0.3 1" keyTimes="0;1"/></line><g opacity="1"><animate attributeName="opacity" from="0" to="1" dur="0.4s" begin="0.82s" fill="freeze"/><text x="18.0" y="501.0" fill="#5d788f" font-size="7" font-weight="400" text-anchor="start" letter-spacing="1.1">LAST CONTACT</text></g><g opacity="1"><animate attributeName="opacity" from="0" to="1" dur="0.4s" begin="0.88s" fill="freeze"/><text x="18.0" y="520.0" fill="#d7e6f2" font-size="15" font-weight="600" text-anchor="start" letter-spacing="0.3">3d 17h ago</text></g><g opacity="1"><animate attributeName="opacity" from="0" to="1" dur="0.4s" begin="0.92s" fill="freeze"/><text x="18.0" y="533.0" fill="#8ba3b8" font-size="8.6" font-weight="400" text-anchor="start">neetcode-submissions</text></g><g opacity="1"><animate attributeName="opacity" from="0" to="1" dur="0.4s" begin="0.94s" fill="freeze"/><text x="18.0" y="551.0" fill="#5d788f" font-size="7" font-weight="400" text-anchor="start" letter-spacing="1.1">STREAK</text></g><g opacity="1"><animate attributeName="opacity" from="0" to="1" dur="0.4s" begin="1.00s" fill="freeze"/><text x="18.0" y="570.0" fill="#d7e6f2" font-size="14" font-weight="600" text-anchor="start" letter-spacing="0.3">0 DAYS</text></g><g opacity="1"><animate attributeName="opacity" from="0" to="1" dur="0.4s" begin="1.02s" fill="freeze"/><text x="150.0" y="551.0" fill="#5d788f" font-size="7" font-weight="400" text-anchor="start" letter-spacing="1.1">PUSHES / 24 H</text></g><g opacity="1"><animate attributeName="opacity" from="0" to="1" dur="0.4s" begin="1.08s" fill="freeze"/><text x="150.0" y="570.0" fill="#d7e6f2" font-size="14" font-weight="600" text-anchor="start" letter-spacing="0.3">0</text></g><g opacity="1"><animate attributeName="opacity" from="0" to="1" dur="0.4s" begin="1.08s" fill="freeze"/><text x="18.0" y="589.0" fill="#5d788f" font-size="7" font-weight="400" text-anchor="start" letter-spacing="1.1">QUIETEST</text></g><g opacity="1"><animate attributeName="opacity" from="0" to="1" dur="0.4s" begin="1.14s" fill="freeze"/><text x="18.0" y="608.0" fill="#d7e6f2" font-size="14" font-weight="600" text-anchor="start" letter-spacing="0.3">555 DAYS</text></g><g opacity="1"><animate attributeName="opacity" from="0" to="1" dur="0.4s" begin="1.12s" fill="freeze"/><text x="18.0" y="621.0" fill="#8ba3b8" font-size="8.6" font-weight="400" text-anchor="start">small-shell</text></g><g opacity="1"><animate attributeName="opacity" from="0" to="1" dur="0.4s" begin="0.80s" fill="freeze"/><text x="18.0" y="647.0" fill="#5d788f" font-size="6.8" font-weight="400" text-anchor="start" letter-spacing="1.0">GENERATED 2026-08-31 17:05 UTC</text></g></svg>