<svg xmlns="http://www.w3.org/2000/svg" width="300" height="672" viewBox="0 0 300 672" font-family="ui-monospace,SFMono-Regular,'SF Mono',Menlo,Consolas,'DejaVu Sans Mono',monospace" role="img"><defs><pattern id="grid" patternUnits="userSpaceOnUse" width="8" height="8"><path d="M8 0 L0 0 0 8" fill="none" stroke="#16242f" stroke-width="0.6"/></pattern></defs><rect x="0" y="0" width="300" height="672" fill="#0d1117"/><rect x="0" y="0" width="300" height="672" fill="url(#grid)" opacity="0.85"/><text x="55.3" y="4.5" fill="#5d788f" font-size="7" font-weight="400" text-anchor="middle" opacity="0.75">1</text><text x="55.3" y="672.5" fill="#5d788f" font-size="7" font-weight="400" text-anchor="middle" opacity="0.75">1</text><text x="150.0" y="4.5" fill="#5d788f" font-size="7" font-weight="400" text-anchor="middle" opacity="0.75">2</text><text x="150.0" y="672.5" fill="#5d788f" font-size="7" font-weight="400" text-anchor="middle" opacity="0.75">2</text><line x1="102.7" y1="0.0" x2="102.7" y2="8.0" stroke="#28425c" stroke-width="0.7" opacity="0.5"></line><line x1="102.7" y1="664.0" x2="102.7" y2="672.0" stroke="#28425c" stroke-width="0.7" opacity="0.5"></line><text x="244.7" y="4.5" fill="#5d788f" font-size="7" font-weight="400" text-anchor="middle" opacity="0.75">3</text><text x="244.7" y="672.5" fill="#5d788f" font-size="7" font-weight="400" text-anchor="middle" opacity="0.75">3</text><line x1="197.3" y1="0.0" x2="197.3" y2="8.0" stroke="#28425c" stroke-width="0.7" opacity="0.5"></line><line x1="197.3" y1="664.0" x2="197.3" y2="672.0" stroke="#28425c" stroke-width="0.7" opacity="0.5"></line><text x="3.5" y="57.4" fill="#5d788f" font-size="7" font-weight="400" text-anchor="middle" opacity="0.75">A</text><text x="296.5" y="57.4" fill="#5d788f" font-size="7" font-weight="400" text-anchor="middle" opacity="0.75">A</text><text x="3.5" y="151.1" fill="#5d788f" font-size="7" font-weight="400" text-anchor="middle" opacity="0.75">B</text><text x="296.5" y="151.1" fill="#5d788f" font-size="7" font-weight="400" text-anchor="middle" opacity="0.75">B</text><line x1="0.0" y1="101.7" x2="8.0" y2="101.7" stroke="#28425c" stroke-width="0.7" opacity="0.5"></line><line x1="292.0" y1="101.7" x2="300.0" y2="101.7" stroke="#28425c" stroke-width="0.7" opacity="0.5"></line><text x="3.5" y="244.8" fill="#5d788f" font-size="7" font-weight="400" text-anchor="middle" opacity="0.75">C</text><text x="296.5" y="244.8" fill="#5d788f" font-size="7" font-weight="400" text-anchor="middle" opacity="0.75">C</text><line x1="0.0" y1="195.4" x2="8.0" y2="195.4" stroke="#28425c" stroke-width="0.7" opacity="0.5"></line><line x1="292.0" y1="195.4" x2="300.0" y2="195.4" stroke="#28425c" stroke-width="0.7" opacity="0.5"></line><text x="3.5" y="338.5" fill="#5d788f" font-size="7" font-weight="400" text-anchor="middle" opacity="0.75">D</text><text x="296.5" y="338.5" fill="#5d788f" font-size="7" font-weight="400" text-anchor="middle" opacity="0.75">D</text><line x1="0.0" y1="289.1" x2="8.0" y2="289.1" stroke="#28425c" stroke-width="0.7" opacity="0.5"></line><line x1="292.0" y1="289.1" x2="300.0" y2="289.1" stroke="#28425c" stroke-width="0.7" opacity="0.5"></line><text x="3.5" y="432.2" fill="#5d788f" font-size="7" font-weight="400" text-anchor="middle" opacity="0.75">E</text><text x="296.5" y="432.2" fill="#5d788f" font-size="7" font-weight="400" text-anchor="middle" opacity="0.75">E</text><line x1="0.0" y1="382.9" x2="8.0" y2="382.9" stroke="#28425c" stroke-width="0.7" opacity="0.5"></line><line x1="292.0" y1="382.9" x2="300.0" y2="382.9" stroke="#28425c" stroke-width="0.7" opacity="0.5"></line><text x="3.5" y="525.9" fill="#5d788f" font-size="7" font-weight="400" text-anchor="middle" opacity="0.75">F</text><text x="296.5" y="525.9" fill="#5d788f" font-size="7" font-weight="400" text-anchor="middle" opacity="0.75">F</text><line x1="0.0" y1="476.6" x2="8.0" y2="476.6" stroke="#28425c" stroke-width="0.7" opacity="0.5"></line><line x1="292.0" y1="476.6" x2="300.0" y2="476.6" stroke="#28425c" stroke-width="0.7" opacity="0.5"></line><text x="3.5" y="619.6" fill="#5d788f" font-size="7" font-weight="400" text-anchor="middle" opacity="0.75">G</text><text x="296.5" y="619.6" fill="#5d788f" font-size="7" font-weight="400" text-anchor="middle" opacity="0.75">G</text><line x1="0.0" y1="570.3" x2="8.0" y2="570.3" stroke="#28425c" stroke-width="0.7" opacity="0.5"></line><line x1="292.0" y1="570.3" x2="300.0" y2="570.3" stroke="#28425c" stroke-width="0.7" opacity="0.5"></line><rect x="8.5" y="8.5" width="283" height="655" fill="none" stroke="#28425c" stroke-width="1.2"/><path d="M15.0 8.0 L8.0 8.0 L8.0 15.0" fill="none" stroke="#d7e6f2" stroke-width="1.4" opacity="0.55"/><path d="M285.0 8.0 L292.0 8.0 L292.0 15.0" fill="none" stroke="#d7e6f2" stroke-width="1.4" opacity="0.55"/><path d="M15.0 664.0 L8.0 664.0 L8.0 657.0" fill="none" stroke="#d7e6f2" stroke-width="1.4" opacity="0.55"/><path d="M285.0 664.0 L292.0 664.0 L292.0 657.0" fill="none" stroke="#d7e6f2" stroke-width="1.4" opacity="0.55"/><text x="18.0" y="23.0" fill="#5d788f" font-size="8" font-weight="400" text-anchor="start" letter-spacing="1.6">DAILY TELEMETRY</text><text x="282.0" y="656.0" fill="#5d788f" font-size="7.5" font-weight="400" text-anchor="end" letter-spacing="1.2">SH 4 / 6</text><g opacity="1"><animate attributeName="opacity" from="0" to="1" dur="0.4s" begin="0.30s" fill="freeze"/><text x="18.0" y="42.0" fill="#5d788f" font-size="7.6" font-weight="400" text-anchor="start" letter-spacing="1.3">LAUNCH WINDOW</text></g><line x1="18.0" y1="50.0" x2="282.0" y2="50.0" stroke="#28425c" stroke-width="0.8" stroke-dasharray="264.0" opacity="1.0"><animate attributeName="stroke-dashoffset" from="264.0" to="0" dur="0.6s" begin="0.15s" fill="freeze" calcMode="spline" keySplines="0.3 0.9 0.3 1" keyTimes="0;1"/></line><g opacity="1"><animate attributeName="opacity" from="0" to="1" dur="0.5s" begin="0.58s" fill="freeze"/><text x="18.0" y="80.0" fill="#d7e6f2" font-size="24" font-weight="700" text-anchor="start" letter-spacing="1.44">T− 01d 16h 01m</text></g><g opacity="1"><animate attributeName="opacity" from="0" to="1" dur="0.4s" begin="0.63s" fill="freeze"/><line x1="18.0" y1="89.0" x2="282.0" y2="89.0" stroke="#28425c" stroke-width="0.7" opacity="0.8"></line></g><g opacity="1"><animate attributeName="opacity" from="0" to="1" dur="0.4s" begin="0.68s" fill="freeze"/><text x="18.0" y="105.0" fill="#d7e6f2" font-size="11" font-weight="700" text-anchor="start">Unknown Payload</text></g><g opacity="1"><animate attributeName="opacity" from="0" to="1" dur="0.4s" begin="0.68s" fill="freeze"/><text x="18.0" y="119.0" fill="#8ba3b8" font-size="8.6" font-weight="400" text-anchor="start">Long March 2D/YZ-3</text></g><g opacity="1"><animate attributeName="opacity" from="0" to="1" dur="0.4s" begin="0.73s" fill="freeze"/><text x="18.0" y="141.0" fill="#5d788f" font-size="6.8" font-weight="400" text-anchor="start" letter-spacing="1.0">STATUS</text></g><g opacity="1"><animate attributeName="opacity" from="0" to="1" dur="0.4s" begin="0.76s" fill="freeze"/><text x="282.0" y="141.0" fill="#4da3ff" font-size="9.5" font-weight="400" text-anchor="end" letter-spacing="1.2">GO</text></g><g opacity="1"><animate attributeName="opacity" from="0" to="1" dur="0.4s" begin="0.36s" fill="freeze"/><text x="18.0" y="167.0" fill="#5d788f" font-size="7.6" font-weight="400" text-anchor="start" letter-spacing="1.3">OFF-PLANET</text></g><line x1="18.0" y1="175.0" x2="282.0" y2="175.0" stroke="#28425c" stroke-width="0.8" stroke-dasharray="264.0" opacity="1.0"><animate attributeName="stroke-dashoffset" from="264.0" to="0" dur="0.6s" begin="0.19s" fill="freeze" calcMode="spline" keySplines="0.3 0.9 0.3 1" keyTimes="0;1"/></line><g opacity="1"><animate attributeName="opacity" from="0" to="1" dur="0.6s" begin="0.66s" fill="freeze"/><text x="18.0" y="221.0" fill="#d7e6f2" font-size="44" font-weight="700" text-anchor="start" letter-spacing="1.0">11</text></g><g opacity="1"><animate attributeName="opacity" from="0" to="1" dur="0.4s" begin="0.76s" fill="freeze"/><text x="85.8" y="205.0" fill="#5d788f" font-size="9" font-weight="400" text-anchor="start" letter-spacing="1.3">HUMANS</text></g><g opacity="1"><animate attributeName="opacity" from="0" to="1" dur="0.4s" begin="0.76s" fill="freeze"/><text x="85.8" y="219.0" fill="#5d788f" font-size="9" font-weight="400" text-anchor="start" letter-spacing="1.3">IN SPACE</text></g><g opacity="1"><animate attributeName="opacity" from="0" to="1" dur="0.4s" begin="0.42s" fill="freeze"/><text x="18.0" y="251.0" fill="#5d788f" font-size="7.6" font-weight="400" text-anchor="start" letter-spacing="1.3">ISS GROUND TRACK</text></g><line x1="18.0" y1="259.0" x2="282.0" y2="259.0" stroke="#28425c" stroke-width="0.8" stroke-dasharray="264.0" opacity="1.0"><animate attributeName="stroke-dashoffset" from="264.0" to="0" dur="0.6s" begin="0.23s" fill="freeze" calcMode="spline" keySplines="0.3 0.9 0.3 1" keyTimes="0;1"/></line><g opacity="1"><animate attributeName="opacity" from="0" to="1" dur="0.4s" begin="0.74s" fill="freeze"/><rect x="18.0" y="267.0" width="264.0" height="132.0" fill="#161f2a" stroke="#28425c" stroke-width="1" opacity="0.9"/><line x1="40.0" y1="267.0" x2="40.0" y2="399.0" stroke="#28425c" stroke-width="0.6" opacity="0.65"></line><line x1="62.0" y1="267.0" x2="62.0" y2="399.0" stroke="#28425c" stroke-width="0.6" opacity="0.65"></line><line x1="84.0" y1="267.0" x2="84.0" y2="399.0" stroke="#28425c" stroke-width="0.6" opacity="0.65"></line><line x1="106.0" y1="267.0" x2="106.0" y2="399.0" stroke="#28425c" stroke-width="0.6" opacity="0.65"></line><line x1="128.0" y1="267.0" x2="128.0" y2="399.0" stroke="#28425c" stroke-width="0.6" opacity="0.65"></line><line x1="150.0" y1="267.0" x2="150.0" y2="399.0" stroke="#28425c" stroke-width="0.6" opacity="0.65"></line><line x1="172.0" y1="267.0" x2="172.0" y2="399.0" stroke="#28425c" stroke-width="0.6" opacity="0.65"></line><line x1="194.0" y1="267.0" x2="194.0" y2="399.0" stroke="#28425c" stroke-width="0.6" opacity="0.65"></line><line x1="216.0" y1="267.0" x2="216.0" y2="399.0" stroke="#28425c" stroke-width="0.6" opacity="0.65"></line><line x1="238.0" y1="267.0" x2="238.0" y2="399.0" stroke="#28425c" stroke-width="0.6" opacity="0.65"></line><line x1="260.0" y1="267.0" x2="260.0" y2="399.0" stroke="#28425c" stroke-width="0.6" opacity="0.65"></line><line x1="18.0" y1="377.0" x2="282.0" y2="377.0" stroke="#28425c" stroke-width="0.6" opacity="0.6"></line><line x1="18.0" y1="355.0" x2="282.0" y2="355.0" stroke="#28425c" stroke-width="0.6" opacity="0.6"></line><line x1="18.0" y1="333.0" x2="282.0" y2="333.0" stroke="#28425c" stroke-width="0.6" opacity="0.95"></line><line x1="18.0" y1="311.0" x2="282.0" y2="311.0" stroke="#28425c" stroke-width="0.6" opacity="0.6"></line><line x1="18.0" y1="289.0" x2="282.0" y2="289.0" stroke="#28425c" stroke-width="0.6" opacity="0.6"></line><text x="22.0" y="329.0" fill="#5d788f" font-size="6" font-weight="400" text-anchor="start" letter-spacing="0.6" opacity="0.8">EQ</text><line x1="18.0" y1="295.1" x2="282.0" y2="295.1" stroke="#8ba3b8" stroke-width="0.7" stroke-dasharray="3 3" opacity="0.55"></line><line x1="18.0" y1="370.9" x2="282.0" y2="370.9" stroke="#8ba3b8" stroke-width="0.7" stroke-dasharray="3 3" opacity="0.55"></line><text x="278.0" y="291.1" fill="#5d788f" font-size="6" font-weight="400" text-anchor="end" letter-spacing="0.4" opacity="0.75">INC 51.6°</text><text x="19.0" y="407.0" fill="#5d788f" font-size="6" font-weight="400" text-anchor="start" letter-spacing="0.4">-180°</text><text x="150.0" y="407.0" fill="#5d788f" font-size="6" font-weight="400" text-anchor="middle" letter-spacing="0.4">0°</text><text x="281.0" y="407.0" fill="#5d788f" font-size="6" font-weight="400" text-anchor="end" letter-spacing="0.4">180°</text></g><path d="M18.0 332.5 L19.5 333.6 L20.9 334.8 L22.4 335.9 L23.9 337.1 L25.3 338.2 L26.8 339.4 L28.3 340.5 L29.7 341.6 L31.2 342.8 L32.7 343.9 L34.1 345.0 L35.6 346.1 L37.1 347.2 L38.5 348.3 L40.0 349.4 L41.5 350.5 L42.9 351.6 L44.4 352.6 L45.9 353.7 L47.3 354.7 L48.8 355.7 L50.3 356.7 L51.7 357.7 L53.2 358.7 L54.7 359.6 L56.1 360.6 L57.6 361.5 L59.1 362.3 L60.5 363.2 L62.0 364.0 L63.5 364.8 L64.9 365.5 L66.4 366.2 L67.9 366.9 L69.3 367.5 L70.8 368.1 L72.3 368.6 L73.7 369.1 L75.2 369.5 L76.7 369.9 L78.1 370.2 L79.6 370.5 L81.1 370.7 L82.5 370.8 L84.0 370.9 L85.5 370.9 L86.9 370.8 L88.4 370.7 L89.9 370.5 L91.3 370.2 L92.8 369.9 L94.3 369.5 L95.7 369.1 L97.2 368.6 L98.7 368.1 L100.1 367.5 L101.6 366.9 L103.1 366.2 L104.5 365.5 L106.0 364.7 L107.5 363.9 L108.9 363.1 L110.4 362.3 L111.9 361.4 L113.3 360.5 L114.8 359.6 L116.3 358.6 L117.7 357.7 L119.2 356.7 L120.7 355.7 L122.1 354.6 L123.6 353.6 L125.1 352.6 L126.5 351.5 L128.0 350.4 L129.5 349.3 L130.9 348.3 L132.4 347.2 L133.9 346.0 L135.3 344.9 L136.8 343.8 L138.3 342.7 L139.7 341.5 L141.2 340.4 L142.7 339.3 L144.1 338.1 L145.6 337.0 L147.1 335.8 L148.5 334.7 L150.0 333.5 L151.5 332.4 L152.9 331.2 L154.4 330.1 L155.9 328.9 L157.3 327.8 L158.8 326.6 L160.3 325.5 L161.7 324.4 L163.2 323.2 L164.7 322.1 L166.1 321.0 L167.6 319.9 L169.1 318.8 L170.5 317.7 L172.0 316.6 L173.5 315.5 L174.9 314.4 L176.4 313.4 L177.9 312.3 L179.3 311.3 L180.8 310.3 L182.3 309.3 L183.7 308.3 L185.2 307.3 L186.7 306.4 L188.1 305.4 L189.6 304.5 L191.1 303.7 L192.5 302.8 L194.0 302.0 L195.5 301.2 L196.9 300.5 L198.4 299.8 L199.9 299.1 L201.3 298.5 L202.8 297.9 L204.3 297.4 L205.7 296.9 L207.2 296.5 L208.7 296.1 L210.1 295.8 L211.6 295.5 L213.1 295.3 L214.5 295.2 L216.0 295.1 L217.5 295.1 L218.9 295.2 L220.4 295.3 L221.9 295.5 L223.3 295.8 L224.8 296.1 L226.3 296.5 L227.7 296.9 L229.2 297.4 L230.7 297.9 L232.1 298.5 L233.6 299.1 L235.1 299.8 L236.5 300.5 L238.0 301.3 L239.5 302.1 L240.9 302.9 L242.4 303.7 L243.9 304.6 L245.3 305.5 L246.8 306.4 L248.3 307.4 L249.7 308.3 L251.2 309.3 L252.7 310.3 L254.1 311.4 L255.6 312.4 L257.1 313.4 L258.5 314.5 L260.0 315.6 L261.5 316.7 L262.9 317.7 L264.4 318.8 L265.9 320.0 L267.3 321.1 L268.8 322.2 L270.3 323.3 L271.7 324.5 L273.2 325.6 L274.7 326.7 L276.1 327.9 L277.6 329.0 L279.1 330.2 L280.5 331.3 L282.0 332.5" fill="none" stroke="#4da3ff" stroke-width="1.4" stroke-linejoin="round" stroke-dasharray="309" stroke-dashoffset="0"><animate attributeName="stroke-dashoffset" from="309.1" to="0" dur="1.3s" begin="0.99s" fill="freeze" calcMode="spline" keySplines="0.3 0.9 0.3 1" keyTimes="0;1"/></path><g opacity="1"><animate attributeName="opacity" from="0" to="1" dur="0.4s" begin="1.89s" fill="freeze"/><circle cx="84.7" cy="370.9" r="7" fill="none" stroke="#4da3ff" stroke-width="0.9" opacity="0.65"/><circle cx="84.7" cy="370.9" r="2.6" fill="#4da3ff"/><line x1="73.7" y1="370.9" x2="95.7" y2="370.9" stroke="#4da3ff" stroke-width="0.7" opacity="0.55"></line><line x1="84.7" y1="359.9" x2="84.7" y2="381.9" stroke="#4da3ff" stroke-width="0.7" opacity="0.55"></line></g><g opacity="1"><animate attributeName="opacity" from="0" to="1" dur="0.4s" begin="1.09s" fill="freeze"/><text x="18.0" y="421.0" fill="#5d788f" font-size="7" font-weight="400" text-anchor="start" letter-spacing="1.0">LAT</text></g><g opacity="1"><animate attributeName="opacity" from="0" to="1" dur="0.4s" begin="1.09s" fill="freeze"/><text x="136.0" y="421.0" fill="#d7e6f2" font-size="8.4" font-weight="400" text-anchor="end">-51.74°</text></g><g opacity="1"><animate attributeName="opacity" from="0" to="1" dur="0.4s" begin="1.13s" fill="freeze"/><text x="150.0" y="421.0" fill="#5d788f" font-size="7" font-weight="400" text-anchor="start" letter-spacing="1.0">LON</text></g><g opacity="1"><animate attributeName="opacity" from="0" to="1" dur="0.4s" begin="1.13s" fill="freeze"/><text x="268.0" y="421.0" fill="#d7e6f2" font-size="8.4" font-weight="400" text-anchor="end">-89.07°</text></g><g opacity="1"><animate attributeName="opacity" from="0" to="1" dur="0.4s" begin="1.17s" fill="freeze"/><text x="18.0" y="434.0" fill="#5d788f" font-size="7" font-weight="400" text-anchor="start" letter-spacing="1.0">ALT</text></g><g opacity="1"><animate attributeName="opacity" from="0" to="1" dur="0.4s" begin="1.17s" fill="freeze"/><text x="136.0" y="434.0" fill="#d7e6f2" font-size="8.4" font-weight="400" text-anchor="end">440.2 KM</text></g><g opacity="1"><animate attributeName="opacity" from="0" to="1" dur="0.4s" begin="1.21s" fill="freeze"/><text x="150.0" y="434.0" fill="#5d788f" font-size="7" font-weight="400" text-anchor="start" letter-spacing="1.0">VEL</text></g><g opacity="1"><animate attributeName="opacity" from="0" to="1" dur="0.4s" begin="1.21s" fill="freeze"/><text x="268.0" y="434.0" fill="#d7e6f2" font-size="8.4" font-weight="400" text-anchor="end">27 526 KM/H</text></g><g opacity="1"><animate attributeName="opacity" from="0" to="1" dur="0.4s" begin="1.24s" fill="freeze"/><text x="18.0" y="451.0" fill="#5d788f" font-size="6.8" font-weight="400" text-anchor="start" letter-spacing="0.9">SAMPLED 16:59:06 UTC</text></g><g opacity="1"><animate attributeName="opacity" from="0" to="1" dur="0.4s" begin="0.48s" fill="freeze"/><text x="18.0" y="475.0" fill="#5d788f" font-size="7.6" font-weight="400" text-anchor="start" letter-spacing="1.3">CONTACT</text></g><line x1="18.0" y1="483.0" x2="282.0" y2="483.0" stroke="#28425c" stroke-width="0.8" stroke-dasharray="264.0" opacity="1.0"><animate attributeName="stroke-dashoffset" from="264.0" to="0" dur="0.6s" begin="0.27s" fill="freeze" calcMode="spline" keySplines="0.3 0.9 0.3 1" keyTimes="0;1"/></line><g opacity="1"><animate attributeName="opacity" from="0" to="1" dur="0.4s" begin="0.82s" fill="freeze"/><text x="18.0" y="501.0" fill="#5d788f" font-size="7" font-weight="400" text-anchor="start" letter-spacing="1.1">LAST CONTACT</text></g><g opacity="1"><animate attributeName="opacity" from="0" to="1" dur="0.4s" begin="0.88s" fill="freeze"/><text x="18.0" y="520.0" fill="#d7e6f2" font-size="15" font-weight="600" text-anchor="start" letter-spacing="0.3">8h 32m ago</text></g><g opacity="1"><animate attributeName="opacity" from="0" to="1" dur="0.4s" begin="0.92s" fill="freeze"/><text x="18.0" y="533.0" fill="#8ba3b8" font-size="8.6" font-weight="400" text-anchor="start">nfl_predictor</text></g><g opacity="1"><animate attributeName="opacity" from="0" to="1" dur="0.4s" begin="0.94s" fill="freeze"/><text x="18.0" y="551.0" fill="#5d788f" font-size="7" font-weight="400" text-anchor="start" letter-spacing="1.1">STREAK</text></g><g opacity="1"><animate attributeName="opacity" from="0" to="1" dur="0.4s" begin="1.00s" fill="freeze"/><text x="18.0" y="570.0" fill="#d7e6f2" font-size="14" font-weight="600" text-anchor="start" letter-spacing="0.3">3 DAYS</text></g><g opacity="1"><animate attributeName="opacity" from="0" to="1" dur="0.4s" begin="1.02s" fill="freeze"/><text x="150.0" y="551.0" fill="#5d788f" font-size="7" font-weight="400" text-anchor="start" letter-spacing="1.1">PUSHES / 24 H</text></g><g opacity="1"><animate attributeName="opacity" from="0" to="1" dur="0.4s" begin="1.08s" fill="freeze"/><text x="150.0" y="570.0" fill="#d7e6f2" font-size="14" font-weight="600" text-anchor="start" letter-spacing="0.3">2</text></g><g opacity="1"><animate attributeName="opacity" from="0" to="1" dur="0.4s" begin="1.08s" fill="freeze"/><text x="18.0" y="589.0" fill="#5d788f" font-size="7" font-weight="400" text-anchor="start" letter-spacing="1.1">QUIETEST</text></g><g opacity="1"><animate attributeName="opacity" from="0" to="1" dur="0.4s" begin="1.14s" fill="freeze"/><text x="18.0" y="608.0" fill="#d7e6f2" font-size="14" font-weight="600" text-anchor="start" letter-spacing="0.3">563 DAYS</text></g><g opacity="1"><animate attributeName="opacity" from="0" to="1" dur="0.4s" begin="1.12s" fill="freeze"/><text x="18.0" y="621.0" fill="#8ba3b8" font-size="8.6" font-weight="400" text-anchor="start">small-shell</text></g><g opacity="1"><animate attributeName="opacity" from="0" to="1" dur="0.4s" begin="0.80s" fill="freeze"/><text x="18.0" y="647.0" fill="#5d788f" font-size="6.8" font-weight="400" text-anchor="start" letter-spacing="1.0">GENERATED 2026-09-08 16:58 UTC</text></g></svg>