<svg xmlns="http://www.w3.org/2000/svg" width="900" height="296" viewBox="0 0 900 296" font-family="ui-monospace,SFMono-Regular,'SF Mono',Menlo,Consolas,'DejaVu Sans Mono',monospace" role="img"><defs><pattern id="grid" patternUnits="userSpaceOnUse" width="8" height="8"><path d="M8 0 L0 0 0 8" fill="none" stroke="#ece5d8" stroke-width="0.6"/></pattern></defs><rect x="0" y="0" width="900" height="296" fill="#ffffff"/><rect x="0" y="0" width="900" height="296" fill="url(#grid)" opacity="0.85"/><text x="60.7" y="8.5" fill="#8d8577" font-size="7" font-weight="400" text-anchor="middle" opacity="0.75">1</text><text x="60.7" y="292.5" fill="#8d8577" font-size="7" font-weight="400" text-anchor="middle" opacity="0.75">1</text><text x="158.0" y="8.5" fill="#8d8577" font-size="7" font-weight="400" text-anchor="middle" opacity="0.75">2</text><text x="158.0" y="292.5" fill="#8d8577" font-size="7" font-weight="400" text-anchor="middle" opacity="0.75">2</text><line x1="109.3" y1="0.0" x2="109.3" y2="12.0" stroke="#cdc4b4" stroke-width="0.7" opacity="0.5"></line><line x1="109.3" y1="284.0" x2="109.3" y2="296.0" stroke="#cdc4b4" stroke-width="0.7" opacity="0.5"></line><text x="255.3" y="8.5" fill="#8d8577" font-size="7" font-weight="400" text-anchor="middle" opacity="0.75">3</text><text x="255.3" y="292.5" fill="#8d8577" font-size="7" font-weight="400" text-anchor="middle" opacity="0.75">3</text><line x1="206.7" y1="0.0" x2="206.7" y2="12.0" stroke="#cdc4b4" stroke-width="0.7" opacity="0.5"></line><line x1="206.7" y1="284.0" x2="206.7" y2="296.0" stroke="#cdc4b4" stroke-width="0.7" opacity="0.5"></line><text x="352.7" y="8.5" fill="#8d8577" font-size="7" font-weight="400" text-anchor="middle" opacity="0.75">4</text><text x="352.7" y="292.5" fill="#8d8577" font-size="7" font-weight="400" text-anchor="middle" opacity="0.75">4</text><line x1="304.0" y1="0.0" x2="304.0" y2="12.0" stroke="#cdc4b4" stroke-width="0.7" opacity="0.5"></line><line x1="304.0" y1="284.0" x2="304.0" y2="296.0" stroke="#cdc4b4" stroke-width="0.7" opacity="0.5"></line><text x="450.0" y="8.5" fill="#8d8577" font-size="7" font-weight="400" text-anchor="middle" opacity="0.75">5</text><text x="450.0" y="292.5" fill="#8d8577" font-size="7" font-weight="400" text-anchor="middle" opacity="0.75">5</text><line x1="401.3" y1="0.0" x2="401.3" y2="12.0" stroke="#cdc4b4" stroke-width="0.7" opacity="0.5"></line><line x1="401.3" y1="284.0" x2="401.3" y2="296.0" stroke="#cdc4b4" stroke-width="0.7" opacity="0.5"></line><text x="547.3" y="8.5" fill="#8d8577" font-size="7" font-weight="400" text-anchor="middle" opacity="0.75">6</text><text x="547.3" y="292.5" fill="#8d8577" font-size="7" font-weight="400" text-anchor="middle" opacity="0.75">6</text><line x1="498.7" y1="0.0" x2="498.7" y2="12.0" stroke="#cdc4b4" stroke-width="0.7" opacity="0.5"></line><line x1="498.7" y1="284.0" x2="498.7" y2="296.0" stroke="#cdc4b4" stroke-width="0.7" opacity="0.5"></line><text x="644.7" y="8.5" fill="#8d8577" font-size="7" font-weight="400" text-anchor="middle" opacity="0.75">7</text><text x="644.7" y="292.5" fill="#8d8577" font-size="7" font-weight="400" text-anchor="middle" opacity="0.75">7</text><line x1="596.0" y1="0.0" x2="596.0" y2="12.0" stroke="#cdc4b4" stroke-width="0.7" opacity="0.5"></line><line x1="596.0" y1="284.0" x2="596.0" y2="296.0" stroke="#cdc4b4" stroke-width="0.7" opacity="0.5"></line><text x="742.0" y="8.5" fill="#8d8577" font-size="7" font-weight="400" text-anchor="middle" opacity="0.75">8</text><text x="742.0" y="292.5" fill="#8d8577" font-size="7" font-weight="400" text-anchor="middle" opacity="0.75">8</text><line x1="693.3" y1="0.0" x2="693.3" y2="12.0" stroke="#cdc4b4" stroke-width="0.7" opacity="0.5"></line><line x1="693.3" y1="284.0" x2="693.3" y2="296.0" stroke="#cdc4b4" stroke-width="0.7" opacity="0.5"></line><text x="839.3" y="8.5" fill="#8d8577" font-size="7" font-weight="400" text-anchor="middle" opacity="0.75">9</text><text x="839.3" y="292.5" fill="#8d8577" font-size="7" font-weight="400" text-anchor="middle" opacity="0.75">9</text><line x1="790.7" y1="0.0" x2="790.7" y2="12.0" stroke="#cdc4b4" stroke-width="0.7" opacity="0.5"></line><line x1="790.7" y1="284.0" x2="790.7" y2="296.0" stroke="#cdc4b4" stroke-width="0.7" opacity="0.5"></line><text x="7.5" y="59.8" fill="#8d8577" font-size="7" font-weight="400" text-anchor="middle" opacity="0.75">A</text><text x="892.5" y="59.8" fill="#8d8577" font-size="7" font-weight="400" text-anchor="middle" opacity="0.75">A</text><text x="7.5" y="150.5" fill="#8d8577" font-size="7" font-weight="400" text-anchor="middle" opacity="0.75">B</text><text x="892.5" y="150.5" fill="#8d8577" font-size="7" font-weight="400" text-anchor="middle" opacity="0.75">B</text><line x1="0.0" y1="102.7" x2="12.0" y2="102.7" stroke="#cdc4b4" stroke-width="0.7" opacity="0.5"></line><line x1="888.0" y1="102.7" x2="900.0" y2="102.7" stroke="#cdc4b4" stroke-width="0.7" opacity="0.5"></line><text x="7.5" y="241.2" fill="#8d8577" font-size="7" font-weight="400" text-anchor="middle" opacity="0.75">C</text><text x="892.5" y="241.2" fill="#8d8577" font-size="7" font-weight="400" text-anchor="middle" opacity="0.75">C</text><line x1="0.0" y1="193.3" x2="12.0" y2="193.3" stroke="#cdc4b4" stroke-width="0.7" opacity="0.5"></line><line x1="888.0" y1="193.3" x2="900.0" y2="193.3" stroke="#cdc4b4" stroke-width="0.7" opacity="0.5"></line><rect x="12.5" y="12.5" width="875" height="271" fill="none" stroke="#cdc4b4" stroke-width="1.2"/><path d="M19.0 12.0 L12.0 12.0 L12.0 19.0" fill="none" stroke="#16202b" stroke-width="1.4" opacity="0.55"/><path d="M881.0 12.0 L888.0 12.0 L888.0 19.0" fill="none" stroke="#16202b" stroke-width="1.4" opacity="0.55"/><path d="M19.0 284.0 L12.0 284.0 L12.0 277.0" fill="none" stroke="#16202b" stroke-width="1.4" opacity="0.55"/><path d="M881.0 284.0 L888.0 284.0 L888.0 277.0" fill="none" stroke="#16202b" stroke-width="1.4" opacity="0.55"/><text x="22.0" y="27.0" fill="#8d8577" font-size="8" font-weight="400" text-anchor="start" letter-spacing="1.6">DAILY TELEMETRY</text><text x="878.0" y="276.0" fill="#8d8577" font-size="7.5" font-weight="400" text-anchor="end" letter-spacing="1.2">SH 4 / 7</text><line x1="252.1" y1="32.0" x2="252.1" y2="266.0" stroke="#cdc4b4" stroke-width="0.9" stroke-dasharray="234.0" opacity="1.0"><animate attributeName="stroke-dashoffset" from="234.0" to="0" dur="0.9s" begin="0.22s" fill="freeze" calcMode="spline" keySplines="0.3 0.9 0.3 1" keyTimes="0;1"/></line><line x1="380.3" y1="32.0" x2="380.3" y2="266.0" stroke="#cdc4b4" stroke-width="0.9" stroke-dasharray="234.0" opacity="1.0"><animate attributeName="stroke-dashoffset" from="234.0" to="0" dur="0.9s" begin="0.22s" fill="freeze" calcMode="spline" keySplines="0.3 0.9 0.3 1" keyTimes="0;1"/></line><line x1="685.6" y1="32.0" x2="685.6" y2="266.0" stroke="#cdc4b4" stroke-width="0.9" stroke-dasharray="234.0" opacity="1.0"><animate attributeName="stroke-dashoffset" from="234.0" to="0" dur="0.9s" begin="0.22s" fill="freeze" calcMode="spline" keySplines="0.3 0.9 0.3 1" keyTimes="0;1"/></line><g opacity="1"><animate attributeName="opacity" from="0" to="1" dur="0.4s" begin="0.30s" fill="freeze"/><text x="26.0" y="52.0" fill="#8d8577" font-size="7.6" font-weight="400" text-anchor="start" letter-spacing="1.3">LAUNCH WINDOW</text></g><line x1="26.0" y1="60.0" x2="240.1" y2="60.0" stroke="#cdc4b4" stroke-width="0.8" stroke-dasharray="214.1" opacity="1.0"><animate attributeName="stroke-dashoffset" from="214.1" to="0" dur="0.6s" begin="0.15s" fill="freeze" calcMode="spline" keySplines="0.3 0.9 0.3 1" keyTimes="0;1"/></line><g opacity="1"><animate attributeName="opacity" from="0" to="1" dur="0.4s" begin="0.58s" fill="freeze"/><rect x="26.0" y="78.0" width="214.1" height="184.0" fill="none" stroke="#8d8577" stroke-width="0.9" stroke-dasharray="4 3" opacity="0.7"/><line x1="26.0" y1="262.0" x2="240.1" y2="78.0" stroke="#8d8577" stroke-width="0.6" stroke-dasharray="3 4" opacity="0.28"></line><text x="133.1" y="173.4" fill="#8d8577" font-size="8.5" font-weight="400" text-anchor="middle" letter-spacing="1.5">NO LAUNCH DATA</text></g><g opacity="1"><animate attributeName="opacity" from="0" to="1" dur="0.4s" begin="0.36s" fill="freeze"/><text x="262.1" y="52.0" fill="#8d8577" font-size="7.6" font-weight="400" text-anchor="start" letter-spacing="1.3">OFF-PLANET</text></g><line x1="262.1" y1="60.0" x2="368.3" y2="60.0" stroke="#cdc4b4" stroke-width="0.8" stroke-dasharray="106.1" opacity="1.0"><animate attributeName="stroke-dashoffset" from="106.1" to="0" dur="0.6s" begin="0.19s" fill="freeze" calcMode="spline" keySplines="0.3 0.9 0.3 1" keyTimes="0;1"/></line><g opacity="1"><animate attributeName="opacity" from="0" to="1" dur="0.4s" begin="0.66s" fill="freeze"/><rect x="262.1" y="78.0" width="106.1" height="184.0" fill="none" stroke="#8d8577" stroke-width="0.9" stroke-dasharray="4 3" opacity="0.7"/><line x1="262.1" y1="262.0" x2="368.3" y2="78.0" stroke="#8d8577" stroke-width="0.6" stroke-dasharray="3 4" opacity="0.28"></line><text x="315.2" y="173.4" fill="#8d8577" font-size="8.5" font-weight="400" text-anchor="middle" letter-spacing="1.5">NO DATA</text></g><g opacity="1"><animate attributeName="opacity" from="0" to="1" dur="0.4s" begin="0.42s" fill="freeze"/><text x="390.3" y="52.0" fill="#8d8577" font-size="7.6" font-weight="400" text-anchor="start" letter-spacing="1.3">ISS GROUND TRACK</text></g><line x1="390.3" y1="60.0" x2="673.6" y2="60.0" stroke="#cdc4b4" stroke-width="0.8" stroke-dasharray="283.3" opacity="1.0"><animate attributeName="stroke-dashoffset" from="283.3" to="0" dur="0.6s" begin="0.23s" fill="freeze" calcMode="spline" keySplines="0.3 0.9 0.3 1" keyTimes="0;1"/></line><g opacity="1"><animate attributeName="opacity" from="0" to="1" dur="0.4s" begin="0.74s" fill="freeze"/><rect x="390.3" y="78.0" width="283.3" height="126.0" fill="#f2ece0" stroke="#cdc4b4" stroke-width="1" opacity="0.9"/><line x1="413.9" y1="78.0" x2="413.9" y2="204.0" stroke="#cdc4b4" stroke-width="0.6" opacity="0.65"></line><line x1="437.5" y1="78.0" x2="437.5" y2="204.0" stroke="#cdc4b4" stroke-width="0.6" opacity="0.65"></line><line x1="461.1" y1="78.0" x2="461.1" y2="204.0" stroke="#cdc4b4" stroke-width="0.6" opacity="0.65"></line><line x1="484.7" y1="78.0" x2="484.7" y2="204.0" stroke="#cdc4b4" stroke-width="0.6" opacity="0.65"></line><line x1="508.3" y1="78.0" x2="508.3" y2="204.0" stroke="#cdc4b4" stroke-width="0.6" opacity="0.65"></line><line x1="531.9" y1="78.0" x2="531.9" y2="204.0" stroke="#cdc4b4" stroke-width="0.6" opacity="0.65"></line><line x1="555.5" y1="78.0" x2="555.5" y2="204.0" stroke="#cdc4b4" stroke-width="0.6" opacity="0.65"></line><line x1="579.1" y1="78.0" x2="579.1" y2="204.0" stroke="#cdc4b4" stroke-width="0.6" opacity="0.65"></line><line x1="602.7" y1="78.0" x2="602.7" y2="204.0" stroke="#cdc4b4" stroke-width="0.6" opacity="0.65"></line><line x1="626.3" y1="78.0" x2="626.3" y2="204.0" stroke="#cdc4b4" stroke-width="0.6" opacity="0.65"></line><line x1="649.9" y1="78.0" x2="649.9" y2="204.0" stroke="#cdc4b4" stroke-width="0.6" opacity="0.65"></line><line x1="390.3" y1="183.0" x2="673.6" y2="183.0" stroke="#cdc4b4" stroke-width="0.6" opacity="0.6"></line><line x1="390.3" y1="162.0" x2="673.6" y2="162.0" stroke="#cdc4b4" stroke-width="0.6" opacity="0.6"></line><line x1="390.3" y1="141.0" x2="673.6" y2="141.0" stroke="#cdc4b4" stroke-width="0.6" opacity="0.95"></line><line x1="390.3" y1="120.0" x2="673.6" y2="120.0" stroke="#cdc4b4" stroke-width="0.6" opacity="0.6"></line><line x1="390.3" y1="99.0" x2="673.6" y2="99.0" stroke="#cdc4b4" stroke-width="0.6" opacity="0.6"></line><text x="394.3" y="137.0" fill="#8d8577" font-size="6" font-weight="400" text-anchor="start" letter-spacing="0.6" opacity="0.8">EQ</text><line x1="390.3" y1="104.9" x2="673.6" y2="104.9" stroke="#5c6873" stroke-width="0.7" stroke-dasharray="3 3" opacity="0.55"></line><line x1="390.3" y1="177.1" x2="673.6" y2="177.1" stroke="#5c6873" stroke-width="0.7" stroke-dasharray="3 3" opacity="0.55"></line><text x="669.6" y="100.9" fill="#8d8577" font-size="6" font-weight="400" text-anchor="end" letter-spacing="0.4" opacity="0.75">INC 51.6°</text><text x="391.3" y="212.0" fill="#8d8577" font-size="6" font-weight="400" text-anchor="start" letter-spacing="0.4">-180°</text><text x="531.9" y="212.0" fill="#8d8577" font-size="6" font-weight="400" text-anchor="middle" letter-spacing="0.4">0°</text><text x="672.6" y="212.0" fill="#8d8577" font-size="6" font-weight="400" text-anchor="end" letter-spacing="0.4">180°</text></g><path d="M390.3 145.0 L391.8 146.1 L393.4 147.2 L395.0 148.2 L396.6 149.3 L398.1 150.4 L399.7 151.5 L401.3 152.5 L402.9 153.6 L404.4 154.7 L406.0 155.7 L407.6 156.8 L409.2 157.8 L410.7 158.8 L412.3 159.8 L413.9 160.8 L415.5 161.8 L417.0 162.8 L418.6 163.7 L420.2 164.7 L421.8 165.6 L423.3 166.5 L424.9 167.4 L426.5 168.2 L428.0 169.1 L429.6 169.9 L431.2 170.7 L432.8 171.4 L434.3 172.1 L435.9 172.8 L437.5 173.4 L439.1 174.0 L440.6 174.6 L442.2 175.1 L443.8 175.5 L445.4 175.9 L446.9 176.3 L448.5 176.6 L450.1 176.8 L451.7 177.0 L453.2 177.1 L454.8 177.1 L456.4 177.1 L457.9 177.1 L459.5 176.9 L461.1 176.7 L462.7 176.5 L464.2 176.2 L465.8 175.8 L467.4 175.4 L469.0 174.9 L470.5 174.4 L472.1 173.9 L473.7 173.3 L475.3 172.6 L476.8 171.9 L478.4 171.2 L480.0 170.5 L481.6 169.7 L483.1 168.9 L484.7 168.0 L486.3 167.2 L487.8 166.3 L489.4 165.4 L491.0 164.5 L492.6 163.5 L494.1 162.6 L495.7 161.6 L497.3 160.6 L498.9 159.6 L500.4 158.6 L502.0 157.6 L503.6 156.5 L505.2 155.5 L506.7 154.4 L508.3 153.4 L509.9 152.3 L511.5 151.2 L513.0 150.2 L514.6 149.1 L516.2 148.0 L517.8 146.9 L519.3 145.8 L520.9 144.7 L522.5 143.6 L524.0 142.5 L525.6 141.4 L527.2 140.3 L528.8 139.2 L530.3 138.1 L531.9 137.0 L533.5 135.9 L535.1 134.8 L536.6 133.8 L538.2 132.7 L539.8 131.6 L541.4 130.5 L542.9 129.5 L544.5 128.4 L546.1 127.3 L547.7 126.3 L549.2 125.2 L550.8 124.2 L552.4 123.2 L553.9 122.2 L555.5 121.2 L557.1 120.2 L558.7 119.2 L560.2 118.3 L561.8 117.3 L563.4 116.4 L565.0 115.5 L566.5 114.6 L568.1 113.8 L569.7 112.9 L571.3 112.1 L572.8 111.3 L574.4 110.6 L576.0 109.9 L577.6 109.2 L579.1 108.6 L580.7 108.0 L582.3 107.4 L583.9 106.9 L585.4 106.5 L587.0 106.1 L588.6 105.7 L590.1 105.4 L591.7 105.2 L593.3 105.0 L594.9 104.9 L596.4 104.9 L598.0 104.9 L599.6 104.9 L601.2 105.1 L602.7 105.3 L604.3 105.5 L605.9 105.8 L607.5 106.2 L609.0 106.6 L610.6 107.1 L612.2 107.6 L613.8 108.1 L615.3 108.7 L616.9 109.4 L618.5 110.1 L620.0 110.8 L621.6 111.5 L623.2 112.3 L624.8 113.1 L626.3 114.0 L627.9 114.8 L629.5 115.7 L631.1 116.6 L632.6 117.5 L634.2 118.5 L635.8 119.4 L637.4 120.4 L638.9 121.4 L640.5 122.4 L642.1 123.4 L643.7 124.4 L645.2 125.5 L646.8 126.5 L648.4 127.6 L649.9 128.6 L651.5 129.7 L653.1 130.8 L654.7 131.8 L656.2 132.9 L657.8 134.0 L659.4 135.1 L661.0 136.2 L662.5 137.3 L664.1 138.4 L665.7 139.5 L667.3 140.6 L668.8 141.7 L670.4 142.8 L672.0 143.9 L673.6 145.0" fill="none" stroke="#1f6feb" stroke-width="1.4" stroke-linejoin="round" stroke-dasharray="322" stroke-dashoffset="0"><animate attributeName="stroke-dashoffset" from="322.3" to="0" dur="1.3s" begin="0.99s" fill="freeze" calcMode="spline" keySplines="0.3 0.9 0.3 1" keyTimes="0;1"/></path><g opacity="1"><animate attributeName="opacity" from="0" to="1" dur="0.4s" begin="1.89s" fill="freeze"/><circle cx="502.8" cy="157.0" r="7" fill="none" stroke="#1f6feb" stroke-width="0.9" opacity="0.65"/><circle cx="502.8" cy="157.0" r="2.6" fill="#1f6feb"/><line x1="491.8" y1="157.0" x2="513.8" y2="157.0" stroke="#1f6feb" stroke-width="0.7" opacity="0.55"></line><line x1="502.8" y1="146.0" x2="502.8" y2="168.0" stroke="#1f6feb" stroke-width="0.7" opacity="0.55"></line></g><g opacity="1"><animate attributeName="opacity" from="0" to="1" dur="0.4s" begin="1.09s" fill="freeze"/><text x="390.3" y="228.0" fill="#8d8577" font-size="7" font-weight="400" text-anchor="start" letter-spacing="1.0">LAT</text></g><g opacity="1"><animate attributeName="opacity" from="0" to="1" dur="0.4s" begin="1.09s" fill="freeze"/><text x="513.9" y="228.0" fill="#16202b" font-size="8.4" font-weight="400" text-anchor="end">-22.90°</text></g><g opacity="1"><animate attributeName="opacity" from="0" to="1" dur="0.4s" begin="1.13s" fill="freeze"/><text x="531.9" y="228.0" fill="#8d8577" font-size="7" font-weight="400" text-anchor="start" letter-spacing="1.0">LON</text></g><g opacity="1"><animate attributeName="opacity" from="0" to="1" dur="0.4s" begin="1.13s" fill="freeze"/><text x="655.6" y="228.0" fill="#16202b" font-size="8.4" font-weight="400" text-anchor="end">-36.98°</text></g><g opacity="1"><animate attributeName="opacity" from="0" to="1" dur="0.4s" begin="1.17s" fill="freeze"/><text x="390.3" y="241.0" fill="#8d8577" font-size="7" font-weight="400" text-anchor="start" letter-spacing="1.0">ALT</text></g><g opacity="1"><animate attributeName="opacity" from="0" to="1" dur="0.4s" begin="1.17s" fill="freeze"/><text x="513.9" y="241.0" fill="#16202b" font-size="8.4" font-weight="400" text-anchor="end">426.0 KM</text></g><g opacity="1"><animate attributeName="opacity" from="0" to="1" dur="0.4s" begin="1.21s" fill="freeze"/><text x="531.9" y="241.0" fill="#8d8577" font-size="7" font-weight="400" text-anchor="start" letter-spacing="1.0">VEL</text></g><g opacity="1"><animate attributeName="opacity" from="0" to="1" dur="0.4s" begin="1.21s" fill="freeze"/><text x="655.6" y="241.0" fill="#16202b" font-size="8.4" font-weight="400" text-anchor="end">27 558 KM/H</text></g><g opacity="1"><animate attributeName="opacity" from="0" to="1" dur="0.4s" begin="1.24s" fill="freeze"/><text x="390.3" y="258.0" fill="#8d8577" font-size="6.8" font-weight="400" text-anchor="start" letter-spacing="0.9">SAMPLED 00:14:55 UTC</text></g><g opacity="1"><animate attributeName="opacity" from="0" to="1" dur="0.4s" begin="0.48s" fill="freeze"/><text x="695.6" y="52.0" fill="#8d8577" font-size="7.6" font-weight="400" text-anchor="start" letter-spacing="1.3">CONTACT</text></g><line x1="695.6" y1="60.0" x2="862.0" y2="60.0" stroke="#cdc4b4" stroke-width="0.8" stroke-dasharray="166.4" opacity="1.0"><animate attributeName="stroke-dashoffset" from="166.4" to="0" dur="0.6s" begin="0.27s" fill="freeze" calcMode="spline" keySplines="0.3 0.9 0.3 1" keyTimes="0;1"/></line><g opacity="1"><animate attributeName="opacity" from="0" to="1" dur="0.4s" begin="0.82s" fill="freeze"/><text x="695.6" y="88.0" fill="#8d8577" font-size="7" font-weight="400" text-anchor="start" letter-spacing="1.1">LAST CONTACT</text></g><g opacity="1"><animate attributeName="opacity" from="0" to="1" dur="0.4s" begin="0.88s" fill="freeze"/><text x="695.6" y="107.0" fill="#16202b" font-size="15" font-weight="600" text-anchor="start" letter-spacing="0.3">5m ago</text></g><g opacity="1"><animate attributeName="opacity" from="0" to="1" dur="0.4s" begin="0.92s" fill="freeze"/><text x="695.6" y="120.0" fill="#5c6873" font-size="8.6" font-weight="400" text-anchor="start">henrykanaskie</text></g><g opacity="1"><animate attributeName="opacity" from="0" to="1" dur="0.4s" begin="0.94s" fill="freeze"/><text x="695.6" y="140.0" fill="#8d8577" font-size="7" font-weight="400" text-anchor="start" letter-spacing="1.1">STREAK</text></g><g opacity="1"><animate attributeName="opacity" from="0" to="1" dur="0.4s" begin="1.00s" fill="freeze"/><text x="695.6" y="159.0" fill="#16202b" font-size="14" font-weight="600" text-anchor="start" letter-spacing="0.3">2 DAYS</text></g><g opacity="1"><animate attributeName="opacity" from="0" to="1" dur="0.4s" begin="1.02s" fill="freeze"/><text x="695.6" y="180.0" fill="#8d8577" font-size="7" font-weight="400" text-anchor="start" letter-spacing="1.1">PUSHES / 24 H</text></g><g opacity="1"><animate attributeName="opacity" from="0" to="1" dur="0.4s" begin="1.08s" fill="freeze"/><text x="695.6" y="199.0" fill="#16202b" font-size="14" font-weight="600" text-anchor="start" letter-spacing="0.3">1</text></g><g opacity="1"><animate attributeName="opacity" from="0" to="1" dur="0.4s" begin="1.08s" fill="freeze"/><text x="695.6" y="220.0" fill="#8d8577" font-size="7" font-weight="400" text-anchor="start" letter-spacing="1.1">QUIETEST</text></g><g opacity="1"><animate attributeName="opacity" from="0" to="1" dur="0.4s" begin="1.14s" fill="freeze"/><text x="695.6" y="239.0" fill="#16202b" font-size="14" font-weight="600" text-anchor="start" letter-spacing="0.3">549 DAYS</text></g><g opacity="1"><animate attributeName="opacity" from="0" to="1" dur="0.4s" begin="1.12s" fill="freeze"/><text x="695.6" y="252.0" fill="#5c6873" font-size="8.6" font-weight="400" text-anchor="start">small-shell</text></g><g opacity="1"><animate attributeName="opacity" from="0" to="1" dur="0.4s" begin="0.80s" fill="freeze"/><text x="26.0" y="274.0" fill="#8d8577" font-size="6.8" font-weight="400" text-anchor="start" letter-spacing="1.0">GENERATED 2026-08-25 00:14 UTC</text></g></svg>