<svg xmlns="http://www.w3.org/2000/svg" width="900" height="296" viewBox="0 0 900 296" font-family="ui-monospace,SFMono-Regular,'SF Mono',Menlo,Consolas,'DejaVu Sans Mono',monospace" role="img"><defs><pattern id="grid" patternUnits="userSpaceOnUse" width="8" height="8"><path d="M8 0 L0 0 0 8" fill="none" stroke="#e9e2d4" stroke-width="0.6"/></pattern></defs><rect x="0.5" y="0.5" width="899" height="295" rx="4" fill="#fbf9f4" stroke="#c9c0b0" stroke-width="1"/><rect x="12" y="12" width="876" height="272" fill="url(#grid)" opacity="0.85"/><text x="60.7" y="8.5" fill="#8d8577" font-size="7" font-weight="400" text-anchor="middle" opacity="0.75">1</text><text x="60.7" y="292.5" fill="#8d8577" font-size="7" font-weight="400" text-anchor="middle" opacity="0.75">1</text><text x="158.0" y="8.5" fill="#8d8577" font-size="7" font-weight="400" text-anchor="middle" opacity="0.75">2</text><text x="158.0" y="292.5" fill="#8d8577" font-size="7" font-weight="400" text-anchor="middle" opacity="0.75">2</text><line x1="109.3" y1="0.0" x2="109.3" y2="12.0" stroke="#c9c0b0" stroke-width="0.7" opacity="0.5"></line><line x1="109.3" y1="284.0" x2="109.3" y2="296.0" stroke="#c9c0b0" stroke-width="0.7" opacity="0.5"></line><text x="255.3" y="8.5" fill="#8d8577" font-size="7" font-weight="400" text-anchor="middle" opacity="0.75">3</text><text x="255.3" y="292.5" fill="#8d8577" font-size="7" font-weight="400" text-anchor="middle" opacity="0.75">3</text><line x1="206.7" y1="0.0" x2="206.7" y2="12.0" stroke="#c9c0b0" stroke-width="0.7" opacity="0.5"></line><line x1="206.7" y1="284.0" x2="206.7" y2="296.0" stroke="#c9c0b0" stroke-width="0.7" opacity="0.5"></line><text x="352.7" y="8.5" fill="#8d8577" font-size="7" font-weight="400" text-anchor="middle" opacity="0.75">4</text><text x="352.7" y="292.5" fill="#8d8577" font-size="7" font-weight="400" text-anchor="middle" opacity="0.75">4</text><line x1="304.0" y1="0.0" x2="304.0" y2="12.0" stroke="#c9c0b0" stroke-width="0.7" opacity="0.5"></line><line x1="304.0" y1="284.0" x2="304.0" y2="296.0" stroke="#c9c0b0" stroke-width="0.7" opacity="0.5"></line><text x="450.0" y="8.5" fill="#8d8577" font-size="7" font-weight="400" text-anchor="middle" opacity="0.75">5</text><text x="450.0" y="292.5" fill="#8d8577" font-size="7" font-weight="400" text-anchor="middle" opacity="0.75">5</text><line x1="401.3" y1="0.0" x2="401.3" y2="12.0" stroke="#c9c0b0" stroke-width="0.7" opacity="0.5"></line><line x1="401.3" y1="284.0" x2="401.3" y2="296.0" stroke="#c9c0b0" stroke-width="0.7" opacity="0.5"></line><text x="547.3" y="8.5" fill="#8d8577" font-size="7" font-weight="400" text-anchor="middle" opacity="0.75">6</text><text x="547.3" y="292.5" fill="#8d8577" font-size="7" font-weight="400" text-anchor="middle" opacity="0.75">6</text><line x1="498.7" y1="0.0" x2="498.7" y2="12.0" stroke="#c9c0b0" stroke-width="0.7" opacity="0.5"></line><line x1="498.7" y1="284.0" x2="498.7" y2="296.0" stroke="#c9c0b0" stroke-width="0.7" opacity="0.5"></line><text x="644.7" y="8.5" fill="#8d8577" font-size="7" font-weight="400" text-anchor="middle" opacity="0.75">7</text><text x="644.7" y="292.5" fill="#8d8577" font-size="7" font-weight="400" text-anchor="middle" opacity="0.75">7</text><line x1="596.0" y1="0.0" x2="596.0" y2="12.0" stroke="#c9c0b0" stroke-width="0.7" opacity="0.5"></line><line x1="596.0" y1="284.0" x2="596.0" y2="296.0" stroke="#c9c0b0" stroke-width="0.7" opacity="0.5"></line><text x="742.0" y="8.5" fill="#8d8577" font-size="7" font-weight="400" text-anchor="middle" opacity="0.75">8</text><text x="742.0" y="292.5" fill="#8d8577" font-size="7" font-weight="400" text-anchor="middle" opacity="0.75">8</text><line x1="693.3" y1="0.0" x2="693.3" y2="12.0" stroke="#c9c0b0" stroke-width="0.7" opacity="0.5"></line><line x1="693.3" y1="284.0" x2="693.3" y2="296.0" stroke="#c9c0b0" stroke-width="0.7" opacity="0.5"></line><text x="839.3" y="8.5" fill="#8d8577" font-size="7" font-weight="400" text-anchor="middle" opacity="0.75">9</text><text x="839.3" y="292.5" fill="#8d8577" font-size="7" font-weight="400" text-anchor="middle" opacity="0.75">9</text><line x1="790.7" y1="0.0" x2="790.7" y2="12.0" stroke="#c9c0b0" stroke-width="0.7" opacity="0.5"></line><line x1="790.7" y1="284.0" x2="790.7" y2="296.0" stroke="#c9c0b0" stroke-width="0.7" opacity="0.5"></line><text x="7.5" y="59.8" fill="#8d8577" font-size="7" font-weight="400" text-anchor="middle" opacity="0.75">A</text><text x="892.5" y="59.8" fill="#8d8577" font-size="7" font-weight="400" text-anchor="middle" opacity="0.75">A</text><text x="7.5" y="150.5" fill="#8d8577" font-size="7" font-weight="400" text-anchor="middle" opacity="0.75">B</text><text x="892.5" y="150.5" fill="#8d8577" font-size="7" font-weight="400" text-anchor="middle" opacity="0.75">B</text><line x1="0.0" y1="102.7" x2="12.0" y2="102.7" stroke="#c9c0b0" stroke-width="0.7" opacity="0.5"></line><line x1="888.0" y1="102.7" x2="900.0" y2="102.7" stroke="#c9c0b0" stroke-width="0.7" opacity="0.5"></line><text x="7.5" y="241.2" fill="#8d8577" font-size="7" font-weight="400" text-anchor="middle" opacity="0.75">C</text><text x="892.5" y="241.2" fill="#8d8577" font-size="7" font-weight="400" text-anchor="middle" opacity="0.75">C</text><line x1="0.0" y1="193.3" x2="12.0" y2="193.3" stroke="#c9c0b0" stroke-width="0.7" opacity="0.5"></line><line x1="888.0" y1="193.3" x2="900.0" y2="193.3" stroke="#c9c0b0" stroke-width="0.7" opacity="0.5"></line><rect x="12.5" y="12.5" width="875" height="271" fill="none" stroke="#c9c0b0" stroke-width="1.2"/><path d="M19.0 12.0 L12.0 12.0 L12.0 19.0" fill="none" stroke="#16202b" stroke-width="1.4" opacity="0.55"/><path d="M881.0 12.0 L888.0 12.0 L888.0 19.0" fill="none" stroke="#16202b" stroke-width="1.4" opacity="0.55"/><path d="M19.0 284.0 L12.0 284.0 L12.0 277.0" fill="none" stroke="#16202b" stroke-width="1.4" opacity="0.55"/><path d="M881.0 284.0 L888.0 284.0 L888.0 277.0" fill="none" stroke="#16202b" stroke-width="1.4" opacity="0.55"/><text x="22.0" y="27.0" fill="#8d8577" font-size="8" font-weight="400" text-anchor="start" letter-spacing="1.6">DAILY TELEMETRY</text><text x="878.0" y="276.0" fill="#8d8577" font-size="7.5" font-weight="400" text-anchor="end" letter-spacing="1.2">SH 3 / 5</text><line x1="252.1" y1="32.0" x2="252.1" y2="266.0" stroke="#c9c0b0" stroke-width="0.9" stroke-dasharray="234.0" opacity="1.0"><animate attributeName="stroke-dashoffset" from="234.0" to="0" dur="0.9s" begin="0.22s" fill="freeze" calcMode="spline" keySplines="0.3 0.9 0.3 1" keyTimes="0;1"/></line><line x1="380.3" y1="32.0" x2="380.3" y2="266.0" stroke="#c9c0b0" stroke-width="0.9" stroke-dasharray="234.0" opacity="1.0"><animate attributeName="stroke-dashoffset" from="234.0" to="0" dur="0.9s" begin="0.22s" fill="freeze" calcMode="spline" keySplines="0.3 0.9 0.3 1" keyTimes="0;1"/></line><line x1="685.6" y1="32.0" x2="685.6" y2="266.0" stroke="#c9c0b0" stroke-width="0.9" stroke-dasharray="234.0" opacity="1.0"><animate attributeName="stroke-dashoffset" from="234.0" to="0" dur="0.9s" begin="0.22s" fill="freeze" calcMode="spline" keySplines="0.3 0.9 0.3 1" keyTimes="0;1"/></line><g opacity="1"><animate attributeName="opacity" from="0" to="1" dur="0.4s" begin="0.30s" fill="freeze"/><text x="26.0" y="52.0" fill="#8d8577" font-size="7.6" font-weight="400" text-anchor="start" letter-spacing="1.3">LAUNCH WINDOW</text></g><line x1="26.0" y1="60.0" x2="240.1" y2="60.0" stroke="#c9c0b0" stroke-width="0.8" stroke-dasharray="214.1" opacity="1.0"><animate attributeName="stroke-dashoffset" from="214.1" to="0" dur="0.6s" begin="0.15s" fill="freeze" calcMode="spline" keySplines="0.3 0.9 0.3 1" keyTimes="0;1"/></line><g opacity="1"><animate attributeName="opacity" from="0" to="1" dur="0.5s" begin="0.58s" fill="freeze"/><text x="26.0" y="98.0" fill="#16202b" font-size="20" font-weight="700" text-anchor="start" letter-spacing="1.2">T+ 00d 12h 32m</text></g><g opacity="1"><animate attributeName="opacity" from="0" to="1" dur="0.4s" begin="0.63s" fill="freeze"/><line x1="26.0" y1="108.0" x2="240.1" y2="108.0" stroke="#c9c0b0" stroke-width="0.7" opacity="0.8"></line></g><g opacity="1"><animate attributeName="opacity" from="0" to="1" dur="0.4s" begin="0.68s" fill="freeze"/><text x="26.0" y="126.0" fill="#16202b" font-size="11" font-weight="700" text-anchor="start">Glonass-K1 No. 19</text></g><g opacity="1"><animate attributeName="opacity" from="0" to="1" dur="0.4s" begin="0.68s" fill="freeze"/><text x="26.0" y="140.0" fill="#5c6873" font-size="8.6" font-weight="400" text-anchor="start">Soyuz 2.1b/Fregat</text></g><g opacity="1"><animate attributeName="opacity" from="0" to="1" dur="0.4s" begin="0.73s" fill="freeze"/><text x="26.0" y="162.0" fill="#8d8577" font-size="6.8" font-weight="400" text-anchor="start" letter-spacing="1.0">STATUS</text></g><g opacity="1"><animate attributeName="opacity" from="0" to="1" dur="0.4s" begin="0.76s" fill="freeze"/><text x="26.0" y="176.0" fill="#1f6feb" font-size="11" font-weight="400" text-anchor="start" letter-spacing="1.2">SUCCESS</text></g><g opacity="1"><animate attributeName="opacity" from="0" to="1" dur="0.4s" begin="0.36s" fill="freeze"/><text x="262.1" y="52.0" fill="#8d8577" font-size="7.6" font-weight="400" text-anchor="start" letter-spacing="1.3">OFF-PLANET</text></g><line x1="262.1" y1="60.0" x2="368.3" y2="60.0" stroke="#c9c0b0" stroke-width="0.8" stroke-dasharray="106.1" opacity="1.0"><animate attributeName="stroke-dashoffset" from="106.1" to="0" dur="0.6s" begin="0.19s" fill="freeze" calcMode="spline" keySplines="0.3 0.9 0.3 1" keyTimes="0;1"/></line><g opacity="1"><animate attributeName="opacity" from="0" to="1" dur="0.6s" begin="0.66s" fill="freeze"/><text x="315.2" y="124.0" fill="#16202b" font-size="48" font-weight="700" text-anchor="middle" letter-spacing="1.0">11</text></g><g opacity="1"><animate attributeName="opacity" from="0" to="1" dur="0.4s" begin="0.76s" fill="freeze"/><text x="315.2" y="142.0" fill="#8d8577" font-size="8" font-weight="400" text-anchor="middle" letter-spacing="1.3">HUMANS</text></g><g opacity="1"><animate attributeName="opacity" from="0" to="1" dur="0.4s" begin="0.76s" fill="freeze"/><text x="315.2" y="154.0" fill="#8d8577" font-size="8" font-weight="400" text-anchor="middle" letter-spacing="1.3">IN SPACE</text></g><g opacity="1"><animate attributeName="opacity" from="0" to="1" dur="0.4s" begin="0.42s" fill="freeze"/><text x="390.3" y="52.0" fill="#8d8577" font-size="7.6" font-weight="400" text-anchor="start" letter-spacing="1.3">ISS GROUND TRACK</text></g><line x1="390.3" y1="60.0" x2="673.6" y2="60.0" stroke="#c9c0b0" stroke-width="0.8" stroke-dasharray="283.3" opacity="1.0"><animate attributeName="stroke-dashoffset" from="283.3" to="0" dur="0.6s" begin="0.23s" fill="freeze" calcMode="spline" keySplines="0.3 0.9 0.3 1" keyTimes="0;1"/></line><g opacity="1"><animate attributeName="opacity" from="0" to="1" dur="0.4s" begin="0.74s" fill="freeze"/><rect x="390.3" y="78.0" width="283.3" height="126.0" fill="#efe9dc" stroke="#c9c0b0" stroke-width="1" opacity="0.9"/><line x1="413.9" y1="78.0" x2="413.9" y2="204.0" stroke="#c9c0b0" stroke-width="0.6" opacity="0.65"></line><line x1="437.5" y1="78.0" x2="437.5" y2="204.0" stroke="#c9c0b0" stroke-width="0.6" opacity="0.65"></line><line x1="461.1" y1="78.0" x2="461.1" y2="204.0" stroke="#c9c0b0" stroke-width="0.6" opacity="0.65"></line><line x1="484.7" y1="78.0" x2="484.7" y2="204.0" stroke="#c9c0b0" stroke-width="0.6" opacity="0.65"></line><line x1="508.3" y1="78.0" x2="508.3" y2="204.0" stroke="#c9c0b0" stroke-width="0.6" opacity="0.65"></line><line x1="531.9" y1="78.0" x2="531.9" y2="204.0" stroke="#c9c0b0" stroke-width="0.6" opacity="0.65"></line><line x1="555.5" y1="78.0" x2="555.5" y2="204.0" stroke="#c9c0b0" stroke-width="0.6" opacity="0.65"></line><line x1="579.1" y1="78.0" x2="579.1" y2="204.0" stroke="#c9c0b0" stroke-width="0.6" opacity="0.65"></line><line x1="602.7" y1="78.0" x2="602.7" y2="204.0" stroke="#c9c0b0" stroke-width="0.6" opacity="0.65"></line><line x1="626.3" y1="78.0" x2="626.3" y2="204.0" stroke="#c9c0b0" stroke-width="0.6" opacity="0.65"></line><line x1="649.9" y1="78.0" x2="649.9" y2="204.0" stroke="#c9c0b0" stroke-width="0.6" opacity="0.65"></line><line x1="390.3" y1="183.0" x2="673.6" y2="183.0" stroke="#c9c0b0" stroke-width="0.6" opacity="0.6"></line><line x1="390.3" y1="162.0" x2="673.6" y2="162.0" stroke="#c9c0b0" stroke-width="0.6" opacity="0.6"></line><line x1="390.3" y1="141.0" x2="673.6" y2="141.0" stroke="#c9c0b0" stroke-width="0.6" opacity="0.95"></line><line x1="390.3" y1="120.0" x2="673.6" y2="120.0" stroke="#c9c0b0" stroke-width="0.6" opacity="0.6"></line><line x1="390.3" y1="99.0" x2="673.6" y2="99.0" stroke="#c9c0b0" stroke-width="0.6" opacity="0.6"></line><text x="394.3" y="137.0" fill="#8d8577" font-size="6" font-weight="400" text-anchor="start" letter-spacing="0.6" opacity="0.8">EQ</text><line x1="390.3" y1="104.9" x2="673.6" y2="104.9" stroke="#5c6873" stroke-width="0.7" stroke-dasharray="3 3" opacity="0.55"></line><line x1="390.3" y1="177.1" x2="673.6" y2="177.1" stroke="#5c6873" stroke-width="0.7" stroke-dasharray="3 3" opacity="0.55"></line><text x="669.6" y="100.9" fill="#8d8577" font-size="6" font-weight="400" text-anchor="end" letter-spacing="0.4" opacity="0.75">INC 51.6°</text><text x="391.3" y="212.0" fill="#8d8577" font-size="6" font-weight="400" text-anchor="start" letter-spacing="0.4">-180°</text><text x="531.9" y="212.0" fill="#8d8577" font-size="6" font-weight="400" text-anchor="middle" letter-spacing="0.4">0°</text><text x="672.6" y="212.0" fill="#8d8577" font-size="6" font-weight="400" text-anchor="end" letter-spacing="0.4">180°</text></g><path d="M390.3 107.8 L391.8 107.3 L393.4 106.8 L395.0 106.4 L396.6 106.0 L398.1 105.6 L399.7 105.4 L401.3 105.1 L402.9 105.0 L404.4 104.9 L406.0 104.9 L407.6 104.9 L409.2 105.0 L410.7 105.1 L412.3 105.3 L413.9 105.6 L415.5 105.9 L417.0 106.3 L418.6 106.7 L420.2 107.2 L421.8 107.7 L423.3 108.3 L424.9 108.9 L426.5 109.6 L428.0 110.3 L429.6 111.0 L431.2 111.8 L432.8 112.6 L434.3 113.4 L435.9 114.2 L437.5 115.1 L439.1 116.0 L440.6 116.9 L442.2 117.8 L443.8 118.8 L445.4 119.7 L446.9 120.7 L448.5 121.7 L450.1 122.7 L451.7 123.7 L453.2 124.8 L454.8 125.8 L456.4 126.8 L457.9 127.9 L459.5 129.0 L461.1 130.0 L462.7 131.1 L464.2 132.2 L465.8 133.3 L467.4 134.3 L469.0 135.4 L470.5 136.5 L472.1 137.6 L473.7 138.7 L475.3 139.8 L476.8 140.9 L478.4 142.0 L480.0 143.1 L481.6 144.2 L483.1 145.3 L484.7 146.4 L486.3 147.5 L487.8 148.6 L489.4 149.6 L491.0 150.7 L492.6 151.8 L494.1 152.9 L495.7 153.9 L497.3 155.0 L498.9 156.0 L500.4 157.1 L502.0 158.1 L503.6 159.1 L505.2 160.1 L506.7 161.1 L508.3 162.1 L509.9 163.1 L511.5 164.0 L513.0 165.0 L514.6 165.9 L516.2 166.8 L517.8 167.6 L519.3 168.5 L520.9 169.3 L522.5 170.1 L524.0 170.9 L525.6 171.6 L527.2 172.3 L528.8 173.0 L530.3 173.6 L531.9 174.2 L533.5 174.7 L535.1 175.2 L536.6 175.6 L538.2 176.0 L539.8 176.4 L541.4 176.6 L542.9 176.9 L544.5 177.0 L546.1 177.1 L547.7 177.1 L549.2 177.1 L550.8 177.0 L552.4 176.9 L553.9 176.7 L555.5 176.4 L557.1 176.1 L558.7 175.7 L560.2 175.3 L561.8 174.8 L563.4 174.3 L565.0 173.7 L566.5 173.1 L568.1 172.4 L569.7 171.7 L571.3 171.0 L572.8 170.2 L574.4 169.4 L576.0 168.6 L577.6 167.8 L579.1 166.9 L580.7 166.0 L582.3 165.1 L583.9 164.2 L585.4 163.2 L587.0 162.3 L588.6 161.3 L590.1 160.3 L591.7 159.3 L593.3 158.3 L594.9 157.2 L596.4 156.2 L598.0 155.2 L599.6 154.1 L601.2 153.0 L602.7 152.0 L604.3 150.9 L605.9 149.8 L607.5 148.7 L609.0 147.7 L610.6 146.6 L612.2 145.5 L613.8 144.4 L615.3 143.3 L616.9 142.2 L618.5 141.1 L620.0 140.0 L621.6 138.9 L623.2 137.8 L624.8 136.7 L626.3 135.6 L627.9 134.5 L629.5 133.4 L631.1 132.4 L632.6 131.3 L634.2 130.2 L635.8 129.1 L637.4 128.1 L638.9 127.0 L640.5 126.0 L642.1 124.9 L643.7 123.9 L645.2 122.9 L646.8 121.9 L648.4 120.9 L649.9 119.9 L651.5 118.9 L653.1 118.0 L654.7 117.0 L656.2 116.1 L657.8 115.2 L659.4 114.4 L661.0 113.5 L662.5 112.7 L664.1 111.9 L665.7 111.1 L667.3 110.4 L668.8 109.7 L670.4 109.0 L672.0 108.4 L673.6 107.8" fill="none" stroke="#1f6feb" stroke-width="1.4" stroke-linejoin="round" stroke-dasharray="322" stroke-dashoffset="0"><animate attributeName="stroke-dashoffset" from="322.3" to="0" dur="1.3s" begin="0.99s" fill="freeze" calcMode="spline" keySplines="0.3 0.9 0.3 1" keyTimes="0;1"/></path><g opacity="1"><animate attributeName="opacity" from="0" to="1" dur="0.4s" begin="1.89s" fill="freeze"/><circle cx="641.2" cy="125.5" r="7" fill="none" stroke="#1f6feb" stroke-width="0.9" opacity="0.65"/><circle cx="641.2" cy="125.5" r="2.6" fill="#1f6feb"/><line x1="630.2" y1="125.5" x2="652.2" y2="125.5" stroke="#1f6feb" stroke-width="0.7" opacity="0.55"></line><line x1="641.2" y1="114.5" x2="641.2" y2="136.5" stroke="#1f6feb" stroke-width="0.7" opacity="0.55"></line></g><g opacity="1"><animate attributeName="opacity" from="0" to="1" dur="0.4s" begin="1.09s" fill="freeze"/><text x="390.3" y="228.0" fill="#8d8577" font-size="7" font-weight="400" text-anchor="start" letter-spacing="1.0">LAT</text></g><g opacity="1"><animate attributeName="opacity" from="0" to="1" dur="0.4s" begin="1.09s" fill="freeze"/><text x="513.9" y="228.0" fill="#16202b" font-size="8.4" font-weight="400" text-anchor="end">+22.17°</text></g><g opacity="1"><animate attributeName="opacity" from="0" to="1" dur="0.4s" begin="1.13s" fill="freeze"/><text x="531.9" y="228.0" fill="#8d8577" font-size="7" font-weight="400" text-anchor="start" letter-spacing="1.0">LON</text></g><g opacity="1"><animate attributeName="opacity" from="0" to="1" dur="0.4s" begin="1.13s" fill="freeze"/><text x="655.6" y="228.0" fill="#16202b" font-size="8.4" font-weight="400" text-anchor="end">+138.93°</text></g><g opacity="1"><animate attributeName="opacity" from="0" to="1" dur="0.4s" begin="1.17s" fill="freeze"/><text x="390.3" y="241.0" fill="#8d8577" font-size="7" font-weight="400" text-anchor="start" letter-spacing="1.0">ALT</text></g><g opacity="1"><animate attributeName="opacity" from="0" to="1" dur="0.4s" begin="1.17s" fill="freeze"/><text x="513.9" y="241.0" fill="#16202b" font-size="8.4" font-weight="400" text-anchor="end">415.1 KM</text></g><g opacity="1"><animate attributeName="opacity" from="0" to="1" dur="0.4s" begin="1.21s" fill="freeze"/><text x="531.9" y="241.0" fill="#8d8577" font-size="7" font-weight="400" text-anchor="start" letter-spacing="1.0">VEL</text></g><g opacity="1"><animate attributeName="opacity" from="0" to="1" dur="0.4s" begin="1.21s" fill="freeze"/><text x="655.6" y="241.0" fill="#16202b" font-size="8.4" font-weight="400" text-anchor="end">27 602 KM/H</text></g><g opacity="1"><animate attributeName="opacity" from="0" to="1" dur="0.4s" begin="1.24s" fill="freeze"/><text x="390.3" y="258.0" fill="#8d8577" font-size="6.8" font-weight="400" text-anchor="start" letter-spacing="0.9">SAMPLED 15:12:44 UTC</text></g><g opacity="1"><animate attributeName="opacity" from="0" to="1" dur="0.4s" begin="0.48s" fill="freeze"/><text x="695.6" y="52.0" fill="#8d8577" font-size="7.6" font-weight="400" text-anchor="start" letter-spacing="1.3">CONTACT</text></g><line x1="695.6" y1="60.0" x2="862.0" y2="60.0" stroke="#c9c0b0" stroke-width="0.8" stroke-dasharray="166.4" opacity="1.0"><animate attributeName="stroke-dashoffset" from="166.4" to="0" dur="0.6s" begin="0.27s" fill="freeze" calcMode="spline" keySplines="0.3 0.9 0.3 1" keyTimes="0;1"/></line><g opacity="1"><animate attributeName="opacity" from="0" to="1" dur="0.4s" begin="0.82s" fill="freeze"/><text x="695.6" y="88.0" fill="#8d8577" font-size="7" font-weight="400" text-anchor="start" letter-spacing="1.1">LAST CONTACT</text></g><g opacity="1"><animate attributeName="opacity" from="0" to="1" dur="0.4s" begin="0.88s" fill="freeze"/><text x="695.6" y="107.0" fill="#16202b" font-size="15" font-weight="600" text-anchor="start" letter-spacing="0.3">6h 44m ago</text></g><g opacity="1"><animate attributeName="opacity" from="0" to="1" dur="0.4s" begin="0.92s" fill="freeze"/><text x="695.6" y="120.0" fill="#5c6873" font-size="8.6" font-weight="400" text-anchor="start">henrykanaskie</text></g><g opacity="1"><animate attributeName="opacity" from="0" to="1" dur="0.4s" begin="0.94s" fill="freeze"/><text x="695.6" y="140.0" fill="#8d8577" font-size="7" font-weight="400" text-anchor="start" letter-spacing="1.1">STREAK</text></g><g opacity="1"><animate attributeName="opacity" from="0" to="1" dur="0.4s" begin="1.00s" fill="freeze"/><text x="695.6" y="159.0" fill="#16202b" font-size="14" font-weight="600" text-anchor="start" letter-spacing="0.3">1 DAY</text></g><g opacity="1"><animate attributeName="opacity" from="0" to="1" dur="0.4s" begin="1.02s" fill="freeze"/><text x="695.6" y="180.0" fill="#8d8577" font-size="7" font-weight="400" text-anchor="start" letter-spacing="1.1">PUSHES / 24 H</text></g><g opacity="1"><animate attributeName="opacity" from="0" to="1" dur="0.4s" begin="1.08s" fill="freeze"/><text x="695.6" y="199.0" fill="#16202b" font-size="14" font-weight="600" text-anchor="start" letter-spacing="0.3">4</text></g><g opacity="1"><animate attributeName="opacity" from="0" to="1" dur="0.4s" begin="1.08s" fill="freeze"/><text x="695.6" y="220.0" fill="#8d8577" font-size="7" font-weight="400" text-anchor="start" letter-spacing="1.1">QUIETEST</text></g><g opacity="1"><animate attributeName="opacity" from="0" to="1" dur="0.4s" begin="1.14s" fill="freeze"/><text x="695.6" y="239.0" fill="#16202b" font-size="14" font-weight="600" text-anchor="start" letter-spacing="0.3">548 DAYS</text></g><g opacity="1"><animate attributeName="opacity" from="0" to="1" dur="0.4s" begin="1.12s" fill="freeze"/><text x="695.6" y="252.0" fill="#5c6873" font-size="8.6" font-weight="400" text-anchor="start">small-shell</text></g><g opacity="1"><animate attributeName="opacity" from="0" to="1" dur="0.4s" begin="0.80s" fill="freeze"/><text x="26.0" y="274.0" fill="#8d8577" font-size="6.8" font-weight="400" text-anchor="start" letter-spacing="1.0">GENERATED 2026-08-24 15:12 UTC</text></g></svg>