<svg xmlns="http://www.w3.org/2000/svg" width="300" height="672" viewBox="0 0 300 672" font-family="ui-monospace,SFMono-Regular,'SF Mono',Menlo,Consolas,'DejaVu Sans Mono',monospace" role="img"><defs><pattern id="grid" patternUnits="userSpaceOnUse" width="8" height="8"><path d="M8 0 L0 0 0 8" fill="none" stroke="#ece5d8" stroke-width="0.6"/></pattern></defs><rect x="0" y="0" width="300" height="672" fill="#ffffff"/><rect x="0" y="0" width="300" height="672" fill="url(#grid)" opacity="0.85"/><text x="55.3" y="4.5" fill="#8d8577" font-size="7" font-weight="400" text-anchor="middle" opacity="0.75">1</text><text x="55.3" y="672.5" fill="#8d8577" font-size="7" font-weight="400" text-anchor="middle" opacity="0.75">1</text><text x="150.0" y="4.5" fill="#8d8577" font-size="7" font-weight="400" text-anchor="middle" opacity="0.75">2</text><text x="150.0" y="672.5" fill="#8d8577" font-size="7" font-weight="400" text-anchor="middle" opacity="0.75">2</text><line x1="102.7" y1="0.0" x2="102.7" y2="8.0" stroke="#cdc4b4" stroke-width="0.7" opacity="0.5"></line><line x1="102.7" y1="664.0" x2="102.7" y2="672.0" stroke="#cdc4b4" stroke-width="0.7" opacity="0.5"></line><text x="244.7" y="4.5" fill="#8d8577" font-size="7" font-weight="400" text-anchor="middle" opacity="0.75">3</text><text x="244.7" y="672.5" fill="#8d8577" font-size="7" font-weight="400" text-anchor="middle" opacity="0.75">3</text><line x1="197.3" y1="0.0" x2="197.3" y2="8.0" stroke="#cdc4b4" stroke-width="0.7" opacity="0.5"></line><line x1="197.3" y1="664.0" x2="197.3" y2="672.0" stroke="#cdc4b4" stroke-width="0.7" opacity="0.5"></line><text x="3.5" y="57.4" fill="#8d8577" font-size="7" font-weight="400" text-anchor="middle" opacity="0.75">A</text><text x="296.5" y="57.4" fill="#8d8577" font-size="7" font-weight="400" text-anchor="middle" opacity="0.75">A</text><text x="3.5" y="151.1" fill="#8d8577" font-size="7" font-weight="400" text-anchor="middle" opacity="0.75">B</text><text x="296.5" y="151.1" fill="#8d8577" font-size="7" font-weight="400" text-anchor="middle" opacity="0.75">B</text><line x1="0.0" y1="101.7" x2="8.0" y2="101.7" stroke="#cdc4b4" stroke-width="0.7" opacity="0.5"></line><line x1="292.0" y1="101.7" x2="300.0" y2="101.7" stroke="#cdc4b4" stroke-width="0.7" opacity="0.5"></line><text x="3.5" y="244.8" fill="#8d8577" font-size="7" font-weight="400" text-anchor="middle" opacity="0.75">C</text><text x="296.5" y="244.8" fill="#8d8577" font-size="7" font-weight="400" text-anchor="middle" opacity="0.75">C</text><line x1="0.0" y1="195.4" x2="8.0" y2="195.4" stroke="#cdc4b4" stroke-width="0.7" opacity="0.5"></line><line x1="292.0" y1="195.4" x2="300.0" y2="195.4" stroke="#cdc4b4" stroke-width="0.7" opacity="0.5"></line><text x="3.5" y="338.5" fill="#8d8577" font-size="7" font-weight="400" text-anchor="middle" opacity="0.75">D</text><text x="296.5" y="338.5" fill="#8d8577" font-size="7" font-weight="400" text-anchor="middle" opacity="0.75">D</text><line x1="0.0" y1="289.1" x2="8.0" y2="289.1" stroke="#cdc4b4" stroke-width="0.7" opacity="0.5"></line><line x1="292.0" y1="289.1" x2="300.0" y2="289.1" stroke="#cdc4b4" stroke-width="0.7" opacity="0.5"></line><text x="3.5" y="432.2" fill="#8d8577" font-size="7" font-weight="400" text-anchor="middle" opacity="0.75">E</text><text x="296.5" y="432.2" fill="#8d8577" font-size="7" font-weight="400" text-anchor="middle" opacity="0.75">E</text><line x1="0.0" y1="382.9" x2="8.0" y2="382.9" stroke="#cdc4b4" stroke-width="0.7" opacity="0.5"></line><line x1="292.0" y1="382.9" x2="300.0" y2="382.9" stroke="#cdc4b4" stroke-width="0.7" opacity="0.5"></line><text x="3.5" y="525.9" fill="#8d8577" font-size="7" font-weight="400" text-anchor="middle" opacity="0.75">F</text><text x="296.5" y="525.9" fill="#8d8577" font-size="7" font-weight="400" text-anchor="middle" opacity="0.75">F</text><line x1="0.0" y1="476.6" x2="8.0" y2="476.6" stroke="#cdc4b4" stroke-width="0.7" opacity="0.5"></line><line x1="292.0" y1="476.6" x2="300.0" y2="476.6" stroke="#cdc4b4" stroke-width="0.7" opacity="0.5"></line><text x="3.5" y="619.6" fill="#8d8577" font-size="7" font-weight="400" text-anchor="middle" opacity="0.75">G</text><text x="296.5" y="619.6" fill="#8d8577" font-size="7" font-weight="400" text-anchor="middle" opacity="0.75">G</text><line x1="0.0" y1="570.3" x2="8.0" y2="570.3" stroke="#cdc4b4" stroke-width="0.7" opacity="0.5"></line><line x1="292.0" y1="570.3" x2="300.0" y2="570.3" stroke="#cdc4b4" stroke-width="0.7" opacity="0.5"></line><rect x="8.5" y="8.5" width="283" height="655" fill="none" stroke="#cdc4b4" stroke-width="1.2"/><path d="M15.0 8.0 L8.0 8.0 L8.0 15.0" fill="none" stroke="#16202b" stroke-width="1.4" opacity="0.55"/><path d="M285.0 8.0 L292.0 8.0 L292.0 15.0" fill="none" stroke="#16202b" stroke-width="1.4" opacity="0.55"/><path d="M15.0 664.0 L8.0 664.0 L8.0 657.0" fill="none" stroke="#16202b" stroke-width="1.4" opacity="0.55"/><path d="M285.0 664.0 L292.0 664.0 L292.0 657.0" fill="none" stroke="#16202b" stroke-width="1.4" opacity="0.55"/><text x="18.0" y="23.0" fill="#8d8577" font-size="8" font-weight="400" text-anchor="start" letter-spacing="1.6">DAILY TELEMETRY</text><text x="282.0" y="656.0" fill="#8d8577" font-size="7.5" font-weight="400" text-anchor="end" letter-spacing="1.2">SH 4 / 6</text><g opacity="1"><animate attributeName="opacity" from="0" to="1" dur="0.4s" begin="0.30s" fill="freeze"/><text x="18.0" y="42.0" fill="#8d8577" font-size="7.6" font-weight="400" text-anchor="start" letter-spacing="1.3">LAUNCH WINDOW</text></g><line x1="18.0" y1="50.0" x2="282.0" y2="50.0" stroke="#cdc4b4" stroke-width="0.8" stroke-dasharray="264.0" opacity="1.0"><animate attributeName="stroke-dashoffset" from="264.0" to="0" dur="0.6s" begin="0.15s" fill="freeze" calcMode="spline" keySplines="0.3 0.9 0.3 1" keyTimes="0;1"/></line><g opacity="1"><animate attributeName="opacity" from="0" to="1" dur="0.5s" begin="0.58s" fill="freeze"/><text x="18.0" y="80.0" fill="#16202b" font-size="24" font-weight="700" text-anchor="start" letter-spacing="1.44">T− 01d 12h 35m</text></g><g opacity="1"><animate attributeName="opacity" from="0" to="1" dur="0.4s" begin="0.63s" fill="freeze"/><line x1="18.0" y1="89.0" x2="282.0" y2="89.0" stroke="#cdc4b4" stroke-width="0.7" opacity="0.8"></line></g><g opacity="1"><animate attributeName="opacity" from="0" to="1" dur="0.4s" begin="0.68s" fill="freeze"/><text x="18.0" y="105.0" fill="#16202b" font-size="11" font-weight="700" text-anchor="start">Nancy Grace Roman Space Telescope</text></g><g opacity="1"><animate attributeName="opacity" from="0" to="1" dur="0.4s" begin="0.68s" fill="freeze"/><text x="18.0" y="119.0" fill="#5c6873" font-size="8.6" font-weight="400" text-anchor="start">Falcon Heavy</text></g><g opacity="1"><animate attributeName="opacity" from="0" to="1" dur="0.4s" begin="0.73s" fill="freeze"/><text x="18.0" y="141.0" fill="#8d8577" font-size="6.8" font-weight="400" text-anchor="start" letter-spacing="1.0">STATUS</text></g><g opacity="1"><animate attributeName="opacity" from="0" to="1" dur="0.4s" begin="0.76s" fill="freeze"/><text x="282.0" y="141.0" fill="#1f6feb" font-size="9.5" font-weight="400" text-anchor="end" letter-spacing="1.2">GO</text></g><g opacity="1"><animate attributeName="opacity" from="0" to="1" dur="0.4s" begin="0.36s" fill="freeze"/><text x="18.0" y="167.0" fill="#8d8577" font-size="7.6" font-weight="400" text-anchor="start" letter-spacing="1.3">OFF-PLANET</text></g><line x1="18.0" y1="175.0" x2="282.0" y2="175.0" stroke="#cdc4b4" stroke-width="0.8" stroke-dasharray="264.0" opacity="1.0"><animate attributeName="stroke-dashoffset" from="264.0" to="0" dur="0.6s" begin="0.19s" fill="freeze" calcMode="spline" keySplines="0.3 0.9 0.3 1" keyTimes="0;1"/></line><g opacity="1"><animate attributeName="opacity" from="0" to="1" dur="0.6s" begin="0.66s" fill="freeze"/><text x="18.0" y="221.0" fill="#16202b" font-size="44" font-weight="700" text-anchor="start" letter-spacing="1.0">11</text></g><g opacity="1"><animate attributeName="opacity" from="0" to="1" dur="0.4s" begin="0.76s" fill="freeze"/><text x="85.8" y="205.0" fill="#8d8577" font-size="9" font-weight="400" text-anchor="start" letter-spacing="1.3">HUMANS</text></g><g opacity="1"><animate attributeName="opacity" from="0" to="1" dur="0.4s" begin="0.76s" fill="freeze"/><text x="85.8" y="219.0" fill="#8d8577" font-size="9" font-weight="400" text-anchor="start" letter-spacing="1.3">IN SPACE</text></g><g opacity="1"><animate attributeName="opacity" from="0" to="1" dur="0.4s" begin="0.42s" fill="freeze"/><text x="18.0" y="251.0" fill="#8d8577" font-size="7.6" font-weight="400" text-anchor="start" letter-spacing="1.3">ISS GROUND TRACK</text></g><line x1="18.0" y1="259.0" x2="282.0" y2="259.0" stroke="#cdc4b4" stroke-width="0.8" stroke-dasharray="264.0" opacity="1.0"><animate attributeName="stroke-dashoffset" from="264.0" to="0" dur="0.6s" begin="0.23s" fill="freeze" calcMode="spline" keySplines="0.3 0.9 0.3 1" keyTimes="0;1"/></line><g opacity="1"><animate attributeName="opacity" from="0" to="1" dur="0.4s" begin="0.74s" fill="freeze"/><rect x="18.0" y="267.0" width="264.0" height="132.0" fill="#f2ece0" stroke="#cdc4b4" stroke-width="1" opacity="0.9"/><line x1="40.0" y1="267.0" x2="40.0" y2="399.0" stroke="#cdc4b4" stroke-width="0.6" opacity="0.65"></line><line x1="62.0" y1="267.0" x2="62.0" y2="399.0" stroke="#cdc4b4" stroke-width="0.6" opacity="0.65"></line><line x1="84.0" y1="267.0" x2="84.0" y2="399.0" stroke="#cdc4b4" stroke-width="0.6" opacity="0.65"></line><line x1="106.0" y1="267.0" x2="106.0" y2="399.0" stroke="#cdc4b4" stroke-width="0.6" opacity="0.65"></line><line x1="128.0" y1="267.0" x2="128.0" y2="399.0" stroke="#cdc4b4" stroke-width="0.6" opacity="0.65"></line><line x1="150.0" y1="267.0" x2="150.0" y2="399.0" stroke="#cdc4b4" stroke-width="0.6" opacity="0.65"></line><line x1="172.0" y1="267.0" x2="172.0" y2="399.0" stroke="#cdc4b4" stroke-width="0.6" opacity="0.65"></line><line x1="194.0" y1="267.0" x2="194.0" y2="399.0" stroke="#cdc4b4" stroke-width="0.6" opacity="0.65"></line><line x1="216.0" y1="267.0" x2="216.0" y2="399.0" stroke="#cdc4b4" stroke-width="0.6" opacity="0.65"></line><line x1="238.0" y1="267.0" x2="238.0" y2="399.0" stroke="#cdc4b4" stroke-width="0.6" opacity="0.65"></line><line x1="260.0" y1="267.0" x2="260.0" y2="399.0" stroke="#cdc4b4" stroke-width="0.6" opacity="0.65"></line><line x1="18.0" y1="377.0" x2="282.0" y2="377.0" stroke="#cdc4b4" stroke-width="0.6" opacity="0.6"></line><line x1="18.0" y1="355.0" x2="282.0" y2="355.0" stroke="#cdc4b4" stroke-width="0.6" opacity="0.6"></line><line x1="18.0" y1="333.0" x2="282.0" y2="333.0" stroke="#cdc4b4" stroke-width="0.6" opacity="0.95"></line><line x1="18.0" y1="311.0" x2="282.0" y2="311.0" stroke="#cdc4b4" stroke-width="0.6" opacity="0.6"></line><line x1="18.0" y1="289.0" x2="282.0" y2="289.0" stroke="#cdc4b4" stroke-width="0.6" opacity="0.6"></line><text x="22.0" y="329.0" fill="#8d8577" font-size="6" font-weight="400" text-anchor="start" letter-spacing="0.6" opacity="0.8">EQ</text><line x1="18.0" y1="295.1" x2="282.0" y2="295.1" stroke="#5c6873" stroke-width="0.7" stroke-dasharray="3 3" opacity="0.55"></line><line x1="18.0" y1="370.9" x2="282.0" y2="370.9" stroke="#5c6873" stroke-width="0.7" stroke-dasharray="3 3" opacity="0.55"></line><text x="278.0" y="291.1" fill="#8d8577" font-size="6" font-weight="400" text-anchor="end" letter-spacing="0.4" opacity="0.75">INC 51.6°</text><text x="19.0" y="407.0" fill="#8d8577" font-size="6" font-weight="400" text-anchor="start" letter-spacing="0.4">-180°</text><text x="150.0" y="407.0" fill="#8d8577" font-size="6" font-weight="400" text-anchor="middle" letter-spacing="0.4">0°</text><text x="281.0" y="407.0" fill="#8d8577" font-size="6" font-weight="400" text-anchor="end" letter-spacing="0.4">180°</text></g><path d="M18.0 346.8 L19.5 347.9 L20.9 349.0 L22.4 350.1 L23.9 351.2 L25.3 352.2 L26.8 353.3 L28.3 354.3 L29.7 355.4 L31.2 356.4 L32.7 357.4 L34.1 358.3 L35.6 359.3 L37.1 360.2 L38.5 361.1 L40.0 362.0 L41.5 362.9 L42.9 363.7 L44.4 364.5 L45.9 365.3 L47.3 366.0 L48.8 366.7 L50.3 367.3 L51.7 367.9 L53.2 368.4 L54.7 368.9 L56.1 369.4 L57.6 369.8 L59.1 370.1 L60.5 370.4 L62.0 370.6 L63.5 370.8 L64.9 370.8 L66.4 370.9 L67.9 370.8 L69.3 370.7 L70.8 370.5 L72.3 370.3 L73.7 370.0 L75.2 369.7 L76.7 369.3 L78.1 368.8 L79.6 368.3 L81.1 367.7 L82.5 367.1 L84.0 366.4 L85.5 365.7 L86.9 365.0 L88.4 364.2 L89.9 363.4 L91.3 362.6 L92.8 361.7 L94.3 360.8 L95.7 359.9 L97.2 359.0 L98.7 358.0 L100.1 357.0 L101.6 356.0 L103.1 355.0 L104.5 354.0 L106.0 353.0 L107.5 351.9 L108.9 350.8 L110.4 349.8 L111.9 348.7 L113.3 347.6 L114.8 346.5 L116.3 345.3 L117.7 344.2 L119.2 343.1 L120.7 342.0 L122.1 340.8 L123.6 339.7 L125.1 338.6 L126.5 337.4 L128.0 336.3 L129.5 335.1 L130.9 334.0 L132.4 332.8 L133.9 331.7 L135.3 330.5 L136.8 329.4 L138.3 328.2 L139.7 327.1 L141.2 325.9 L142.7 324.8 L144.1 323.7 L145.6 322.5 L147.1 321.4 L148.5 320.3 L150.0 319.2 L151.5 318.1 L152.9 317.0 L154.4 315.9 L155.9 314.8 L157.3 313.8 L158.8 312.7 L160.3 311.7 L161.7 310.6 L163.2 309.6 L164.7 308.6 L166.1 307.7 L167.6 306.7 L169.1 305.8 L170.5 304.9 L172.0 304.0 L173.5 303.1 L174.9 302.3 L176.4 301.5 L177.9 300.7 L179.3 300.0 L180.8 299.3 L182.3 298.7 L183.7 298.1 L185.2 297.6 L186.7 297.1 L188.1 296.6 L189.6 296.2 L191.1 295.9 L192.5 295.6 L194.0 295.4 L195.5 295.2 L196.9 295.2 L198.4 295.1 L199.9 295.2 L201.3 295.3 L202.8 295.5 L204.3 295.7 L205.7 296.0 L207.2 296.3 L208.7 296.7 L210.1 297.2 L211.6 297.7 L213.1 298.3 L214.5 298.9 L216.0 299.6 L217.5 300.3 L218.9 301.0 L220.4 301.8 L221.9 302.6 L223.3 303.4 L224.8 304.3 L226.3 305.2 L227.7 306.1 L229.2 307.0 L230.7 308.0 L232.1 309.0 L233.6 310.0 L235.1 311.0 L236.5 312.0 L238.0 313.0 L239.5 314.1 L240.9 315.2 L242.4 316.2 L243.9 317.3 L245.3 318.4 L246.8 319.5 L248.3 320.7 L249.7 321.8 L251.2 322.9 L252.7 324.0 L254.1 325.2 L255.6 326.3 L257.1 327.4 L258.5 328.6 L260.0 329.7 L261.5 330.9 L262.9 332.0 L264.4 333.2 L265.9 334.3 L267.3 335.5 L268.8 336.6 L270.3 337.8 L271.7 338.9 L273.2 340.1 L274.7 341.2 L276.1 342.3 L277.6 343.5 L279.1 344.6 L280.5 345.7 L282.0 346.8" fill="none" stroke="#1f6feb" stroke-width="1.4" stroke-linejoin="round" stroke-dasharray="309" stroke-dashoffset="0"><animate attributeName="stroke-dashoffset" from="309.1" to="0" dur="1.3s" begin="0.99s" fill="freeze" calcMode="spline" keySplines="0.3 0.9 0.3 1" keyTimes="0;1"/></path><g opacity="1"><animate attributeName="opacity" from="0" to="1" dur="0.4s" begin="1.89s" fill="freeze"/><circle cx="140.9" cy="326.1" r="7" fill="none" stroke="#1f6feb" stroke-width="0.9" opacity="0.65"/><circle cx="140.9" cy="326.1" r="2.6" fill="#1f6feb"/><line x1="129.9" y1="326.1" x2="151.9" y2="326.1" stroke="#1f6feb" stroke-width="0.7" opacity="0.55"></line><line x1="140.9" y1="315.1" x2="140.9" y2="337.1" stroke="#1f6feb" stroke-width="0.7" opacity="0.55"></line></g><g opacity="1"><animate attributeName="opacity" from="0" to="1" dur="0.4s" begin="1.09s" fill="freeze"/><text x="18.0" y="421.0" fill="#8d8577" font-size="7" font-weight="400" text-anchor="start" letter-spacing="1.0">LAT</text></g><g opacity="1"><animate attributeName="opacity" from="0" to="1" dur="0.4s" begin="1.09s" fill="freeze"/><text x="136.0" y="421.0" fill="#16202b" font-size="8.4" font-weight="400" text-anchor="end">+9.37°</text></g><g opacity="1"><animate attributeName="opacity" from="0" to="1" dur="0.4s" begin="1.13s" fill="freeze"/><text x="150.0" y="421.0" fill="#8d8577" font-size="7" font-weight="400" text-anchor="start" letter-spacing="1.0">LON</text></g><g opacity="1"><animate attributeName="opacity" from="0" to="1" dur="0.4s" begin="1.13s" fill="freeze"/><text x="268.0" y="421.0" fill="#16202b" font-size="8.4" font-weight="400" text-anchor="end">-12.34°</text></g><g opacity="1"><animate attributeName="opacity" from="0" to="1" dur="0.4s" begin="1.17s" fill="freeze"/><text x="18.0" y="434.0" fill="#8d8577" font-size="7" font-weight="400" text-anchor="start" letter-spacing="1.0">ALT</text></g><g opacity="1"><animate attributeName="opacity" from="0" to="1" dur="0.4s" begin="1.17s" fill="freeze"/><text x="136.0" y="434.0" fill="#16202b" font-size="8.4" font-weight="400" text-anchor="end">417.0 KM</text></g><g opacity="1"><animate attributeName="opacity" from="0" to="1" dur="0.4s" begin="1.21s" fill="freeze"/><text x="150.0" y="434.0" fill="#8d8577" font-size="7" font-weight="400" text-anchor="start" letter-spacing="1.0">VEL</text></g><g opacity="1"><animate attributeName="opacity" from="0" to="1" dur="0.4s" begin="1.21s" fill="freeze"/><text x="268.0" y="434.0" fill="#16202b" font-size="8.4" font-weight="400" text-anchor="end">27 588 KM/H</text></g><g opacity="1"><animate attributeName="opacity" from="0" to="1" dur="0.4s" begin="1.24s" fill="freeze"/><text x="18.0" y="451.0" fill="#8d8577" font-size="6.8" font-weight="400" text-anchor="start" letter-spacing="0.9">SAMPLED 22:50:16 UTC</text></g><g opacity="1"><animate attributeName="opacity" from="0" to="1" dur="0.4s" begin="0.48s" fill="freeze"/><text x="18.0" y="475.0" fill="#8d8577" font-size="7.6" font-weight="400" text-anchor="start" letter-spacing="1.3">CONTACT</text></g><line x1="18.0" y1="483.0" x2="282.0" y2="483.0" stroke="#cdc4b4" stroke-width="0.8" stroke-dasharray="264.0" opacity="1.0"><animate attributeName="stroke-dashoffset" from="264.0" to="0" dur="0.6s" begin="0.27s" fill="freeze" calcMode="spline" keySplines="0.3 0.9 0.3 1" keyTimes="0;1"/></line><g opacity="1"><animate attributeName="opacity" from="0" to="1" dur="0.4s" begin="0.82s" fill="freeze"/><text x="18.0" y="501.0" fill="#8d8577" font-size="7" font-weight="400" text-anchor="start" letter-spacing="1.1">LAST CONTACT</text></g><g opacity="1"><animate attributeName="opacity" from="0" to="1" dur="0.4s" begin="0.88s" fill="freeze"/><text x="18.0" y="520.0" fill="#16202b" font-size="15" font-weight="600" text-anchor="start" letter-spacing="0.3">23h 12m ago</text></g><g opacity="1"><animate attributeName="opacity" from="0" to="1" dur="0.4s" begin="0.92s" fill="freeze"/><text x="18.0" y="533.0" fill="#5c6873" font-size="8.6" font-weight="400" text-anchor="start">neetcode-submissions</text></g><g opacity="1"><animate attributeName="opacity" from="0" to="1" dur="0.4s" begin="0.94s" fill="freeze"/><text x="18.0" y="551.0" fill="#8d8577" font-size="7" font-weight="400" text-anchor="start" letter-spacing="1.1">STREAK</text></g><g opacity="1"><animate attributeName="opacity" from="0" to="1" dur="0.4s" begin="1.00s" fill="freeze"/><text x="18.0" y="570.0" fill="#16202b" font-size="14" font-weight="600" text-anchor="start" letter-spacing="0.3">4 DAYS</text></g><g opacity="1"><animate attributeName="opacity" from="0" to="1" dur="0.4s" begin="1.02s" fill="freeze"/><text x="150.0" y="551.0" fill="#8d8577" font-size="7" font-weight="400" text-anchor="start" letter-spacing="1.1">PUSHES / 24 H</text></g><g opacity="1"><animate attributeName="opacity" from="0" to="1" dur="0.4s" begin="1.08s" fill="freeze"/><text x="150.0" y="570.0" fill="#16202b" font-size="14" font-weight="600" text-anchor="start" letter-spacing="0.3">0</text></g><g opacity="1"><animate attributeName="opacity" from="0" to="1" dur="0.4s" begin="1.08s" fill="freeze"/><text x="18.0" y="589.0" fill="#8d8577" font-size="7" font-weight="400" text-anchor="start" letter-spacing="1.1">QUIETEST</text></g><g opacity="1"><animate attributeName="opacity" from="0" to="1" dur="0.4s" begin="1.14s" fill="freeze"/><text x="18.0" y="608.0" fill="#16202b" font-size="14" font-weight="600" text-anchor="start" letter-spacing="0.3">552 DAYS</text></g><g opacity="1"><animate attributeName="opacity" from="0" to="1" dur="0.4s" begin="1.12s" fill="freeze"/><text x="18.0" y="621.0" fill="#5c6873" font-size="8.6" font-weight="400" text-anchor="start">small-shell</text></g><g opacity="1"><animate attributeName="opacity" from="0" to="1" dur="0.4s" begin="0.80s" fill="freeze"/><text x="18.0" y="647.0" fill="#8d8577" font-size="6.8" font-weight="400" text-anchor="start" letter-spacing="1.0">GENERATED 2026-08-28 22:50 UTC</text></g></svg>