<svg xmlns="http://www.w3.org/2000/svg" width="900" height="296" viewBox="0 0 900 296" font-family="ui-monospace,SFMono-Regular,'SF Mono',Menlo,Consolas,'DejaVu Sans Mono',monospace" role="img"><defs><pattern id="grid" patternUnits="userSpaceOnUse" width="8" height="8"><path d="M8 0 L0 0 0 8" fill="none" stroke="#e9e2d4" stroke-width="0.6"/></pattern></defs><rect x="0.5" y="0.5" width="899" height="295" rx="4" fill="#fbf9f4" stroke="#c9c0b0" stroke-width="1"/><rect x="12" y="12" width="876" height="272" fill="url(#grid)" opacity="0.85"/><text x="60.7" y="8.5" fill="#8d8577" font-size="7" font-weight="400" text-anchor="middle" opacity="0.75">1</text><text x="60.7" y="292.5" fill="#8d8577" font-size="7" font-weight="400" text-anchor="middle" opacity="0.75">1</text><text x="158.0" y="8.5" fill="#8d8577" font-size="7" font-weight="400" text-anchor="middle" opacity="0.75">2</text><text x="158.0" y="292.5" fill="#8d8577" font-size="7" font-weight="400" text-anchor="middle" opacity="0.75">2</text><line x1="109.3" y1="0.0" x2="109.3" y2="12.0" stroke="#c9c0b0" stroke-width="0.7" opacity="0.5"></line><line x1="109.3" y1="284.0" x2="109.3" y2="296.0" stroke="#c9c0b0" stroke-width="0.7" opacity="0.5"></line><text x="255.3" y="8.5" fill="#8d8577" font-size="7" font-weight="400" text-anchor="middle" opacity="0.75">3</text><text x="255.3" y="292.5" fill="#8d8577" font-size="7" font-weight="400" text-anchor="middle" opacity="0.75">3</text><line x1="206.7" y1="0.0" x2="206.7" y2="12.0" stroke="#c9c0b0" stroke-width="0.7" opacity="0.5"></line><line x1="206.7" y1="284.0" x2="206.7" y2="296.0" stroke="#c9c0b0" stroke-width="0.7" opacity="0.5"></line><text x="352.7" y="8.5" fill="#8d8577" font-size="7" font-weight="400" text-anchor="middle" opacity="0.75">4</text><text x="352.7" y="292.5" fill="#8d8577" font-size="7" font-weight="400" text-anchor="middle" opacity="0.75">4</text><line x1="304.0" y1="0.0" x2="304.0" y2="12.0" stroke="#c9c0b0" stroke-width="0.7" opacity="0.5"></line><line x1="304.0" y1="284.0" x2="304.0" y2="296.0" stroke="#c9c0b0" stroke-width="0.7" opacity="0.5"></line><text x="450.0" y="8.5" fill="#8d8577" font-size="7" font-weight="400" text-anchor="middle" opacity="0.75">5</text><text x="450.0" y="292.5" fill="#8d8577" font-size="7" font-weight="400" text-anchor="middle" opacity="0.75">5</text><line x1="401.3" y1="0.0" x2="401.3" y2="12.0" stroke="#c9c0b0" stroke-width="0.7" opacity="0.5"></line><line x1="401.3" y1="284.0" x2="401.3" y2="296.0" stroke="#c9c0b0" stroke-width="0.7" opacity="0.5"></line><text x="547.3" y="8.5" fill="#8d8577" font-size="7" font-weight="400" text-anchor="middle" opacity="0.75">6</text><text x="547.3" y="292.5" fill="#8d8577" font-size="7" font-weight="400" text-anchor="middle" opacity="0.75">6</text><line x1="498.7" y1="0.0" x2="498.7" y2="12.0" stroke="#c9c0b0" stroke-width="0.7" opacity="0.5"></line><line x1="498.7" y1="284.0" x2="498.7" y2="296.0" stroke="#c9c0b0" stroke-width="0.7" opacity="0.5"></line><text x="644.7" y="8.5" fill="#8d8577" font-size="7" font-weight="400" text-anchor="middle" opacity="0.75">7</text><text x="644.7" y="292.5" fill="#8d8577" font-size="7" font-weight="400" text-anchor="middle" opacity="0.75">7</text><line x1="596.0" y1="0.0" x2="596.0" y2="12.0" stroke="#c9c0b0" stroke-width="0.7" opacity="0.5"></line><line x1="596.0" y1="284.0" x2="596.0" y2="296.0" stroke="#c9c0b0" stroke-width="0.7" opacity="0.5"></line><text x="742.0" y="8.5" fill="#8d8577" font-size="7" font-weight="400" text-anchor="middle" opacity="0.75">8</text><text x="742.0" y="292.5" fill="#8d8577" font-size="7" font-weight="400" text-anchor="middle" opacity="0.75">8</text><line x1="693.3" y1="0.0" x2="693.3" y2="12.0" stroke="#c9c0b0" stroke-width="0.7" opacity="0.5"></line><line x1="693.3" y1="284.0" x2="693.3" y2="296.0" stroke="#c9c0b0" stroke-width="0.7" opacity="0.5"></line><text x="839.3" y="8.5" fill="#8d8577" font-size="7" font-weight="400" text-anchor="middle" opacity="0.75">9</text><text x="839.3" y="292.5" fill="#8d8577" font-size="7" font-weight="400" text-anchor="middle" opacity="0.75">9</text><line x1="790.7" y1="0.0" x2="790.7" y2="12.0" stroke="#c9c0b0" stroke-width="0.7" opacity="0.5"></line><line x1="790.7" y1="284.0" x2="790.7" y2="296.0" stroke="#c9c0b0" stroke-width="0.7" opacity="0.5"></line><text x="7.5" y="59.8" fill="#8d8577" font-size="7" font-weight="400" text-anchor="middle" opacity="0.75">A</text><text x="892.5" y="59.8" fill="#8d8577" font-size="7" font-weight="400" text-anchor="middle" opacity="0.75">A</text><text x="7.5" y="150.5" fill="#8d8577" font-size="7" font-weight="400" text-anchor="middle" opacity="0.75">B</text><text x="892.5" y="150.5" fill="#8d8577" font-size="7" font-weight="400" text-anchor="middle" opacity="0.75">B</text><line x1="0.0" y1="102.7" x2="12.0" y2="102.7" stroke="#c9c0b0" stroke-width="0.7" opacity="0.5"></line><line x1="888.0" y1="102.7" x2="900.0" y2="102.7" stroke="#c9c0b0" stroke-width="0.7" opacity="0.5"></line><text x="7.5" y="241.2" fill="#8d8577" font-size="7" font-weight="400" text-anchor="middle" opacity="0.75">C</text><text x="892.5" y="241.2" fill="#8d8577" font-size="7" font-weight="400" text-anchor="middle" opacity="0.75">C</text><line x1="0.0" y1="193.3" x2="12.0" y2="193.3" stroke="#c9c0b0" stroke-width="0.7" opacity="0.5"></line><line x1="888.0" y1="193.3" x2="900.0" y2="193.3" stroke="#c9c0b0" stroke-width="0.7" opacity="0.5"></line><rect x="12.5" y="12.5" width="875" height="271" fill="none" stroke="#c9c0b0" stroke-width="1.2"/><path d="M19.0 12.0 L12.0 12.0 L12.0 19.0" fill="none" stroke="#16202b" stroke-width="1.4" opacity="0.55"/><path d="M881.0 12.0 L888.0 12.0 L888.0 19.0" fill="none" stroke="#16202b" stroke-width="1.4" opacity="0.55"/><path d="M19.0 284.0 L12.0 284.0 L12.0 277.0" fill="none" stroke="#16202b" stroke-width="1.4" opacity="0.55"/><path d="M881.0 284.0 L888.0 284.0 L888.0 277.0" fill="none" stroke="#16202b" stroke-width="1.4" opacity="0.55"/><text x="22.0" y="27.0" fill="#8d8577" font-size="8" font-weight="400" text-anchor="start" letter-spacing="1.6">DAILY TELEMETRY</text><text x="878.0" y="276.0" fill="#8d8577" font-size="7.5" font-weight="400" text-anchor="end" letter-spacing="1.2">SH 3 / 5</text><line x1="252.1" y1="32.0" x2="252.1" y2="266.0" stroke="#c9c0b0" stroke-width="0.9" stroke-dasharray="234.0" opacity="1.0"><animate attributeName="stroke-dashoffset" from="234.0" to="0" dur="0.9s" begin="0.22s" fill="freeze" calcMode="spline" keySplines="0.3 0.9 0.3 1" keyTimes="0;1"/></line><line x1="380.3" y1="32.0" x2="380.3" y2="266.0" stroke="#c9c0b0" stroke-width="0.9" stroke-dasharray="234.0" opacity="1.0"><animate attributeName="stroke-dashoffset" from="234.0" to="0" dur="0.9s" begin="0.22s" fill="freeze" calcMode="spline" keySplines="0.3 0.9 0.3 1" keyTimes="0;1"/></line><line x1="685.6" y1="32.0" x2="685.6" y2="266.0" stroke="#c9c0b0" stroke-width="0.9" stroke-dasharray="234.0" opacity="1.0"><animate attributeName="stroke-dashoffset" from="234.0" to="0" dur="0.9s" begin="0.22s" fill="freeze" calcMode="spline" keySplines="0.3 0.9 0.3 1" keyTimes="0;1"/></line><g opacity="1"><animate attributeName="opacity" from="0" to="1" dur="0.4s" begin="0.30s" fill="freeze"/><text x="26.0" y="52.0" fill="#8d8577" font-size="7.6" font-weight="400" text-anchor="start" letter-spacing="1.3">LAUNCH WINDOW</text></g><line x1="26.0" y1="60.0" x2="240.1" y2="60.0" stroke="#c9c0b0" stroke-width="0.8" stroke-dasharray="214.1" opacity="1.0"><animate attributeName="stroke-dashoffset" from="214.1" to="0" dur="0.6s" begin="0.15s" fill="freeze" calcMode="spline" keySplines="0.3 0.9 0.3 1" keyTimes="0;1"/></line><g opacity="1"><animate attributeName="opacity" from="0" to="1" dur="0.5s" begin="0.58s" fill="freeze"/><text x="26.0" y="98.0" fill="#16202b" font-size="20" font-weight="700" text-anchor="start" letter-spacing="1.2">T− 00d 19h 09m</text></g><g opacity="1"><animate attributeName="opacity" from="0" to="1" dur="0.4s" begin="0.63s" fill="freeze"/><line x1="26.0" y1="108.0" x2="240.1" y2="108.0" stroke="#c9c0b0" stroke-width="0.7" opacity="0.8"></line></g><g opacity="1"><animate attributeName="opacity" from="0" to="1" dur="0.4s" begin="0.68s" fill="freeze"/><text x="26.0" y="126.0" fill="#16202b" font-size="11" font-weight="700" text-anchor="start">Unknown Payload</text></g><g opacity="1"><animate attributeName="opacity" from="0" to="1" dur="0.4s" begin="0.68s" fill="freeze"/><text x="26.0" y="140.0" fill="#5c6873" font-size="8.6" font-weight="400" text-anchor="start">Long March 6C</text></g><g opacity="1"><animate attributeName="opacity" from="0" to="1" dur="0.4s" begin="0.73s" fill="freeze"/><text x="26.0" y="162.0" fill="#8d8577" font-size="6.8" font-weight="400" text-anchor="start" letter-spacing="1.0">STATUS</text></g><g opacity="1"><animate attributeName="opacity" from="0" to="1" dur="0.4s" begin="0.76s" fill="freeze"/><text x="26.0" y="176.0" fill="#1f6feb" font-size="11" font-weight="400" text-anchor="start" letter-spacing="1.2">GO</text></g><g opacity="1"><animate attributeName="opacity" from="0" to="1" dur="0.4s" begin="0.36s" fill="freeze"/><text x="262.1" y="52.0" fill="#8d8577" font-size="7.6" font-weight="400" text-anchor="start" letter-spacing="1.3">OFF-PLANET</text></g><line x1="262.1" y1="60.0" x2="368.3" y2="60.0" stroke="#c9c0b0" stroke-width="0.8" stroke-dasharray="106.1" opacity="1.0"><animate attributeName="stroke-dashoffset" from="106.1" to="0" dur="0.6s" begin="0.19s" fill="freeze" calcMode="spline" keySplines="0.3 0.9 0.3 1" keyTimes="0;1"/></line><g opacity="1"><animate attributeName="opacity" from="0" to="1" dur="0.6s" begin="0.66s" fill="freeze"/><text x="315.2" y="124.0" fill="#16202b" font-size="48" font-weight="700" text-anchor="middle" letter-spacing="1.0">11</text></g><g opacity="1"><animate attributeName="opacity" from="0" to="1" dur="0.4s" begin="0.76s" fill="freeze"/><text x="315.2" y="142.0" fill="#8d8577" font-size="8" font-weight="400" text-anchor="middle" letter-spacing="1.3">HUMANS</text></g><g opacity="1"><animate attributeName="opacity" from="0" to="1" dur="0.4s" begin="0.76s" fill="freeze"/><text x="315.2" y="154.0" fill="#8d8577" font-size="8" font-weight="400" text-anchor="middle" letter-spacing="1.3">IN SPACE</text></g><g opacity="1"><animate attributeName="opacity" from="0" to="1" dur="0.4s" begin="0.42s" fill="freeze"/><text x="390.3" y="52.0" fill="#8d8577" font-size="7.6" font-weight="400" text-anchor="start" letter-spacing="1.3">ISS GROUND TRACK</text></g><line x1="390.3" y1="60.0" x2="673.6" y2="60.0" stroke="#c9c0b0" stroke-width="0.8" stroke-dasharray="283.3" opacity="1.0"><animate attributeName="stroke-dashoffset" from="283.3" to="0" dur="0.6s" begin="0.23s" fill="freeze" calcMode="spline" keySplines="0.3 0.9 0.3 1" keyTimes="0;1"/></line><g opacity="1"><animate attributeName="opacity" from="0" to="1" dur="0.4s" begin="0.74s" fill="freeze"/><rect x="390.3" y="78.0" width="283.3" height="126.0" fill="#efe9dc" stroke="#c9c0b0" stroke-width="1" opacity="0.9"/><line x1="413.9" y1="78.0" x2="413.9" y2="204.0" stroke="#c9c0b0" stroke-width="0.6" opacity="0.65"></line><line x1="437.5" y1="78.0" x2="437.5" y2="204.0" stroke="#c9c0b0" stroke-width="0.6" opacity="0.65"></line><line x1="461.1" y1="78.0" x2="461.1" y2="204.0" stroke="#c9c0b0" stroke-width="0.6" opacity="0.65"></line><line x1="484.7" y1="78.0" x2="484.7" y2="204.0" stroke="#c9c0b0" stroke-width="0.6" opacity="0.65"></line><line x1="508.3" y1="78.0" x2="508.3" y2="204.0" stroke="#c9c0b0" stroke-width="0.6" opacity="0.65"></line><line x1="531.9" y1="78.0" x2="531.9" y2="204.0" stroke="#c9c0b0" stroke-width="0.6" opacity="0.65"></line><line x1="555.5" y1="78.0" x2="555.5" y2="204.0" stroke="#c9c0b0" stroke-width="0.6" opacity="0.65"></line><line x1="579.1" y1="78.0" x2="579.1" y2="204.0" stroke="#c9c0b0" stroke-width="0.6" opacity="0.65"></line><line x1="602.7" y1="78.0" x2="602.7" y2="204.0" stroke="#c9c0b0" stroke-width="0.6" opacity="0.65"></line><line x1="626.3" y1="78.0" x2="626.3" y2="204.0" stroke="#c9c0b0" stroke-width="0.6" opacity="0.65"></line><line x1="649.9" y1="78.0" x2="649.9" y2="204.0" stroke="#c9c0b0" stroke-width="0.6" opacity="0.65"></line><line x1="390.3" y1="183.0" x2="673.6" y2="183.0" stroke="#c9c0b0" stroke-width="0.6" opacity="0.6"></line><line x1="390.3" y1="162.0" x2="673.6" y2="162.0" stroke="#c9c0b0" stroke-width="0.6" opacity="0.6"></line><line x1="390.3" y1="141.0" x2="673.6" y2="141.0" stroke="#c9c0b0" stroke-width="0.6" opacity="0.95"></line><line x1="390.3" y1="120.0" x2="673.6" y2="120.0" stroke="#c9c0b0" stroke-width="0.6" opacity="0.6"></line><line x1="390.3" y1="99.0" x2="673.6" y2="99.0" stroke="#c9c0b0" stroke-width="0.6" opacity="0.6"></line><text x="394.3" y="137.0" fill="#8d8577" font-size="6" font-weight="400" text-anchor="start" letter-spacing="0.6" opacity="0.8">EQ</text><line x1="390.3" y1="104.9" x2="673.6" y2="104.9" stroke="#5c6873" stroke-width="0.7" stroke-dasharray="3 3" opacity="0.55"></line><line x1="390.3" y1="177.1" x2="673.6" y2="177.1" stroke="#5c6873" stroke-width="0.7" stroke-dasharray="3 3" opacity="0.55"></line><text x="669.6" y="100.9" fill="#8d8577" font-size="6" font-weight="400" text-anchor="end" letter-spacing="0.4" opacity="0.75">INC 51.6°</text><text x="391.3" y="212.0" fill="#8d8577" font-size="6" font-weight="400" text-anchor="start" letter-spacing="0.4">-180°</text><text x="531.9" y="212.0" fill="#8d8577" font-size="6" font-weight="400" text-anchor="middle" letter-spacing="0.4">0°</text><text x="672.6" y="212.0" fill="#8d8577" font-size="6" font-weight="400" text-anchor="end" letter-spacing="0.4">180°</text></g><path d="M390.3 107.6 L391.8 108.2 L393.4 108.8 L395.0 109.4 L396.6 110.1 L398.1 110.8 L399.7 111.6 L401.3 112.3 L402.9 113.2 L404.4 114.0 L406.0 114.9 L407.6 115.7 L409.2 116.6 L410.7 117.6 L412.3 118.5 L413.9 119.5 L415.5 120.5 L417.0 121.4 L418.6 122.4 L420.2 123.5 L421.8 124.5 L423.3 125.5 L424.9 126.6 L426.5 127.6 L428.0 128.7 L429.6 129.7 L431.2 130.8 L432.8 131.9 L434.3 133.0 L435.9 134.1 L437.5 135.1 L439.1 136.2 L440.6 137.3 L442.2 138.4 L443.8 139.5 L445.4 140.6 L446.9 141.7 L448.5 142.8 L450.1 143.9 L451.7 145.0 L453.2 146.1 L454.8 147.2 L456.4 148.3 L457.9 149.4 L459.5 150.4 L461.1 151.5 L462.7 152.6 L464.2 153.7 L465.8 154.7 L467.4 155.8 L469.0 156.8 L470.5 157.8 L472.1 158.9 L473.7 159.9 L475.3 160.9 L476.8 161.9 L478.4 162.8 L480.0 163.8 L481.6 164.7 L483.1 165.6 L484.7 166.5 L486.3 167.4 L487.8 168.3 L489.4 169.1 L491.0 169.9 L492.6 170.7 L494.1 171.4 L495.7 172.1 L497.3 172.8 L498.9 173.4 L500.4 174.0 L502.0 174.6 L503.6 175.1 L505.2 175.5 L506.7 175.9 L508.3 176.3 L509.9 176.6 L511.5 176.8 L513.0 177.0 L514.6 177.1 L516.2 177.1 L517.8 177.1 L519.3 177.1 L520.9 176.9 L522.5 176.7 L524.0 176.5 L525.6 176.2 L527.2 175.8 L528.8 175.4 L530.3 174.9 L531.9 174.4 L533.5 173.8 L535.1 173.2 L536.6 172.6 L538.2 171.9 L539.8 171.2 L541.4 170.4 L542.9 169.7 L544.5 168.8 L546.1 168.0 L547.7 167.1 L549.2 166.3 L550.8 165.4 L552.4 164.4 L553.9 163.5 L555.5 162.5 L557.1 161.5 L558.7 160.6 L560.2 159.6 L561.8 158.5 L563.4 157.5 L565.0 156.5 L566.5 155.4 L568.1 154.4 L569.7 153.3 L571.3 152.3 L572.8 151.2 L574.4 150.1 L576.0 149.0 L577.6 147.9 L579.1 146.9 L580.7 145.8 L582.3 144.7 L583.9 143.6 L585.4 142.5 L587.0 141.4 L588.6 140.3 L590.1 139.2 L591.7 138.1 L593.3 137.0 L594.9 135.9 L596.4 134.8 L598.0 133.7 L599.6 132.6 L601.2 131.6 L602.7 130.5 L604.3 129.4 L605.9 128.3 L607.5 127.3 L609.0 126.2 L610.6 125.2 L612.2 124.2 L613.8 123.1 L615.3 122.1 L616.9 121.1 L618.5 120.1 L620.0 119.2 L621.6 118.2 L623.2 117.3 L624.8 116.4 L626.3 115.5 L627.9 114.6 L629.5 113.7 L631.1 112.9 L632.6 112.1 L634.2 111.3 L635.8 110.6 L637.4 109.9 L638.9 109.2 L640.5 108.6 L642.1 108.0 L643.7 107.4 L645.2 106.9 L646.8 106.5 L648.4 106.1 L649.9 105.7 L651.5 105.4 L653.1 105.2 L654.7 105.0 L656.2 104.9 L657.8 104.9 L659.4 104.9 L661.0 104.9 L662.5 105.1 L664.1 105.3 L665.7 105.5 L667.3 105.8 L668.8 106.2 L670.4 106.6 L672.0 107.1 L673.6 107.6" fill="none" stroke="#1f6feb" stroke-width="1.4" stroke-linejoin="round" stroke-dasharray="322" stroke-dashoffset="0"><animate attributeName="stroke-dashoffset" from="322.3" to="0" dur="1.3s" begin="0.99s" fill="freeze" calcMode="spline" keySplines="0.3 0.9 0.3 1" keyTimes="0;1"/></path><g opacity="1"><animate attributeName="opacity" from="0" to="1" dur="0.4s" begin="1.89s" fill="freeze"/><circle cx="576.3" cy="148.8" r="7" fill="none" stroke="#1f6feb" stroke-width="0.9" opacity="0.65"/><circle cx="576.3" cy="148.8" r="2.6" fill="#1f6feb"/><line x1="565.3" y1="148.8" x2="587.3" y2="148.8" stroke="#1f6feb" stroke-width="0.7" opacity="0.55"></line><line x1="576.3" y1="137.8" x2="576.3" y2="159.8" stroke="#1f6feb" stroke-width="0.7" opacity="0.55"></line></g><g opacity="1"><animate attributeName="opacity" from="0" to="1" dur="0.4s" begin="1.09s" fill="freeze"/><text x="390.3" y="228.0" fill="#8d8577" font-size="7" font-weight="400" text-anchor="start" letter-spacing="1.0">LAT</text></g><g opacity="1"><animate attributeName="opacity" from="0" to="1" dur="0.4s" begin="1.09s" fill="freeze"/><text x="513.9" y="228.0" fill="#16202b" font-size="8.4" font-weight="400" text-anchor="end">-11.20°</text></g><g opacity="1"><animate attributeName="opacity" from="0" to="1" dur="0.4s" begin="1.13s" fill="freeze"/><text x="531.9" y="228.0" fill="#8d8577" font-size="7" font-weight="400" text-anchor="start" letter-spacing="1.0">LON</text></g><g opacity="1"><animate attributeName="opacity" from="0" to="1" dur="0.4s" begin="1.13s" fill="freeze"/><text x="655.6" y="228.0" fill="#16202b" font-size="8.4" font-weight="400" text-anchor="end">+56.34°</text></g><g opacity="1"><animate attributeName="opacity" from="0" to="1" dur="0.4s" begin="1.17s" fill="freeze"/><text x="390.3" y="241.0" fill="#8d8577" font-size="7" font-weight="400" text-anchor="start" letter-spacing="1.0">ALT</text></g><g opacity="1"><animate attributeName="opacity" from="0" to="1" dur="0.4s" begin="1.17s" fill="freeze"/><text x="513.9" y="241.0" fill="#16202b" font-size="8.4" font-weight="400" text-anchor="end">422.9 KM</text></g><g opacity="1"><animate attributeName="opacity" from="0" to="1" dur="0.4s" begin="1.21s" fill="freeze"/><text x="531.9" y="241.0" fill="#8d8577" font-size="7" font-weight="400" text-anchor="start" letter-spacing="1.0">VEL</text></g><g opacity="1"><animate attributeName="opacity" from="0" to="1" dur="0.4s" begin="1.21s" fill="freeze"/><text x="655.6" y="241.0" fill="#16202b" font-size="8.4" font-weight="400" text-anchor="end">27 565 KM/H</text></g><g opacity="1"><animate attributeName="opacity" from="0" to="1" dur="0.4s" begin="1.24s" fill="freeze"/><text x="390.3" y="258.0" fill="#8d8577" font-size="6.8" font-weight="400" text-anchor="start" letter-spacing="0.9">SAMPLED 08:11:03 UTC</text></g><g opacity="1"><animate attributeName="opacity" from="0" to="1" dur="0.4s" begin="0.48s" fill="freeze"/><text x="695.6" y="52.0" fill="#8d8577" font-size="7.6" font-weight="400" text-anchor="start" letter-spacing="1.3">CONTACT</text></g><line x1="695.6" y1="60.0" x2="862.0" y2="60.0" stroke="#c9c0b0" stroke-width="0.8" stroke-dasharray="166.4" opacity="1.0"><animate attributeName="stroke-dashoffset" from="166.4" to="0" dur="0.6s" begin="0.27s" fill="freeze" calcMode="spline" keySplines="0.3 0.9 0.3 1" keyTimes="0;1"/></line><g opacity="1"><animate attributeName="opacity" from="0" to="1" dur="0.4s" begin="0.82s" fill="freeze"/><text x="695.6" y="88.0" fill="#8d8577" font-size="7" font-weight="400" text-anchor="start" letter-spacing="1.1">LAST CONTACT</text></g><g opacity="1"><animate attributeName="opacity" from="0" to="1" dur="0.4s" begin="0.88s" fill="freeze"/><text x="695.6" y="107.0" fill="#16202b" font-size="15" font-weight="600" text-anchor="start" letter-spacing="0.3">1h 03m ago</text></g><g opacity="1"><animate attributeName="opacity" from="0" to="1" dur="0.4s" begin="0.92s" fill="freeze"/><text x="695.6" y="120.0" fill="#5c6873" font-size="8.6" font-weight="400" text-anchor="start">gpt-scratch</text></g><g opacity="1"><animate attributeName="opacity" from="0" to="1" dur="0.4s" begin="0.94s" fill="freeze"/><text x="695.6" y="140.0" fill="#8d8577" font-size="7" font-weight="400" text-anchor="start" letter-spacing="1.1">STREAK</text></g><g opacity="1"><animate attributeName="opacity" from="0" to="1" dur="0.4s" begin="1.00s" fill="freeze"/><text x="695.6" y="159.0" fill="#16202b" font-size="14" font-weight="600" text-anchor="start" letter-spacing="0.3">1 DAY</text></g><g opacity="1"><animate attributeName="opacity" from="0" to="1" dur="0.4s" begin="1.02s" fill="freeze"/><text x="695.6" y="180.0" fill="#8d8577" font-size="7" font-weight="400" text-anchor="start" letter-spacing="1.1">PUSHES / 24 H</text></g><g opacity="1"><animate attributeName="opacity" from="0" to="1" dur="0.4s" begin="1.08s" fill="freeze"/><text x="695.6" y="199.0" fill="#16202b" font-size="14" font-weight="600" text-anchor="start" letter-spacing="0.3">1</text></g><g opacity="1"><animate attributeName="opacity" from="0" to="1" dur="0.4s" begin="1.08s" fill="freeze"/><text x="695.6" y="220.0" fill="#8d8577" font-size="7" font-weight="400" text-anchor="start" letter-spacing="1.1">QUIETEST</text></g><g opacity="1"><animate attributeName="opacity" from="0" to="1" dur="0.4s" begin="1.14s" fill="freeze"/><text x="695.6" y="239.0" fill="#16202b" font-size="14" font-weight="600" text-anchor="start" letter-spacing="0.3">548 DAYS</text></g><g opacity="1"><animate attributeName="opacity" from="0" to="1" dur="0.4s" begin="1.12s" fill="freeze"/><text x="695.6" y="252.0" fill="#5c6873" font-size="8.6" font-weight="400" text-anchor="start">small-shell</text></g><g opacity="1"><animate attributeName="opacity" from="0" to="1" dur="0.4s" begin="0.80s" fill="freeze"/><text x="26.0" y="274.0" fill="#8d8577" font-size="6.8" font-weight="400" text-anchor="start" letter-spacing="1.0">GENERATED 2026-08-24 08:10 UTC</text></g></svg>